SplineFontDB: 2.0
FontName: Waree-BoldOblique
FullName: Waree Bold Oblique
FamilyName: Waree
Weight: Bold
Copyright: Copyright (c) 2003 by Bitstream, Inc. All Rights Reserved.\n\nModified under GNU General Public License by TLWG.
Version: 0.11.1: 2007-12-07
ItalicAngle: -11
UnderlinePosition: -170
UnderlineWidth: 10
Ascent: 1638
Descent: 410
NeedsXUIDChange: 1
FSType: 0
OS2Version: 0
OS2_WeightWidthSlopeOnly: 0
OS2_UseTypoMetrics: 0
CreationTime: 1153662462
ModificationTime: 1198733535
PfmFamily: 33
TTFWeight: 700
TTFWidth: 5
LineGap: 0
VLineGap: 0
Panose: 2 11 6 4 2 2 2 2 2 4
OS2TypoAscent: 0
OS2TypoAOffset: 1
OS2TypoDescent: 0
OS2TypoDOffset: 1
OS2TypoLinegap: 0
OS2WinAscent: 0
OS2WinAOffset: 1
OS2WinDescent: 0
OS2WinDOffset: 1
HheadAscent: 0
HheadAOffset: 1
HheadDescent: 0
HheadDOffset: 1
OS2SubXSize: -3428
OS2SubYSize: 26328
OS2SubXOff: 0
OS2SubYOff: 0
OS2SupXSize: 26172
OS2SupYSize: 3
OS2SupXOff: -12668
OS2SupYOff: -12668
OS2StrikeYSize: 21536
OS2StrikeYPos: 90
OS2Vendor: 'PfEd'
Lookup: 4 0 1 "'liga' Standard Ligatures in Latin lookup 2"  {"'liga' Standard Ligatures in Latin lookup 2"  } ['liga' ('latn' <'dflt' > ) ]
Lookup: 4 0 0 "'frac' Diagonal Fractions in Thai lookup 3"  {"'frac' Diagonal Fractions in Thai lookup 3"  } ['frac' ('thai' <'KUY ' 'PAL ' 'THA ' 'dflt' > ) ]
Lookup: 6 0 0 "'ccmp' Thai General Composition"  {"'ccmp' Thai Below Vowel Tone Reordering"  "'ccmp' Thai General Composition"  } ['ccmp' ('thai' <'KUY ' 'PAL ' 'THA ' 'dflt' > ) ]
Lookup: 6 0 0 "'ccmp' Thai Conditional Descender Removal"  {"'ccmp' Thai Conditional Descender Removal"  } ['ccmp' ('thai' <'KUY ' 'PAL ' 'THA ' 'dflt' > ) ]
Lookup: 5 0 0 "Required Thai Descender Removal"  {"Required Thai Descender Removal"  } [' RQD' ('thai' <'PAL ' > ) ]
Lookup: 1 0 0 "Thai Descender Removal Single Substitution"  {"Thai Descender Removal Single Substitution" ("descless" ) } []
Lookup: 2 0 0 "Thai Sara Am Decomposition"  {"Thai Sara Am Decomposition"  } []

StartChar: .notdef
Encoding: 395 -1 0
Width: 1229
Flags: W
HStem: -362 114<169 964> 1329 115<475 1270>
Fore
32 -362 m 1
 383 1444 l 1
 1407 1444 l 1
 1056 -362 l 1
 32 -362 l 1
169 -248 m 1
 964 -248 l 1
 1270 1329 l 1
 475 1329 l 1
 169 -248 l 1
EndSplineSet
EndChar
StartChar: uni0E4D.high
Encoding: 392 63262 2
Width: 0
VWidth: 2348
Flags: W
HStem: 2036 114<97.0602 226.684> 2294 114<107.232 237.583>
VStem: -22 116<2153.06 2281.75> 240 117<2162.91 2291.08>
AnchorPoint: "AboveMark" 128 1999 mark 0
Fore
-22 2185 m 0
 -22 2319 107 2408 203 2408 c 0
 297 2408 357 2344 357 2259 c 0
 357 2140 247 2036 132 2036 c 0
 39 2036 -22 2101 -22 2185 c 0
153 2150 m 0
 203 2150 240 2195 240 2236 c 0
 240 2271 215 2294 181 2294 c 0
 136 2294 94 2253 94 2208 c 0
 94 2173 119 2150 153 2150 c 0
EndSplineSet
EndChar
StartChar: exclam
Encoding: 3 33 5
Width: 934
Flags: W
HStem: 0 356<356 647> 1473 20G<573.126 937>
VStem: 287 650<0 1493 -577.498 0>
Fore
577 1493 m 1
 937 1493 l 1
 826 920 l 1
 694 502 l 1
 436 502 l 1
 466 920 l 1
 577 1493 l 1
356 356 m 1
 716 356 l 1
 647 0 l 1
 287 0 l 1
 356 356 l 1
EndSplineSet
EndChar
StartChar: quotedbl
Encoding: 4 34 6
Width: 1067
Flags: W
HStem: 938 555<485 614 925 1054 377 1162 485 485>
Fore
1162 1493 m 1
 1054 938 l 1
 817 938 l 1
 925 1493 l 1
 1162 1493 l 1
722 1493 m 1
 614 938 l 1
 377 938 l 1
 485 1493 l 1
 722 1493 l 1
EndSplineSet
EndChar
StartChar: numbersign
Encoding: 5 35 7
Width: 1716
Flags: W
HStem: 0 21G<322 553.877 809 1038.88> 383 215<255 492 806 979 1294 1536> 872 213<465 706 1026 1194 1511 1746>
Fore
1197 1470 m 1
 1026 1085 l 1
 1290 1085 l 1
 1462 1470 l 1
 1683 1470 l 1
 1511 1085 l 1
 1788 1085 l 1
 1746 872 l 1
 1416 872 l 1
 1294 598 l 1
 1578 598 l 1
 1536 383 l 1
 1200 383 l 1
 1030 0 l 1
 809 0 l 1
 979 383 l 1
 715 383 l 1
 545 0 l 1
 322 0 l 1
 492 383 l 1
 213 383 l 1
 255 598 l 1
 583 598 l 1
 706 872 l 1
 424 872 l 1
 465 1085 l 1
 803 1085 l 1
 974 1470 l 1
 1197 1470 l 1
1194 872 m 1
 930 872 l 1
 806 598 l 1
 1070 598 l 1
 1194 872 l 1
EndSplineSet
EndChar
StartChar: dollar
Encoding: 6 36 8
Width: 1425
Flags: W
HStem: 0 228<419.625 633 840 975.681> 1006 254<1065.16 1441> 1097 228<723.857 846 1053 1259.95> 1536 20G<931.19 1097>
VStem: 332 331<767.684 1041.12> 1044 330<287.99 588.312>
Fore
1374 497 m 0xdc
 1374 300 1275 29 795 2 c 1
 736 -301 l 1
 574 -301 l 1
 633 0 l 1
 504 5 344 26 180 92 c 1
 231 354 l 1
 384 267 535 233 677 228 c 1
 738 539 l 1
 706 545 l 2
 455 591 332 673 332 845 c 0
 332 1037 451 1308 891 1325 c 1xbc
 935 1556 l 1
 1097 1556 l 1
 1053 1329 l 1
 1193 1318 1321 1294 1441 1260 c 1
 1392 1006 l 1
 1297 1049 1169 1092 1009 1100 c 1
 953 813 l 1
 984 807 l 2
 1225 768 1374 696 1374 497 c 0xdc
846 1097 m 1
 744 1091 663 1035 663 941 c 0
 663 895 689 848 796 836 c 1
 846 1097 l 1
840 232 m 1
 1012 234 1044 333 1044 401 c 0
 1044 478 980 500 894 510 c 1
 840 232 l 1
EndSplineSet
EndChar
StartChar: percent
Encoding: 7 37 9
Width: 2052
Flags: W
HStem: -29 170<1529.23 1717.85> 616 168<1603.3 1795.68> 707 167<545.532 738.502> 1352 168<623.273 817.108>
VStem: 272 250<898.769 1225.26> 841 251<999.771 1327.23> 1249 253<163.885 485.777> 1819 253<266.303 592.424>
Fore
1614 141 m 256xdf
 1778 141 1819 385 1819 472 c 0
 1819 554 1789 616 1707 616 c 256
 1543 616 1502 371 1502 284 c 0
 1502 202 1531 141 1614 141 c 256xdf
1249 273 m 0
 1249 502 1396 784 1739 784 c 256
 1950 784 2072 674 2072 483 c 0
 2072 260 1928 -29 1581 -29 c 256
 1370 -29 1249 82 1249 273 c 0
664 -29 m 1
 443 -29 l 1
 1677 1520 l 1
 1899 1520 l 1
 664 -29 l 1
272 1007 m 0
 272 1230 412 1520 760 1520 c 256
 971 1520 1092 1410 1092 1218 c 0
 1092 991 945 707 602 707 c 256xbf
 392 707 272 817 272 1007 c 0
635 874 m 256
 800 874 841 1119 841 1206 c 0
 841 1290 811 1352 728 1352 c 0
 563 1352 522 1108 522 1020 c 0
 522 936 552 874 635 874 c 256
EndSplineSet
EndChar
StartChar: ampersand
Encoding: 8 38 10
Width: 1786
Flags: W
HStem: -29 258<658.224 988.336> 1278 242<968.314 1333.09>
VStem: 204 358<320.822 576.354> 566 360<1022.39 1235.97> 1495 311<658.885 895>
Fore
566 1099 m 0
 566 1267 712 1520 1106 1520 c 0
 1249 1520 1381 1493 1490 1462 c 1
 1436 1184 l 1
 1360 1227 1249 1278 1112 1278 c 0
 966 1278 926 1198 926 1145 c 0
 926 1097 954 1042 992 991 c 2
 1313 541 l 1
 1420 653 1468 782 1495 895 c 1
 1806 895 l 1
 1738 648 1627 463 1470 322 c 1
 1700 0 l 1
 1276 0 l 1
 1199 109 l 1
 1106 54 939 -29 705 -29 c 0
 396 -29 204 126 204 368 c 0
 204 714 520 891 611 944 c 1
 587 984 566 1035 566 1099 c 0
744 743 m 1
 588 644 562 520 562 455 c 0
 562 326 659 229 803 229 c 0
 903 229 984 264 1051 311 c 1
 744 743 l 1
EndSplineSet
EndChar
StartChar: quotesingle
Encoding: 9 39 11
Width: 627
Flags: W
HStem: 938 555<485 614 377 722 485 485>
Fore
722 1493 m 1
 614 938 l 1
 377 938 l 1
 485 1493 l 1
 722 1493 l 1
EndSplineSet
EndChar
StartChar: parenleft
Encoding: 10 40 12
Width: 936
Flags: W
VStem: 276 335<31.5132 703.901>
Fore
1074 1554 m 1
 841 1236 611 823 611 336 c 0
 611 101 663 -105 720 -270 c 1
 423 -270 l 1
 347 -92 276 128 276 382 c 0
 276 851 527 1249 777 1554 c 1
 1074 1554 l 1
EndSplineSet
EndChar
StartChar: parenright
Encoding: 11 41 13
Width: 936
Flags: W
VStem: 574 336<579.042 1247.05>
Fore
910 899 m 0
 910 431 662 42 409 -270 c 1
 112 -270 l 1
 343 48 574 460 574 947 c 0
 574 1181 523 1388 466 1554 c 1
 763 1554 l 1
 838 1379 910 1156 910 899 c 0
EndSplineSet
EndChar
StartChar: asterisk
Encoding: 12 42 14
Width: 1071
Flags: W
HStem: 569 951<732 746 1396.39 1714.64>
Fore
1267 1217 m 1
 903 1044 l 1
 1199 870 l 1
 1096 729 l 1
 798 913 l 1
 732 569 l 1
 562 569 l 1
 628 913 l 1
 259 729 l 1
 210 870 l 1
 578 1044 l 1
 278 1217 l 1
 381 1358 l 1
 680 1176 l 1
 746 1520 l 1
 916 1520 l 1
 850 1176 l 1
 1218 1358 l 1
 1267 1217 l 1
EndSplineSet
EndChar
StartChar: plus
Encoding: 13 43 15
Width: 1716
Flags: W
HStem: 0 21G<739 980.893> 524 236<365 841 1125 1601>
Fore
1227 1284 m 1
 1125 760 l 1
 1647 760 l 1
 1601 524 l 1
 1079 524 l 1
 977 0 l 1
 739 0 l 1
 841 524 l 1
 319 524 l 1
 365 760 l 1
 887 760 l 1
 989 1284 l 1
 1227 1284 l 1
EndSplineSet
EndChar
StartChar: comma
Encoding: 14 44 16
Width: 778
Flags: W
HStem: -291 678<265 284 284 284>
Fore
284 387 m 1
 644 387 l 1
 585 82 l 1
 265 -291 l 1
 52 -291 l 1
 225 82 l 1
 284 387 l 1
EndSplineSet
EndChar
StartChar: hyphen
Encoding: 15 45 17
Width: 850
Flags: W
HStem: 444 291<254 825 254 825 254 254>
Fore
254 735 m 1
 882 735 l 1
 825 444 l 1
 197 444 l 1
 254 735 l 1
EndSplineSet
EndChar
StartChar: period
Encoding: 16 46 18
Width: 778
Flags: W
HStem: 0 387<284 569 209 644 284 284>
Fore
284 387 m 1
 644 387 l 1
 569 0 l 1
 209 0 l 1
 284 387 l 1
EndSplineSet
EndChar
StartChar: slash
Encoding: 17 47 19
Width: 748
Flags: W
HStem: 1473 20G<805.863 1038>
Fore
816 1493 m 1
 1038 1493 l 1
 184 -190 l 1
 -37 -190 l 1
 816 1493 l 1
EndSplineSet
EndChar
StartChar: zero
Encoding: 18 48 20
Width: 1425
Flags: W
HStem: -29 262<643.052 881.539> 1257 263<831.742 1071.54>
VStem: 216 376<285.938 672.891> 1122 377<813.118 1204.46>
Fore
758 233 m 0
 941 233 1023 419 1087 748 c 0
 1109 862 1122 959 1122 1036 c 0
 1122 1180 1076 1257 957 1257 c 256
 773 1257 692 1075 628 748 c 0
 606 633 592 535 592 457 c 0
 592 311 638 233 758 233 c 0
216 492 m 0
 216 793 362 1520 1008 1520 c 0
 1348 1520 1499 1316 1499 998 c 0
 1499 678 1340 -29 707 -29 c 0
 367 -29 216 174 216 492 c 0
EndSplineSet
EndChar
StartChar: one
Encoding: 19 49 21
Width: 1425
Flags: W
HStem: 0 266<292 632 996 1284> 1211 20G<718.167 815.124> 1473 20G<767.722 1234>
Fore
292 266 m 1
 632 266 l 1
 819 1231 l 1
 456 1159 l 1
 507 1421 l 1
 868 1493 l 1
 1234 1493 l 1
 996 266 l 1
 1336 266 l 1
 1284 0 l 1
 240 0 l 1
 292 266 l 1
EndSplineSet
EndChar
StartChar: two
Encoding: 20 50 22
Width: 1425
Flags: W
HStem: 0 283<645 1247> 1257 263<618.998 985.114>
VStem: 1054 402<965.454 1193.99>
Fore
967 1520 m 0
 1260 1520 1456 1408 1456 1171 c 0
 1456 928 1305 777 1018 563 c 2
 645 283 l 1
 1302 283 l 1
 1247 0 l 1
 162 0 l 1
 217 283 l 1
 856 764 l 2
 929 820 1054 926 1054 1075 c 0
 1054 1186 974 1257 836 1257 c 0
 669 1257 475 1156 381 1104 c 1
 444 1432 l 1
 595 1479 779 1520 967 1520 c 0
EndSplineSet
EndChar
StartChar: three
Encoding: 21 51 23
Width: 1425
Flags: W
HStem: -29 262<398.118 830.53> 645 248<567 892.91> 1257 263<681.159 999.416>
VStem: 966 388<349.45 582.17> 1055 402<1028.62 1304.9>
Fore
1457 1220 m 0xe8
 1457 1079 1388 872 1110 805 c 1
 1248 767 1354 683 1354 517 c 0
 1354 298 1216 -29 590 -29 c 0
 464 -29 310 -12 146 45 c 1
 203 342 l 1
 298 289 436 233 606 233 c 0
 900 233 966 381 966 479 c 0xf0
 966 557 916 645 672 645 c 2
 518 645 l 1
 567 893 l 1
 729 893 l 2
 1005 893 1055 1025 1055 1114 c 0
 1055 1216 953 1257 822 1257 c 0
 671 1257 532 1216 429 1174 c 1
 484 1456 l 1
 665 1504 819 1520 942 1520 c 0
 1314 1520 1457 1403 1457 1220 c 0xe8
EndSplineSet
EndChar
StartChar: four
Encoding: 22 52 24
Width: 1425
Flags: W
HStem: 0 21G<754 1121.9> 272 279<439 807 1225 1384> 1473 20G<962.694 1408>
Fore
983 1176 m 1
 439 551 l 1
 861 551 l 1
 983 1176 l 1
980 1493 m 1
 1408 1493 l 1
 1225 551 l 1
 1438 551 l 1
 1384 272 l 1
 1171 272 l 1
 1118 0 l 1
 754 0 l 1
 807 272 l 1
 145 272 l 1
 209 602 l 1
 980 1493 l 1
EndSplineSet
EndChar
StartChar: five
Encoding: 23 53 25
Width: 1425
Flags: W
HStem: -29 262<417.373 827.622> 741 263<760.768 916.987> 1210 283<759 1409>
VStem: 998 392<391.911 662.38>
Fore
641 233 m 0
 893 233 998 401 998 543 c 0
 998 672 898 741 740 741 c 0
 588 741 430 686 344 653 c 1
 507 1493 l 1
 1464 1493 l 1
 1409 1210 l 1
 759 1210 l 1
 714 979 l 1
 788 998 846 1004 900 1004 c 0
 1208 1004 1390 868 1390 612 c 0
 1390 335 1205 -29 651 -29 c 0
 460 -29 302 12 172 70 c 1
 231 373 l 1
 316 318 467 233 641 233 c 0
EndSplineSet
EndChar
StartChar: six
Encoding: 24 54 26
Width: 1425
Flags: W
HStem: -29 242<664.973 922.139> 737 248<771.644 1008.16> 1266 252<918.386 1348.46>
VStem: 242 379<255.213 521.951> 1047 376<439.783 694.809>
Fore
1036 475 m 256
 1043 511 1047 543 1047 571 c 0
 1047 691 983 737 884 737 c 0
 737 737 662 632 631 475 c 256
 624 439 621 408 621 380 c 0
 621 259 684 213 782 213 c 0
 930 213 1006 317 1036 475 c 256
242 483 m 0
 242 907 483 1518 1120 1518 c 0
 1269 1518 1389 1494 1500 1454 c 1
 1446 1178 l 1
 1368 1219 1257 1266 1120 1266 c 0
 877 1266 732 1123 666 887 c 1
 780 960 891 985 996 985 c 0
 1265 985 1423 837 1423 609 c 0
 1423 342 1219 -29 731 -29 c 0
 396 -29 242 170 242 483 c 0
EndSplineSet
EndChar
StartChar: seven
Encoding: 25 55 27
Width: 1425
Flags: W
HStem: 0 21G<305 693.009> 1210 283<427 1091>
Fore
427 1493 m 1
 1552 1493 l 1
 1510 1276 l 1
 680 0 l 1
 305 0 l 1
 1091 1210 l 1
 372 1210 l 1
 427 1493 l 1
EndSplineSet
EndChar
StartChar: eight
Encoding: 26 56 28
Width: 1425
Flags: W
HStem: -29 242<617.976 906.648> 668 241<768.02 979.088> 1278 242<823.933 1086.24>
VStem: 196 372<257.454 523.469> 370 360<941.565 1188.31> 1027 362<339.539 623.934> 1119 376<1026.3 1246.5>
Fore
754 213 m 0xf4
 972 213 1027 400 1027 505 c 0
 1027 611 964 668 843 668 c 0
 623 668 568 481 568 375 c 0
 568 269 633 213 754 213 c 0xf4
196 313 m 0
 196 487 275 714 587 795 c 1
 461 835 370 915 370 1057 c 0
 370 1242 491 1520 1008 1520 c 0
 1287 1520 1495 1439 1495 1217 c 0xea
 1495 1071 1423 874 1146 795 c 1
 1290 753 1389 665 1389 507 c 0
 1389 341 1296 -29 707 -29 c 0
 399 -29 196 67 196 313 c 0
890 909 m 0
 1073 909 1119 1059 1119 1144 c 0
 1119 1231 1064 1278 961 1278 c 0
 776 1278 730 1130 730 1044 c 0
 730 957 785 909 890 909 c 0
EndSplineSet
EndChar
StartChar: nine
Encoding: 27 57 29
Width: 1425
Flags: W
HStem: -29 252<430.871 789.694> 502 250<574.374 939.454> 1276 242<798.815 1043.84>
VStem: 287 377<792.882 1101.17> 1090 378<902.225 1232.01>
Fore
1468 1003 m 0
 1468 572 1221 -29 588 -29 c 0
 439 -29 320 -6 211 33 c 1
 265 309 l 1
 408 236 513 223 590 223 c 0
 736 223 951 274 1045 602 c 1
 981 561 870 502 714 502 c 0
 446 502 287 648 287 877 c 0
 287 1141 486 1518 977 1518 c 0
 1314 1518 1468 1318 1468 1003 c 0
928 1276 m 256
 716.8 1276 664 1040.33 664 920 c 0
 664 799 727 752 826 752 c 256
 1047.21 752 1090 1003.55 1090 1108 c 0
 1090 1211 1043 1276 928 1276 c 256
EndSplineSet
EndChar
StartChar: colon
Encoding: 28 58 30
Width: 819
Flags: W
HStem: 0 387<304 590> 733 387<447 732>
VStem: 229 579<0 1120 -324.827 0>
Fore
447 1120 m 1
 808 1120 l 1
 732 733 l 1
 371 733 l 1
 447 1120 l 1
304 387 m 1
 665 387 l 1
 590 0 l 1
 229 0 l 1
 304 387 l 1
EndSplineSet
EndChar
StartChar: semicolon
Encoding: 29 59 31
Width: 819
Flags: W
HStem: 733 387<447 732>
VStem: 72 736<-291 1120 129.989 455.818>
Fore
304 387 m 1
 665 387 l 1
 606 82 l 1
 285 -291 l 1
 72 -291 l 1
 245 82 l 1
 304 387 l 1
447 1120 m 1
 808 1120 l 1
 732 733 l 1
 371 733 l 1
 447 1120 l 1
EndSplineSet
EndChar
StartChar: less
Encoding: 30 60 32
Width: 1716
Flags: W
HStem: 1203 20G<1677.73 1733.08>
Fore
1688 973 m 1
 660 641 l 1
 1559 311 l 1
 1511 61 l 1
 319 524 l 1
 365 760 l 1
 1737 1223 l 1
 1688 973 l 1
EndSplineSet
EndChar
StartChar: equal
Encoding: 31 61 33
Width: 1716
Flags: W
HStem: 295 237<320 1556> 752 235<409 1645>
Fore
409 987 m 1
 1691 987 l 1
 1645 752 l 1
 363 752 l 1
 409 987 l 1
320 532 m 1
 1602 532 l 1
 1556 295 l 1
 274 295 l 1
 320 532 l 1
EndSplineSet
EndChar
StartChar: greater
Encoding: 32 62 34
Width: 1716
Flags: W
HStem: 1203 20G<451.08 506.49>
Fore
406 973 m 1
 455 1223 l 1
 1647 760 l 1
 1601 524 l 1
 229 61 l 1
 277 311 l 1
 1307 641 l 1
 406 973 l 1
EndSplineSet
EndChar
StartChar: question
Encoding: 33 63 35
Width: 1188
Flags: W
HStem: 0 356<417 709> 1124 21G<362.949 403> 1257 263<547.513 886.295>
VStem: 913 371<1025.54 1330>
Fore
850 1520 m 0
 1112 1520 1284 1432 1284 1220 c 0
 1284 972 1096 836 1036 788 c 2
 961 731 l 2
 876 665 830 622 816 549 c 2
 807 504 l 1
 446 504 l 1
 455 553 l 2
 481 682 551 753 687 860 c 2
 762 918 l 2
 843 980 913 1052 913 1142 c 0
 913 1218 851 1257 756 1257 c 0
 610 1257 447 1174 359 1124 c 1
 421 1438 l 1
 536 1475 692 1520 850 1520 c 0
417 356 m 1
 778 356 l 1
 709 0 l 1
 348 0 l 1
 417 356 l 1
EndSplineSet
EndChar
StartChar: at
Encoding: 34 64 36
Width: 2048
Flags: W
HStem: -356 188<760.818 1253.13> 84 190<969.32 1178.02 1503 1599.45> 801 186<1058.3 1290.51> 1253 187<1033.11 1537.72>
VStem: 222 191<166.344 631.318> 694 233<318.766 647.328> 1854 190<546.783 965.472>
Fore
1079 274 m 0
 1249 274 1335 474 1335 622 c 0
 1335 727 1286 801 1180 801 c 0
 978 801 927 547 927 453 c 0
 927 348 974 274 1079 274 c 0
2044 801 m 0
 2044 539 1895 84 1296 84 c 2
 1257 84 l 1
 1287 238 l 1
 1232 148 1132 88 1006 88 c 0
 810 88 694 218 694 419 c 0
 694 690 881 987 1181 987 c 0
 1307 987 1383 925 1404 836 c 1
 1429 967 l 1
 1638 967 l 1
 1503 274 l 1
 1752 311 1854 574 1854 765 c 0
 1854 1062 1612 1253 1297 1253 c 0
 798 1253 413 831 413 396 c 0
 413 65 650 -168 1003 -168 c 0
 1185 -168 1376 -92 1504 6 c 1
 1580 -156 l 1
 1413 -268 1198 -356 969 -356 c 0
 543 -356 222 -78 222 356 c 0
 222 952 764 1440 1318 1440 c 0
 1767 1440 2044 1165 2044 801 c 0
EndSplineSet
EndChar
StartChar: A
Encoding: 35 65 37
Width: 1585
Flags: W
HStem: 0 21G<10 407.882 1184.99 1575> 272 277<695 1104> 1473 20G<841.707 1315.52>
Fore
1147 272 m 1
 545 272 l 1
 397 0 l 1
 10 0 l 1
 853 1493 l 1
 1312 1493 l 1
 1575 0 l 1
 1188 0 l 1
 1147 272 l 1
695 549 m 1
 1104 549 l 1
 1015 1143 l 1
 695 549 l 1
EndSplineSet
EndChar
StartChar: B
Encoding: 36 66 38
Width: 1561
Flags: W
HStem: 0 262<624 1005.11> 653 262<751 1082.26> 1231 262<812 1144.37>
VStem: 1126 384<362.14 610.572> 1184 396<998.623 1291.1>
Fore
964 915 m 2xe8
 1150 915 1184 1045 1184 1112 c 0
 1184 1167 1157 1231 1025 1231 c 2
 812 1231 l 1
 751 915 l 1
 964 915 l 2xe8
850 262 m 2
 1089 262 1126 426 1126 510 c 0xf0
 1126 597 1070 653 926 653 c 2
 700 653 l 1
 624 262 l 1
 850 262 l 2
1580 1198 m 0xe8
 1580 1071 1530 877 1312 799 c 1
 1435 761 1510 666 1510 522 c 0xf0
 1510 343 1424 0 827 0 c 2
 188 0 l 1
 478 1493 l 1
 1056 1493 l 2
 1454 1493 1580 1378 1580 1198 c 0xe8
EndSplineSet
EndChar
StartChar: C
Encoding: 37 67 39
Width: 1503
Flags: W
HStem: -29 279<801.218 1210.51> 1241 279<971.007 1421.68>
VStem: 228 402<411.333 849.687>
Fore
1183 1241 m 0
 751 1241 630 817 630 606 c 0
 630 385 755 250 991 250 c 0
 1175 250 1322 315 1448 391 c 1
 1388 82 l 1
 1250 17 1089 -29 905 -29 c 0
 474 -29 228 191 228 558 c 0
 228 999 532 1520 1206 1520 c 0
 1344 1520 1499 1494 1646 1409 c 1
 1586 1100 l 1
 1478 1184 1355 1241 1183 1241 c 0
EndSplineSet
EndChar
StartChar: D
Encoding: 38 68 40
Width: 1700
Flags: W
HStem: 0 21G<188 706> 1202 291<807 1182.75>
VStem: 1354 402<651.424 1045.81>
Fore
768 291 m 2
 1251 291 1354 670 1354 872 c 0
 1354 1091 1210 1202 945 1202 c 2
 807 1202 l 1
 630 291 l 1
 768 291 l 2
478 1493 m 1
 884 1493 l 2
 1243 1493 1480 1466 1635 1280 c 0
 1720 1179 1756 1059 1756 924 c 0
 1756 641 1604 185 1107 48 c 0
 989 16 818 0 594 0 c 2
 188 0 l 1
 478 1493 l 1
EndSplineSet
EndChar
StartChar: E
Encoding: 39 69 41
Width: 1399
Flags: W
HStem: 0 291<630 1249> 633 291<753 1311> 1202 291<807 1461>
Fore
478 1493 m 1
 1517 1493 l 1
 1461 1202 l 1
 807 1202 l 1
 753 924 l 1
 1368 924 l 1
 1311 633 l 1
 696 633 l 1
 630 291 l 1
 1306 291 l 1
 1249 0 l 1
 188 0 l 5
 478 1493 l 1
EndSplineSet
EndChar
StartChar: F
Encoding: 40 70 42
Width: 1399
Flags: W
HStem: 0 21G<188 576.886> 633 291<753 1311> 1202 291<807 1461>
Fore
478 1493 m 1
 1517 1493 l 1
 1461 1202 l 1
 807 1202 l 1
 753 924 l 1
 1368 924 l 1
 1311 633 l 1
 696 633 l 1
 573 0 l 1
 188 0 l 1
 478 1493 l 1
EndSplineSet
EndChar
StartChar: G
Encoding: 41 71 43
Width: 1681
Flags: W
HStem: -29 279<801.045 1170.2> 571 258<1091 1276> 1241 279<984.536 1488.73>
VStem: 228 402<412.867 847.87>
Fore
1220 1241 m 0
 748 1241 630 828 630 602 c 0
 630 378 759 250 1010 250 c 0
 1088 250 1159 259 1220 281 c 1
 1276 571 l 1
 1041 571 l 1
 1091 829 l 1
 1691 829 l 1
 1552 111 l 1
 1369 30 1153 -29 905 -29 c 0
 474 -29 228 191 228 558 c 0
 228 981 512 1520 1227 1520 c 0
 1438 1520 1611 1478 1749 1409 c 1
 1689 1100 l 1
 1575 1173 1420 1241 1220 1241 c 0
EndSplineSet
EndChar
StartChar: H
Encoding: 42 72 44
Width: 1714
Flags: W
HStem: 0 21G<188 576.886 1141 1529.88> 633 291<753 1264> 1473 20G<474.115 863 1427.13 1816>
Fore
478 1493 m 1
 863 1493 l 1
 753 924 l 1
 1321 924 l 1
 1431 1493 l 1
 1816 1493 l 1
 1526 0 l 1
 1141 0 l 1
 1264 633 l 1
 696 633 l 1
 573 0 l 1
 188 0 l 1
 478 1493 l 1
EndSplineSet
EndChar
StartChar: I
Encoding: 43 73 45
Width: 762
Flags: MW
Fore
478 1493 m 1
 863 1493 l 1
 573 0 l 1
 188 0 l 1
 478 1493 l 1
EndSplineSet
EndChar
StartChar: J
Encoding: 44 74 46
Width: 762
Flags: W
HStem: -410 291<-138 73.1587> 1473 20G<474.113 863>
Fore
-78 -119 m 2
 44 -119 175 -66 216 145 c 2
 478 1493 l 1
 863 1493 l 1
 601 145 l 2
 526 -240 277 -410 -117 -410 c 2
 -195 -410 l 1
 -138 -119 l 1
 -78 -119 l 2
EndSplineSet
EndChar
StartChar: K
Encoding: 45 75 47
Width: 1587
Flags: W
HStem: 0 21G<188 576.878 1150.67 1649> 1473 20G<474.115 863 1393.74 1865>
Fore
478 1493 m 1
 863 1493 l 1
 757 948 l 1
 1418 1493 l 1
 1865 1493 l 1
 1009 786 l 1
 1649 0 l 1
 1167 0 l 1
 687 588 l 1
 573 0 l 1
 188 0 l 1
 478 1493 l 1
EndSplineSet
EndChar
StartChar: L
Encoding: 46 76 48
Width: 1305
Flags: W
HStem: 0 291<630 1249> 1473 20G<474.115 863>
Fore
478 1493 m 1
 863 1493 l 1
 630 291 l 1
 1306 291 l 1
 1249 0 l 1
 188 0 l 1
 478 1493 l 1
EndSplineSet
EndChar
StartChar: M
Encoding: 47 77 49
Width: 2038
Flags: W
HStem: 0 21G<188 556.883 1485 1852.88> 1473 20G<474.115 972.631 1637.56 2139>
Fore
478 1493 m 1
 968 1493 l 1
 1153 694 l 1
 1650 1493 l 1
 2139 1493 l 1
 1849 0 l 1
 1485 0 l 1
 1697 1092 l 1
 1197 287 l 1
 953 287 l 1
 765 1092 l 1
 553 0 l 1
 188 0 l 1
 478 1493 l 1
EndSplineSet
EndChar
StartChar: N
Encoding: 48 78 50
Width: 1714
Flags: W
HStem: 0 21G<188 556.887 1089.28 1529.88> 1473 20G<474.115 914.719 1447.11 1816>
Fore
478 1493 m 1
 908 1493 l 1
 1252 469 l 1
 1451 1493 l 1
 1816 1493 l 1
 1526 0 l 1
 1096 0 l 1
 752 1024 l 1
 553 0 l 1
 188 0 l 1
 478 1493 l 1
EndSplineSet
EndChar
StartChar: O
Encoding: 49 79 51
Width: 1741
Flags: W
HStem: -29 279<751.665 1103.4> 1241 279<927.934 1278.32>
VStem: 226 402<382.777 841.166> 1403 401<651.213 1107.59>
Fore
919 250 m 0
 1307 250 1403 715 1403 911 c 0
 1403 1108 1316 1241 1111 1241 c 0
 724 1241 628 774 628 579 c 0
 628 382 715 250 919 250 c 0
226 543 m 0
 226 975 498 1520 1165 1520 c 0
 1572 1520 1804 1313 1804 947 c 0
 1804 527 1542 -29 864 -29 c 0
 458 -29 226 178 226 543 c 0
EndSplineSet
EndChar
StartChar: P
Encoding: 50 80 52
Width: 1501
Flags: W
HStem: 0 21G<188 576.9> 518 279<728 1098.77> 1214 279<809 1174.29>
VStem: 1221 404<907.302 1166.91>
Fore
1625 1121 m 0
 1625 900 1495 518 928 518 c 2
 674 518 l 1
 573 0 l 1
 188 0 l 1
 478 1493 l 1
 1117 1493 l 2
 1430 1493 1625 1375 1625 1121 c 0
941 797 m 2
 1165 797 1221 961 1221 1057 c 0
 1221 1161 1148 1214 1022 1214 c 2
 809 1214 l 1
 728 797 l 1
 941 797 l 2
EndSplineSet
EndChar
StartChar: Q
Encoding: 51 81 53
Width: 1741
Flags: W
HStem: -299 549<1097 1307> -27 277<746.559 906> 1241 279<926.795 1278.67>
VStem: 226 400<378.66 837.767> 1403 401<654.193 1109.76>
Fore
1804 952 m 0x78
 1804 731 1717 241 1228 37 c 1
 1464 -299 l 1
 1097 -299 l 1xb8
 906 -27 l 1
 876 -27 l 2
 453 -27 226 182 226 543 c 0
 226 967 492 1520 1165 1520 c 0
 1575 1520 1804 1317 1804 952 c 0x78
919 250 m 0x78
 1307 250 1403 715 1403 911 c 0
 1403 1108 1316 1241 1111 1241 c 0
 723 1241 626 771 626 571 c 0
 626 378 711 250 919 250 c 0x78
EndSplineSet
EndChar
StartChar: R
Encoding: 52 82 54
Width: 1577
Flags: W
HStem: 0 21G<188 576.894 1120.07 1536> 565 266<735 935.403> 1214 279<809 1133.42>
VStem: 1166 401<1079.98 1277.68>
Fore
1160 1024 m 0
 1164 1045 1166 1064 1166 1081 c 0
 1166 1182 1097 1214 971 1214 c 2
 809 1214 l 1
 735 831 l 1
 897 831 l 2
 1069 831 1135 897 1160 1024 c 0
1556 1081 m 0
 1511 851 1361 747 1195 698 c 1
 1315 669 1368 558 1409 424 c 2
 1536 0 l 1
 1126 0 l 1
 1016 371 l 2
 977 504 929 565 792 565 c 2
 683 565 l 1
 573 0 l 1
 188 0 l 1
 478 1493 l 1
 1066 1493 l 2
 1441 1493 1567 1374 1567 1186 c 0
 1567 1153 1563 1118 1556 1081 c 0
EndSplineSet
EndChar
StartChar: S
Encoding: 53 83 55
Width: 1475
Flags: W
HStem: -29 279<480.487 942.321> 1130 21G<1350 1450.86> 1241 279<788.839 1194.76>
VStem: 342 362<872.625 1167.39> 1038 387<399.38 643.874>
Fore
342 959 m 0
 342 1138 448 1520 1000 1520 c 0
 1209 1520 1389 1480 1508 1446 c 1
 1447 1130 l 1
 1253 1225 1097 1241 1007 1241 c 0
 745 1241 704 1131 704 1058 c 0
 704 990 764 960 884 934 c 2
 1041 901 l 2
 1295 848 1425 756 1425 565 c 0
 1425 533 1422 497 1414 459 c 0
 1346 106 1096 -29 725 -29 c 0
 561 -29 375 -2 175 78 c 1
 238 403 l 1
 356 334 533 250 743 250 c 0
 987 250 1038 368 1038 447 c 0
 1038 526 973 558 841 588 c 2
 699 621 l 2
 478 670 342 765 342 959 c 0
EndSplineSet
EndChar
StartChar: T
Encoding: 54 84 56
Width: 1397
Flags: W
HStem: 0 21G<506 894.893> 1202 291<300 740 1125 1620>
Fore
300 1493 m 1
 1676 1493 l 1
 1620 1202 l 1
 1125 1202 l 1
 891 0 l 1
 506 0 l 1
 740 1202 l 1
 244 1202 l 1
 300 1493 l 1
EndSplineSet
EndChar
StartChar: U
Encoding: 55 85 57
Width: 1663
Flags: W
HStem: -29 283<727.68 1049.46> 1473 20G<474.112 863 1376.11 1765>
VStem: 284 389<313.022 528.206> 478 385<654.716 1493>
Fore
825 -29 m 0xe0
 466 -29 284 112 284 410 c 0xe0
 284 467 291 529 304 598 c 2
 478 1493 l 1
 863 1493 l 1xd0
 689 598 l 2
 679 544 673 496 673 455 c 0
 673 323 730 254 880 254 c 0
 1086 254 1165 385 1206 598 c 2
 1380 1493 l 1
 1765 1493 l 1
 1591 598 l 2
 1508 171 1254 -29 825 -29 c 0xe0
EndSplineSet
EndChar
StartChar: V
Encoding: 56 86 58
Width: 1585
Flags: W
HStem: 0 21G<559.477 1033.29> 1473 20G<300 690.303 1466.95 1865>
Fore
300 1493 m 1
 687 1493 l 1
 869 391 l 1
 1478 1493 l 1
 1865 1493 l 1
 1022 0 l 1
 563 0 l 1
 300 1493 l 1
EndSplineSet
EndChar
StartChar: W
Encoding: 57 87 59
Width: 2259
Flags: W
HStem: 0 21G<415.129 868.617 1398.12 1851.6> 1473 20G<351 720.866 1225.39 1605.83 2110.35 2485>
Fore
351 1493 m 1
 720 1493 l 1
 767 408 l 1
 1234 1493 l 1
 1605 1493 l 1
 1650 408 l 1
 2119 1493 l 1
 2485 1493 l 1
 1843 0 l 1
 1399 0 l 1
 1349 1135 l 1
 860 0 l 1
 416 0 l 1
 351 1493 l 1
EndSplineSet
EndChar
StartChar: X
Encoding: 58 88 60
Width: 1579
Flags: W
HStem: 0 21G<39 459.451 1127.2 1538> 1473 20G<349 760.73 1386.58 1808>
Fore
1168 762 m 1
 1538 0 l 1
 1137 0 l 1
 887 510 l 1
 442 0 l 1
 39 0 l 1
 705 762 l 1
 349 1493 l 1
 751 1493 l 1
 985 1012 l 1
 1404 1493 l 1
 1808 1493 l 1
 1168 762 l 1
EndSplineSet
EndChar
StartChar: Y
Encoding: 59 89 61
Width: 1483
Flags: W
HStem: 0 21G<549 937.879> 1473 20G<270 699.91 1354.35 1793>
Fore
270 1493 m 1
 691 1493 l 1
 928 961 l 1
 1371 1493 l 1
 1793 1493 l 1
 1056 629 l 1
 934 0 l 1
 549 0 l 1
 671 629 l 1
 270 1493 l 1
EndSplineSet
EndChar
StartChar: Z
Encoding: 60 90 62
Width: 1485
Flags: W
HStem: 0 291<626 1393> 1202 291<405 1127>
Fore
405 1493 m 1
 1660 1493 l 1
 1615 1260 l 1
 626 291 l 1
 1450 291 l 1
 1393 0 l 1
 92 0 l 1
 137 233 l 1
 1127 1202 l 1
 349 1202 l 1
 405 1493 l 1
EndSplineSet
EndChar
StartChar: bracketleft
Encoding: 61 91 63
Width: 936
Flags: W
HStem: -270 225<507 745> -270 1826<478 507 124 1099 478 478> 1331 225<775 1056>
Fore
478 1556 m 1x40
 1099 1556 l 1x40
 1056 1331 l 1
 775 1331 l 1
 507 -45 l 1
 788 -45 l 1
 745 -270 l 1xa0
 124 -270 l 1
 478 1556 l 1x40
EndSplineSet
EndChar
StartChar: backslash
Encoding: 62 92 64
Width: 748
Flags: W
HStem: -190 1683<489 511 290 711 290 290>
Fore
489 -190 m 1
 290 1493 l 1
 511 1493 l 1
 711 -190 l 1
 489 -190 l 1
EndSplineSet
EndChar
StartChar: bracketright
Encoding: 63 93 65
Width: 936
Flags: W
HStem: -270 225<130 411> -270 1826<679 708 87 1062 441 441> 1331 225<441 679>
Fore
708 -270 m 1x40
 87 -270 l 1x40
 130 -45 l 1
 411 -45 l 1
 679 1331 l 1
 398 1331 l 1xa0
 441 1556 l 1
 1062 1556 l 1
 708 -270 l 1x40
EndSplineSet
EndChar
StartChar: asciicircum
Encoding: 64 94 66
Width: 1716
Flags: W
HStem: 936 557<1271 1691 1271 1271>
Fore
1271 1493 m 1
 1691 936 l 1
 1450 936 l 1
 1098 1237 l 1
 631 936 l 1
 389 936 l 1
 1025 1493 l 1
 1271 1493 l 1
EndSplineSet
EndChar
StartChar: underscore
Encoding: 65 95 67
Width: 1024
Flags: W
HStem: -483 190<-57 930>
Fore
967 -293 m 1
 930 -483 l 1
 -94 -483 l 1
 -57 -293 l 1
 967 -293 l 1
EndSplineSet
EndChar
StartChar: grave
Encoding: 66 96 68
Width: 1024
Flags: W
HStem: 1262 376<695 904 695 695>
Fore
695 1638 m 1
 904 1262 l 1
 708 1262 l 1
 412 1638 l 1
 695 1638 l 1
EndSplineSet
EndChar
StartChar: a
Encoding: 67 97 69
Width: 1382
Flags: W
HStem: -29 238<403.391 695.384> 504 213<588.715 958> 909 238<585.245 963.233>
VStem: 145 370<237.357 383.594> 1009 353<732.367 865.889>
Fore
772 504 m 2
 556 504 515 394 515 321 c 0
 515 247 572 209 662 209 c 0
 797 209 921 315 950 463 c 2
 958 504 l 1
 772 504 l 2
872 1147 m 0
 1193 1147 1362 1053 1362 796 c 0
 1362 749 1356 697 1345 639 c 2
 1221 0 l 1
 860 0 l 1
 892 166 l 1
 788 50 668 -29 473 -29 c 0
 269 -29 145 83 145 257 c 0
 145 282 148 308 153 336 c 0
 198 565 356 717 788 717 c 2
 999 717 l 1
 1005 745 l 2
 1007 757 1009 769 1009 781 c 0
 1009 859 947 909 761 909 c 0
 600 909 464 875 345 817 c 1
 398 1090 l 1
 586 1134 745 1147 872 1147 c 0
EndSplineSet
EndChar
StartChar: b
Encoding: 68 98 70
Width: 1466
Flags: W
HStem: -29 260<703.26 952.396> 887 260<916.215 1216.44> 1536 20G<470.118 832>
VStem: 1126 373<450.221 830.476>
Fore
940 887 m 256
 689 887 626 576 626 442 c 0
 626 316 680 231 813 231 c 256
 1063 231 1126 541 1126 678 c 0
 1126 803 1073 887 940 887 c 256
1499 718 m 0
 1499 364 1258 -29 895 -29 c 0
 714 -29 622 54 561 162 c 1
 530 0 l 1
 172 0 l 1
 474 1556 l 1
 832 1556 l 1
 716 956 l 1
 818 1063 942 1147 1124 1147 c 0
 1362 1147 1499 974 1499 718 c 0
EndSplineSet
EndChar
StartChar: c
Encoding: 69 99 71
Width: 1214
Flags: W
HStem: -29 256<656.866 1026.98> 891 256<769.034 1147.21>
VStem: 182 378<320.073 666.95>
Fore
182 415 m 0
 182 676 342 1147 956 1147 c 0
 1094 1147 1205 1117 1288 1085 c 1
 1231 793 l 1
 1165 845 1077 891 951 891 c 0
 638 891 560 610 560 467 c 0
 560 314 652 227 822 227 c 0
 919 227 1031 254 1140 326 c 1
 1083 33 l 1
 988 0 865 -29 727 -29 c 0
 383 -29 182 128 182 415 c 0
EndSplineSet
EndChar
StartChar: d
Encoding: 70 100 72
Width: 1466
Flags: W
HStem: -29 260<468.361 767.025> 887 260<734.761 979.151> 1536 20G<1232.13 1596>
VStem: 185 374<291.941 666.205>
Fore
185 398 m 0
 185 751 422 1147 788 1147 c 0
 968 1147 1060 1062 1120 956 c 1
 1236 1556 l 1
 1596 1556 l 1
 1294 0 l 1
 934 0 l 1
 965 162 l 1
 866 56 742 -29 559 -29 c 0
 322 -29 185 143 185 398 c 0
870 887 m 0
 621 887 559 575 559 439 c 0
 559 263 664 231 743 231 c 0
 993 231 1056 541 1056 678 c 0
 1056 803 1003 887 870 887 c 0
EndSplineSet
EndChar
StartChar: e
Encoding: 71 101 73
Width: 1389
Flags: W
HStem: -29 238<624.583 1071.98> 461 221<590 1055> 909 238<724.557 1005.34>
VStem: 182 359<287.083 459.772>
Fore
182 412 m 0
 182 744 400 1147 932 1147 c 0
 1231 1147 1414 983 1414 706 c 0
 1414 662 1409 614 1399 563 c 2
 1380 461 l 1
 543 461 l 1
 542 449 541 437 541 424 c 0
 541 324 584 209 803 209 c 0
 993 209 1176 281 1304 344 c 1
 1250 68 l 1
 1110 19 926 -29 723 -29 c 0
 379 -29 182 125 182 412 c 0
1055 682 m 1
 1059 701 1060 720 1060 737 c 0
 1060 843 995 909 884 909 c 0
 737 909 636 820 590 682 c 1
 1055 682 l 1
EndSplineSet
EndChar
StartChar: f
Encoding: 72 102 74
Width: 891
Flags: W
HStem: 0 21G<217 578.889> 864 692<743 793 207 1211 937 937> 864 256<257 385 793 1049> 1321 235<841.754 1166>
Fore
450 1198 m 2xa0
 500 1456 671 1556 937 1556 c 2
 1211 1556 l 1xc0
 1166 1321 l 1
 968 1321 l 2
 866 1321 825 1287 808 1198 c 2
 793 1120 l 1
 1099 1120 l 1xb0
 1049 864 l 1
 743 864 l 1
 575 0 l 1
 217 0 l 1
 385 864 l 1
 207 864 l 1xc0
 257 1120 l 1
 435 1120 l 1
 450 1198 l 2xa0
EndSplineSet
EndChar
StartChar: g
Encoding: 73 103 75
Width: 1466
Flags: W
HStem: -442 237<372.386 776.045> 0 260<470.889 772.148> 887 258<724.354 980.738>
VStem: 188 374<319.501 682.201>
Fore
188 425 m 0
 188 775 434 1145 788 1145 c 0
 970 1145 1060 1061 1119 954 c 1
 1152 1120 l 1
 1512 1120 l 1
 1316 113 l 2
 1242 -269 950 -442 543 -442 c 0
 423 -442 298 -428 156 -377 c 1
 210 -98 l 1
 288 -149 401 -205 554 -205 c 0
 780 -205 912 -112 956 113 c 2
 971 190 l 1
 869 83 747 0 565 0 c 0
 326 0 188 175 188 425 c 0
749 260 m 0
 995 260 1056 555 1056 679 c 0
 1056 804 1000 887 870 887 c 0
 624 887 562 590 562 462 c 0
 562 289 670 260 749 260 c 0
EndSplineSet
EndChar
StartChar: h
Encoding: 74 104 76
Width: 1458
Flags: W
HStem: 0 21G<172 533.884 938 1301.9> 877 270<922.65 1197.06> 1536 20G<470.118 832>
VStem: 1070 377<709.547 852.077>
Fore
1126 1147 m 0
 1347 1147 1447 1029 1447 831 c 0
 1447 786 1441 736 1431 682 c 2
 1298 0 l 1
 938 0 l 1
 1039 520 l 2
 1056 607 1070 682 1070 739 c 0
 1070 827 1038 877 940 877 c 0
 775 877 673 736 637 551 c 2
 530 0 l 1
 172 0 l 1
 474 1556 l 1
 832 1556 l 1
 716 956 l 1
 847 1084 977 1147 1126 1147 c 0
EndSplineSet
EndChar
StartChar: i
Encoding: 75 105 77
Width: 702
Flags: W
HStem: 0 21G<172 533.893> 1100 20G<386.107 748> 1264 292<474 776>
VStem: 172 660<0 1556 215.095 444.017>
Fore
390 1120 m 1
 748 1120 l 1
 530 0 l 1
 172 0 l 1
 390 1120 l 1
474 1556 m 1
 832 1556 l 1
 776 1264 l 1
 418 1264 l 1
 474 1556 l 1
EndSplineSet
EndChar
StartChar: j
Encoding: 76 106 78
Width: 702
Flags: W
HStem: -442 235<-108 97.4705> 1100 20G<386.109 748> 1264 292<474 776>
VStem: -154 986<-442 1556 894.355 1122.64>
Fore
-46 -207 m 2
 92 -207 142 -153 176 20 c 2
 390 1120 l 1
 748 1120 l 1
 534 20 l 2
 477 -272 304 -442 23 -442 c 2
 -154 -442 l 1
 -108 -207 l 1
 -46 -207 l 2
474 1556 m 1
 832 1556 l 1
 776 1264 l 1
 418 1264 l 1
 474 1556 l 1
EndSplineSet
EndChar
StartChar: k
Encoding: 77 107 79
Width: 1362
Flags: W
HStem: 0 21G<172 533.897 952.182 1401> 1100 20G<1136.06 1576> 1536 20G<470.118 832>
Fore
474 1556 m 1
 832 1556 l 1
 668 709 l 1
 1160 1120 l 1
 1576 1120 l 1
 929 606 l 1
 1401 0 l 1
 967 0 l 1
 621 467 l 1
 530 0 l 1
 172 0 l 1
 474 1556 l 1
EndSplineSet
EndChar
StartChar: l
Encoding: 78 108 80
Width: 702
Flags: W
HStem: 0 1556<474 530 172 832 474 474>
Fore
474 1556 m 1
 832 1556 l 1
 530 0 l 1
 172 0 l 1
 474 1556 l 1
EndSplineSet
EndChar
StartChar: m
Encoding: 79 109 81
Width: 2134
Flags: W
HStem: 0 21G<170 533.884 891 1254.89 1612 1975.9> 877 270<904.639 1136.33 1605.55 1873.48>
VStem: 1744 377<707.695 860.613>
Fore
1093 1147 m 0
 1260 1147 1359 1059 1392 934 c 1
 1487 1046 1624 1147 1800 1147 c 0
 2020 1147 2121 1030 2121 832 c 0
 2121 786 2116 736 2105 682 c 2
 1972 0 l 1
 1612 0 l 1
 1726 584 l 2
 1738 649 1744 701 1744 741 c 0
 1744 852 1701 877 1636 877 c 0
 1550 877 1412 828 1358 550 c 2
 1251 0 l 1
 891 0 l 1
 1005 584 l 2
 1019 657 1027 714 1027 758 c 0
 1027 844 995 877 915 877 c 0
 757 877 672 729 637 551 c 2
 530 0 l 1
 170 0 l 1
 388 1120 l 1
 748 1120 l 1
 716 956 l 1
 869 1129 1016 1147 1093 1147 c 0
EndSplineSet
EndChar
StartChar: n
Encoding: 80 110 82
Width: 1458
Flags: W
HStem: 0 21G<172 533.884 938 1301.9> 877 270<922.65 1197.89>
VStem: 1070 377<710.264 852.246>
Fore
1126 1147 m 0
 1347 1147 1447 1029 1447 831 c 0
 1447 786 1441 736 1431 682 c 2
 1298 0 l 1
 938 0 l 1
 1039 522 l 2
 1056 610 1070 683 1070 740 c 0
 1070 828 1038 877 940 877 c 0
 775 877 673 736 637 551 c 2
 530 0 l 1
 172 0 l 1
 390 1120 l 1
 748 1120 l 1
 716 956 l 1
 847 1084 977 1147 1126 1147 c 0
EndSplineSet
EndChar
StartChar: o
Encoding: 81 111 83
Width: 1407
Flags: W
HStem: -29 256<620.631 884.435> 891 256<736.924 1005.45>
VStem: 182 375<287.646 672.232> 1068 375<451.66 830.654>
Fore
749 227 m 0
 1004 227 1068 542 1068 677 c 0
 1068 805 1013 891 878 891 c 0
 622 891 557 579 557 441 c 0
 557 313 612 227 749 227 c 0
182 412 m 0
 182 720 377 1147 928 1147 c 0
 1259 1147 1443 987 1443 707 c 0
 1443 457 1294 -29 699 -29 c 4
 367 -29 182 131 182 412 c 0
EndSplineSet
EndChar
StartChar: p
Encoding: 82 112 84
Width: 1466
Flags: W
HStem: -426 21G<89 450.878> -29 260<703.26 952.396> 887 260<916.215 1216.44>
VStem: 1126 373<450.221 830.476>
Fore
1499 718 m 0
 1499 364 1258 -29 895 -29 c 0
 714 -29 622 54 561 162 c 1
 447 -426 l 1
 89 -426 l 1
 390 1120 l 1
 748 1120 l 1
 716 956 l 1
 818 1063 942 1147 1124 1147 c 0
 1362 1147 1499 974 1499 718 c 0
813 231 m 256
 1063 231 1126 541 1126 678 c 0
 1126 803 1073 887 940 887 c 256
 689 887 626 576 626 442 c 0
 626 316 680 231 813 231 c 256
EndSplineSet
EndChar
StartChar: q
Encoding: 83 113 85
Width: 1466
Flags: W
HStem: -426 21G<851 1214.89> -29 260<468.361 767.025> 887 258<734.761 979.524>
VStem: 185 374<291.941 666.259>
Fore
743 231 m 0
 993 231 1056 541 1056 678 c 0
 1056 803 1003 887 870 887 c 0
 621 887 559 575 559 439 c 0
 559 263 664 231 743 231 c 0
185 398 m 0
 185 752 422 1145 788 1145 c 0
 970 1145 1060 1061 1119 954 c 1
 1152 1120 l 1
 1512 1120 l 1
 1211 -426 l 1
 851 -426 l 1
 965 162 l 1
 866 56 742 -29 559 -29 c 0
 322 -29 185 143 185 398 c 0
EndSplineSet
EndChar
StartChar: r
Encoding: 84 114 86
Width: 1010
Flags: W
HStem: 0 21G<172 533.876> 858 289<915.416 1118.69>
Fore
712 936 m 1
 812 1058 933 1147 1126 1147 c 0
 1146 1147 1166 1146 1224 1139 c 1
 1161 815 l 1
 1100 847 1040 858 984 858 c 0
 789 858 671 724 630 516 c 2
 530 0 l 1
 172 0 l 1
 390 1120 l 1
 748 1120 l 1
 712 936 l 1
EndSplineSet
EndChar
StartChar: s
Encoding: 85 115 87
Width: 1219
Flags: W
HStem: -29 238<322.336 791.701> 909 238<618.892 1013.5>
VStem: 252 324<629.945 827.92> 847 350<257.628 493.218>
Fore
612 209 m 0
 815 209 847 291 847 346 c 0
 847 395 805 417 684 432 c 2
 623 440 l 2
 392 470 252 530 252 710 c 0
 252 736 255 765 261 797 c 0
 302 1007 452 1147 825 1147 c 0
 914 1147 1051 1139 1258 1085 c 1
 1205 813 l 1
 1104 859 959 909 800 909 c 0
 609 909 576 837 576 789 c 0
 576 740 624 718 731 705 c 2
 792 696 l 2
 1095 657 1197 581 1197 429 c 0
 1197 246 1109 -29 590 -29 c 0
 401 -29 239 9 131 41 c 1
 184 313 l 1
 295 253 436 209 612 209 c 0
EndSplineSet
EndChar
StartChar: t
Encoding: 86 116 88
Width: 979
Flags: W
HStem: 0 256<639.52 901> 864 256<245 373 781 1100 195 1150 1046.62 1214.88>
VStem: 265 368<168.008 361.272> 485 358<1182.52 1438>
Fore
594 0 m 2xe0
 369 0 265 69 265 249 c 0xe0
 265 290 271 336 281 389 c 2
 373 864 l 1
 195 864 l 1
 245 1120 l 1
 423 1120 l 1
 485 1438 l 1
 843 1438 l 1xd0
 781 1120 l 1
 1150 1120 l 1
 1100 864 l 1
 731 864 l 1
 639 389 l 2
 635 369 633 352 633 337 c 0
 633 275 671 256 767 256 c 2
 951 256 l 1
 901 0 l 1
 594 0 l 2xe0
EndSplineSet
EndChar
StartChar: u
Encoding: 87 117 89
Width: 1458
Flags: W
HStem: -29 271<483.062 753.043> 1100 20G<374.111 738 1142.09 1504>
VStem: 229 381<267.758 481.45>
Fore
551 -29 m 0
 330 -29 229 88 229 286 c 0
 229 332 235 382 245 436 c 2
 378 1120 l 1
 738 1120 l 1
 636 596 l 2
 623 530 610 459 610 397 c 0
 610 309 638 242 735 242 c 0
 900 242 1002 382 1038 567 c 2
 1146 1120 l 1
 1504 1120 l 1
 1286 0 l 1
 928 0 l 1
 959 162 l 1
 830 35 699 -29 551 -29 c 0
EndSplineSet
EndChar
StartChar: v
Encoding: 88 118 90
Width: 1335
Flags: W
HStem: 0 21G<467.036 875.768> 1100 20G<249 610.307 1152.91 1523>
Fore
249 1120 m 1
 607 1120 l 1
 735 346 l 1
 1164 1120 l 1
 1523 1120 l 1
 864 0 l 1
 471 0 l 1
 249 1120 l 1
EndSplineSet
EndChar
StartChar: w
Encoding: 89 119 91
Width: 1892
Flags: W
HStem: 0 21G<365.625 766.779 1133.99 1535.16> 1100 20G<290 638.984 1006.22 1315.02 1682.15 2039>
Fore
290 1120 m 1
 638 1120 l 1
 676 348 l 1
 1015 1120 l 1
 1314 1120 l 1
 1353 356 l 1
 1691 1120 l 1
 2039 1120 l 1
 1526 0 l 1
 1135 0 l 1
 1096 770 l 1
 758 0 l 1
 367 0 l 1
 290 1120 l 1
EndSplineSet
EndChar
StartChar: x
Encoding: 90 120 92
Width: 1321
Flags: W
HStem: 0 21G<31 427.966 900.661 1290> 1100 20G<269 657.88 1091.11 1488>
Fore
566 573 m 1
 269 1120 l 1
 648 1120 l 1
 812 788 l 1
 1109 1120 l 1
 1488 1120 l 1
 978 575 l 1
 1290 0 l 1
 911 0 l 1
 728 354 l 1
 410 0 l 1
 31 0 l 1
 566 573 l 1
EndSplineSet
EndChar
StartChar: y
Encoding: 91 121 93
Width: 1335
Flags: W
HStem: -442 235<165 433.79> 1100 20G<243 605.026 1147.37 1516>
Fore
243 1120 m 1
 601 1120 l 1
 754 360 l 1
 1158 1120 l 1
 1516 1120 l 1
 806 -106 l 2
 696 -299 575 -442 326 -442 c 2
 119 -442 l 1
 165 -207 l 1
 277 -207 l 2
 397 -207 449 -174 500 -74 c 2
 516 -43 l 1
 243 1120 l 1
EndSplineSet
EndChar
StartChar: z
Encoding: 92 122 94
Width: 1192
Flags: W
HStem: 0 256<554 1094> 864 256<335 850>
Fore
335 1120 m 1
 1312 1120 l 1
 1263 870 l 1
 554 256 l 1
 1144 256 l 1
 1094 0 l 1
 92 0 l 1
 141 250 l 1
 850 864 l 1
 285 864 l 1
 335 1120 l 1
EndSplineSet
EndChar
StartChar: braceleft
Encoding: 93 123 95
Width: 1458
Flags: W
HStem: -334 225<937.505 1137> 494 223<395 581.903> 1331 225<1295.58 1461>
VStem: 623 355<307.347 452.687>
Fore
918 12 m 0
 918 -60 934 -109 1112 -109 c 2
 1181 -109 l 1
 1137 -334 l 1
 920 -334 l 2
 687 -334 562 -263 562 -76 c 0
 562 -43 566 -6 574 35 c 2
 611 227 l 2
 619 268 623 304 623 334 c 0
 623 453 559 494 413 494 c 2
 352 494 l 1
 395 717 l 1
 456 717 l 2
 644 717 720 786 758 983 c 2
 798 1188 l 2
 850 1458 1013 1556 1287 1556 c 2
 1504 1556 l 1
 1461 1331 l 1
 1392 1331 l 2
 1298 1331 1234 1316 1200 1288 c 0
 1166 1258 1140 1197 1121 1102 c 2
 1089 936 l 2
 1045 712 966 642 826 612 c 1
 926 587 978 539 978 420 c 0
 978 383 973 339 963 287 c 2
 931 121 l 2
 922 78 918 42 918 12 c 0
EndSplineSet
EndChar
StartChar: bar
Encoding: 94 124 96
Width: 748
Flags: W
VStem: 166 625<-483 1565 -483 -483>
Fore
791 1565 m 1
 393 -483 l 1
 166 -483 l 1
 564 1565 l 1
 791 1565 l 1
EndSplineSet
EndChar
StartChar: braceright
Encoding: 95 125 97
Width: 1458
Flags: W
HStem: -334 225<235 400.59> 494 223<1111.81 1298> 1331 225<558 757.849>
VStem: 718 352<759.546 916.184>
Fore
778 1210 m 0
 778 1291 747 1331 585 1331 c 2
 515 1331 l 1
 558 1556 l 1
 775 1556 l 2
 1008 1556 1133 1485 1133 1297 c 0
 1133 1264 1130 1228 1122 1188 c 2
 1082 983 l 2
 1074 942 1070 907 1070 877 c 0
 1070 760 1132 717 1280 717 c 2
 1341 717 l 1
 1298 494 l 1
 1237 494 l 2
 1054 494 974 429 935 227 c 2
 898 35 l 2
 845 -235 682 -334 408 -334 c 2
 191 -334 l 1
 235 -109 l 1
 305 -109 l 2
 398 -109 462 -94 495 -66 c 0
 530 -36 556 26 575 121 c 2
 607 287 l 2
 650 509 729 579 871 612 c 1
 771 636 718 682 718 803 c 0
 718 840 723 884 733 936 c 2
 765 1102 l 2
 774 1145 778 1180 778 1210 c 0
EndSplineSet
EndChar
StartChar: asciitilde
Encoding: 96 126 98
Width: 1716
Flags: W
HStem: 457 233<1083.73 1422.86> 594 233<545.67 882.473>
Fore
1275 690 m 0x80
 1418 690 1549 768 1664 850 c 1
 1617 606 l 1
 1490 523 1359 457 1207 457 c 0x80
 1007 457 877 594 690 594 c 0
 547 594 415 517 301 434 c 1
 349 678 l 1
 476 761 607 827 759 827 c 0x40
 960 827 1089 690 1275 690 c 0x80
EndSplineSet
EndChar
StartChar: exclamdown
Encoding: 98 161 100
Width: 934
Flags: W
HStem: 0 21G<287 650.874> 1137 356<577 868>
VStem: 287 650<0 1493 643.092 937.252>
Fore
287 0 m 1
 398 573 l 1
 531 991 l 1
 789 991 l 1
 758 573 l 1
 647 0 l 1
 287 0 l 1
508 1137 m 1
 577 1493 l 1
 937 1493 l 1
 868 1137 l 1
 508 1137 l 1
EndSplineSet
EndChar
StartChar: cent
Encoding: 99 162 101
Width: 1425
Flags: W
VStem: 270 376<315.735 601.805>
Fore
869 858 m 1
 667 756 646 537 646 465 c 0
 646 366 685 301 753 260 c 1
 869 858 l 1
270 418 m 0
 270 590 335 1068 925 1145 c 1
 980 1432 l 1
 1142 1432 l 1
 1087 1145 l 1
 1175 1141 1267 1125 1372 1085 c 1
 1315 793 l 1
 1188 888 1087 891 1052 891 c 2
 1037 891 l 1
 908 228 l 1
 1034 229 1141 267 1224 326 c 1
 1167 33 l 1
 1021 -17 925 -29 868 -29 c 2
 858 -29 l 1
 803 -313 l 1
 641 -313 l 1
 697 -25 l 1
 428 17 270 156 270 418 c 0
EndSplineSet
EndChar
StartChar: sterling
Encoding: 100 163 102
Width: 1425
Flags: W
HStem: 0 266<177 404 769 1255> 592 239<320 467 879 1205> 1257 263<1030.61 1409.52>
Fore
1176 1520 m 0
 1321 1520 1439 1495 1528 1466 c 1
 1472 1180 l 1
 1404 1223 1310 1257 1192 1257 c 0
 1053 1257 949 1194 912 1001 c 2
 879 831 l 1
 1252 831 l 1
 1205 592 l 1
 832 592 l 1
 769 266 l 1
 1307 266 l 1
 1255 0 l 1
 125 0 l 1
 177 266 l 1
 404 266 l 1
 467 592 l 1
 273 592 l 1
 320 831 l 1
 514 831 l 1
 547 1001 l 2
 618 1366 816 1520 1176 1520 c 0
EndSplineSet
EndChar
StartChar: currency
Encoding: 101 164 103
Width: 1303
Flags: W
HStem: 213 209<609.945 828.483> 860 209<727.563 944.541> 1197 20G<442.234 482.039 1292.14 1331.84>
VStem: 340 214<476.406 681.522> 1001 213<547.831 805.031>
Fore
1214 723 m 0
 1214 631 1184 521 1105 426 c 1
 1272 219 l 1
 1088 66 l 1
 921 272 l 1
 841 226 764 213 694 213 c 0
 606 213 538 237 486 268 c 1
 239 61 l 1
 116 215 l 1
 363 422 l 1
 347 466 340 508 340 549 c 0
 340 607 353 740 452 858 c 1
 283 1063 l 1
 466 1217 l 1
 632 1010 l 1
 714 1056 791 1069 861 1069 c 0
 949 1069 1016 1043 1069 1014 c 1
 1316 1221 l 1
 1438 1067 l 1
 1191 860 l 1
 1204 821 1214 775 1214 723 c 0
820 860 m 0
 679 860 554 737 554 595 c 0
 554 493 626 422 735 422 c 0
 881 422 1001 552 1001 685 c 0
 1001 788 927 860 820 860 c 0
EndSplineSet
EndChar
StartChar: yen
Encoding: 102 165 104
Width: 1425
Flags: W
HStem: 0 21G<522 906.894> 416 194<187 603 1022 1439> 762 192<253 545 1250 1506> 1473 20G<315 722.677 1274.64 1691>
Fore
1439 416 m 1
 984 416 l 1
 903 0 l 1
 522 0 l 1
 603 416 l 1
 149 416 l 1
 187 610 l 1
 641 610 l 1
 653 676 l 1
 621 762 l 1
 216 762 l 1
 253 954 l 1
 545 954 l 1
 315 1493 l 1
 714 1493 l 1
 914 1032 l 1
 1291 1493 l 1
 1691 1493 l 1
 1250 954 l 1
 1543 954 l 1
 1506 762 l 1
 1100 762 l 1
 1034 676 l 1
 1022 610 l 1
 1477 610 l 1
 1439 416 l 1
EndSplineSet
EndChar
StartChar: brokenbar
Encoding: 103 166 105
Width: 748
Flags: W
VStem: 192 573<-350 1432 -306.783 422.122>
Fore
765 1432 m 1
 618 674 l 1
 391 674 l 1
 538 1432 l 1
 765 1432 l 1
566 408 m 1
 419 -350 l 1
 192 -350 l 1
 339 408 l 1
 566 408 l 1
EndSplineSet
EndChar
StartChar: section
Encoding: 104 167 106
Width: 1024
Flags: W
HStem: -195 211<299.292 601.516> 1235 21G<1056 1128.88> 1313 207<687.861 967.7>
VStem: 137 295<432.337 774.306> 328 328<1138.7 1282.14> 634 332<47.3664 186.476> 862 291<556.431 888.799>
Fore
328 1157 m 0xe8
 328 1302 441 1520 823 1520 c 0
 966 1520 1089 1489 1169 1462 c 1
 1125 1235 l 1
 987 1294 889 1313 826 1313 c 0
 679 1313 656 1238 656 1205 c 0
 656 1064 1153 1036 1153 735 c 0xea
 1153 605 1084 432 853 344 c 1
 894 320 966 268 966 165 c 0
 966 21 839 -195 445 -195 c 0
 371 -195 256 -188 88 -137 c 1
 134 100 l 1
 259 52 387 16 472 16 c 0
 565 16 634 59 634 119 c 0
 634 265 137 278 137 599 c 0xf4
 137 749 223 892 428 977 c 1
 375 1018 328 1069 328 1157 c 0xe8
600 856 m 1
 545 834 432 783 432 674 c 0xf2
 432 597 506 546 696 471 c 1
 807 507 862 578 862 649 c 0
 862 729 780 789 600 856 c 1
EndSplineSet
EndChar
StartChar: dieresis
Encoding: 105 168 107
Width: 1024
Flags: W
HStem: 1339 246<505 692 900 1087 457 1135 505 505>
Fore
505 1585 m 1
 740 1585 l 1
 692 1339 l 1
 457 1339 l 1
 505 1585 l 1
900 1585 m 1
 1135 1585 l 1
 1087 1339 l 1
 852 1339 l 1
 900 1585 l 1
EndSplineSet
EndChar
StartChar: copyright
Encoding: 106 169 108
Width: 2048
Flags: W
HStem: 0 154<839.462 1278.6> 313 187<1049.06 1306.4> 983 186<1131.4 1424.32> 1331 154<1059.68 1495.9>
VStem: 413 154<424 847.854> 734 261<554.733 844.538> 1769 154<636.328 1060.71>
Fore
734 645 m 0
 734 899 925 1169 1292 1169 c 0
 1391 1169 1471 1153 1542 1126 c 1
 1500 911 l 1
 1451 947 1383 983 1289 983 c 0
 1054 983 995 779 995 676 c 0
 995 562 1067 500 1195 500 c 0
 1288 500 1370 528 1434 571 c 1
 1393 358 l 1
 1295 327 1203 313 1126 313 c 0
 876 313 734 442 734 645 c 0
1054 154 m 0
 1434 154 1769 496 1769 854 c 0
 1769 1125 1571 1331 1283 1331 c 256
 913 1331 567 994 567 629 c 0
 567 363 759 154 1054 154 c 0
413 596 m 0
 413 1060 845 1485 1313 1485 c 256
 1666 1485 1923 1236 1923 887 c 0
 1923 421 1489 0 1024 0 c 256
 671 0 413 249 413 596 c 0
EndSplineSet
EndChar
StartChar: ordfeminine
Encoding: 107 170 109
Width: 1155
Flags: W
HStem: 373 200<287 1062> 696 162<521.09 788.996> 1081 138<640.045 943> 1354 166<551.608 954.542>
VStem: 249 988<373 1258 233.327 395.359> 337 254<872.082 991.351> 974 263<1219.59 1332.36>
Fore
287 573 m 1xf8
 1100 573 l 1
 1062 373 l 1
 249 373 l 1
 287 573 l 1xf8
853 1081 m 2
 704 1081 591 1060 591 941 c 0xf4
 591 887 631 858 697 858 c 0
 819 858 917 945 939 1059 c 2
 943 1081 l 1
 853 1081 l 2
968 1219 m 1
 971 1233 974 1246 974 1262 c 0xf6
 974 1305 947 1354 820 1354 c 0
 687 1354 573 1324 475 1284 c 1
 510 1464 l 1
 604 1491 734 1520 856 1520 c 0
 1093 1520 1237 1448 1237 1258 c 0xf8
 1237 1230 1234 1199 1227 1165 c 2
 1140 717 l 1
 895 717 l 1
 920 844 l 1
 841 758 745 696 602 696 c 0
 442 696 337 762 337 892 c 0
 337 909 338 927 342 946 c 0
 374 1110 495 1219 831 1219 c 2
 968 1219 l 1
EndSplineSet
EndChar
StartChar: guillemotleft
Encoding: 108 171 110
Width: 1323
Flags: W
HStem: 137 926<678 858 858 858>
Fore
858 1063 m 1
 811 821 l 1
 475 600 l 1
 725 379 l 1
 678 137 l 1
 256 506 l 1
 293 692 l 1
 858 1063 l 1
1337 1063 m 1
 1290 821 l 1
 955 600 l 1
 1204 379 l 1
 1157 137 l 1
 735 506 l 1
 772 692 l 1
 1337 1063 l 1
EndSplineSet
EndChar
StartChar: logicalnot
Encoding: 109 172 111
Width: 1716
Flags: W
HStem: 287 622<1395 1555 394 1555 1676 1676> 672 237<394 1395>
Fore
394 909 m 1x80
 1676 909 l 1
 1555 287 l 1
 1320 287 l 1x80
 1395 672 l 1
 348 672 l 1x40
 394 909 l 1x80
EndSplineSet
EndChar
StartChar: uni00AD
Encoding: 110 173 112
Width: 850
Flags: W
HStem: 444 291<254 825 254 825 254 254>
Fore
254 735 m 1
 882 735 l 1
 825 444 l 1
 197 444 l 1
 254 735 l 1
EndSplineSet
EndChar
StartChar: registered
Encoding: 111 174 113
Width: 2048
Flags: W
HStem: 0 154<839.462 1278.6> 1036 138<1133 1291.64> 1331 154<1060.07 1495.9>
VStem: 413 154<424 848.048> 1308 234<898.107 1020.08> 1769 154<636.328 1060.71>
Fore
1054 154 m 0
 1434 154 1769 496 1769 854 c 0
 1769 1125 1571 1331 1283 1331 c 256
 915 1331 567 995 567 629 c 0
 567 363 759 154 1054 154 c 0
1128 829 m 2
 1276 829 1308 905 1308 956 c 0
 1308 1004 1272 1036 1168 1036 c 2
 1133 1036 l 1
 1093 829 l 1
 1128 829 l 2
1542 988 m 0
 1542 937 1521 757 1293 719 c 1
 1355 681 1386 614 1403 559 c 2
 1471 338 l 1
 1242 338 l 1
 1176 551 l 2
 1156 621 1129 694 1079 694 c 2
 1067 694 l 1
 998 338 l 1
 785 338 l 1
 947 1174 l 1
 1232 1174 l 2
 1457 1174 1542 1102 1542 988 c 0
413 596 m 0
 413 1060 845 1485 1313 1485 c 256
 1666 1485 1923 1236 1923 887 c 0
 1923 421 1489 0 1024 0 c 256
 671 0 413 249 413 596 c 0
EndSplineSet
EndChar
StartChar: macron
Encoding: 112 175 114
Width: 1024
Flags: W
HStem: 1368 188<499 1093 499 1093 499 499>
Fore
499 1556 m 1
 1129 1556 l 1
 1093 1368 l 1
 463 1368 l 1
 499 1556 l 1
EndSplineSet
EndChar
StartChar: degree
Encoding: 113 176 115
Width: 1024
Flags: W
HStem: 868 162<603.531 837.9> 1372 162<657.499 884.601>
VStem: 404 165<1066.04 1282.86> 921 163<1112.51 1333.97>
Fore
712 1030 m 0
 827 1030 921 1130 921 1235 c 0
 921 1316 860 1372 779 1372 c 0
 664 1372 569 1269 569 1165 c 0
 569 1086 625 1030 712 1030 c 0
404 1131 m 0
 404 1338 586 1534 810 1534 c 0
 959 1534 1084 1429 1084 1267 c 0
 1084 1050 887 868 679 868 c 0
 514 868 404 976 404 1131 c 0
EndSplineSet
EndChar
StartChar: plusminus
Encoding: 114 177 116
Width: 1716
Flags: W
HStem: 0 238<263 1499> 694 236<398 874 1158 1634>
Fore
1227 1284 m 1
 1158 930 l 1
 1680 930 l 1
 1634 694 l 1
 1112 694 l 1
 1043 340 l 1
 805 340 l 1
 874 694 l 1
 352 694 l 1
 398 930 l 1
 920 930 l 1
 989 1284 l 1
 1227 1284 l 1
263 238 m 1
 1545 238 l 1
 1499 0 l 1
 217 0 l 1
 263 238 l 1
EndSplineSet
EndChar
StartChar: uni00B2
Encoding: 115 178 117
Width: 897
Flags: W
HStem: 668 168<575 912> 1372 148<468.621 768.154>
VStem: 782 250<1181.89 1356.49>
Fore
735 1520 m 0
 904 1520 1032 1460 1032 1326 c 0
 1032 1196 941 1104 801 1001 c 2
 575 836 l 1
 945 836 l 1
 912 668 l 1
 239 668 l 1
 269 821 l 1
 633 1087 l 2
 701 1138 782 1204 782 1283 c 0
 782 1337 740 1372 670 1372 c 0
 555 1372 428 1312 364 1280 c 1
 400 1466 l 1
 483 1490 605 1520 735 1520 c 0
EndSplineSet
EndChar
StartChar: uni00B3
Encoding: 116 179 118
Width: 897
Flags: MW
HStem: 653 146<354.224 665.725> 1047 137<478 701.167> 1372 148<558.458 762.229>
VStem: 725 242<853.695 1019.96> 771 250<1254.38 1356.87>
Fore
1021 1344 m 0
 1021 1305 1008 1161 810 1120 c 1
 902 1101 967 1047 967 954 c 0
 967 848 906 653 514 653 c 0
 402 653 307 670 226 698 c 1
 260 872 l 1
 316 837 399 799 499 799 c 0
 683 799 725 889 725 948 c 0
 725 1008 674 1047 526 1047 c 2
 452 1047 l 1
 478 1184 l 1
 562 1184 l 2
 674 1184 771 1207 771 1299 c 0
 771 1357 706 1372 629 1372 c 0
 580 1372 498 1364 373 1319 c 1
 406 1485 l 1
 499 1508 601 1520 715 1520 c 0
 967 1520 1021 1425 1021 1344 c 0
EndSplineSet
EndChar
StartChar: acute
Encoding: 117 180 119
Width: 1024
Flags: W
HStem: 1262 376<806 965 965 965>
Fore
965 1638 m 1
 1248 1638 l 1
 806 1262 l 1
 610 1262 l 1
 965 1638 l 1
EndSplineSet
EndChar
StartChar: mu
Encoding: 118 181 120
Width: 1507
Flags: W
HStem: -428 21G<91 455.887> -29 269<653.372 908.235 1178.5 1432.85> 1100 20G<388.111 753 1154.1 1518>
Fore
737 -29 m 0
 636 -29 575 3 548 66 c 1
 452 -428 l 1
 91 -428 l 1
 392 1120 l 1
 753 1120 l 1
 626 469 l 2
 620 440 618 415 618 392 c 0
 618 280 683 240 784 240 c 0
 927 240 1003 322 1031 469 c 2
 1158 1120 l 1
 1518 1120 l 1
 1372 371 l 2
 1367 347 1364 325 1364 306 c 0
 1364 268 1378 244 1421 244 c 0
 1430 244 1457 245 1494 266 c 1
 1445 16 l 1
 1389 -6 1320 -29 1245 -29 c 0
 1112 -29 1060 33 1039 129 c 1
 928 -12 807 -29 737 -29 c 0
EndSplineSet
EndChar
StartChar: paragraph
Encoding: 119 182 121
Width: 1303
Flags: W
HStem: 1346 147<1007 1196>
Fore
327 978 m 0
 327 1220 516 1493 894 1493 c 2
 1414 1493 l 1
 1086 -197 l 1
 896 -197 l 1
 1196 1346 l 1
 1007 1346 l 1
 707 -197 l 1
 517 -197 l 1
 681 649 l 1
 465 676 327 784 327 978 c 0
EndSplineSet
EndChar
StartChar: periodcentered
Encoding: 120 183 122
Width: 778
Flags: W
HStem: 518 387<385 670 310 745 385 385>
Fore
385 905 m 1
 745 905 l 1
 670 518 l 1
 310 518 l 1
 385 905 l 1
EndSplineSet
EndChar
StartChar: cedilla
Encoding: 121 184 123
Width: 1024
Flags: W
HStem: -401 147<297.251 496.997> -20 20G<463 624.5>
VStem: 520 156<-229.259 -77.4763>
Fore
379 -254 m 0
 465 -254 520 -213 520 -152 c 0
 520 -118 502 -71 463 0 c 1
 602 0 l 1
 647 -60 676 -121 676 -181 c 0
 676 -269 626 -401 387 -401 c 0
 306 -401 236 -387 189 -375 c 1
 219 -223 l 1
 294 -248 346 -254 379 -254 c 0
EndSplineSet
EndChar
StartChar: uni0E01
Encoding: 224 3585 124
Width: 1470
Flags: W
HStem: 0 21G<170 484.904 998 1312.89> 984 241<641.451 1110.36>
VStem: 998 311<59.4007 810.951>
Fore
966 1225 m 0
 1256 1225 1477 1159 1477 912 c 0
 1477 882 1474 848 1467 812 c 2
 1309 0 l 1
 998 0 l 1
 1153 796 l 2
 1156 812 1158 827 1158 841 c 0
 1158 929 1096 984 923 984 c 0
 769 984 689 961 635 938 c 1
 809 847 l 1
 771 651 l 1
 616 596 582 522 570 456 c 2
 481 0 l 1
 170 0 l 1
 259 456 l 2
 279 561 358 680 467 735 c 1
 297 812 l 1
 350 1088 l 1
 499 1145 730 1225 966 1225 c 0
EndSplineSet
EndChar
StartChar: uni0E02
Encoding: 225 3586 125
Width: 1380
Flags: W
HStem: 0 222<617 913.499> 712 137<362.558 501.601> 996 219<418.724 605.199>
VStem: 215 146<852.11 979.265> 517 150<864.129 986.71> 698 236<806.859 981.615>
Fore
425 849 m 0
 476 849 517 890 517 939 c 0
 517 977 488 996 454 996 c 0
 401 996 361 953 361 906 c 0
 361 869 391 849 425 849 c 0
215 884 m 0
 215 1050 388 1215 611 1215 c 0
 738 1215 934 1159 934 945 c 0
 934 682 695 623 644 361 c 2
 617 222 l 1
 818 222 l 2
 887 222 928 258 941 326 c 2
 1112 1204 l 1
 1424 1204 l 1
 1252 320 l 2
 1211 107 1049 0 768 0 c 2
 264 0 l 1
 343 406 l 2
 392 658 698 737 698 925 c 0
 698 961 682 989 651 1009 c 1
 661 991 667 971 667 948 c 0
 667 853 569 712 398 712 c 0
 286 712 215 786 215 884 c 0
EndSplineSet
EndChar
StartChar: uni0E03
Encoding: 226 3587 126
Width: 1530
Flags: W
HStem: 0 222<764 1063.64> 605 136<342.597 478.222> 1195 20G<543 612.539 828.067 937 1256.1 1570>
VStem: 197 142<744.943 861.573> 495 145<756.779 887.295> 842 254<862.7 1004.19>
Fore
640 848 m 0
 640 712 527 605 378 605 c 0
 301 605 197 643 197 783 c 0
 197 804 199 827 204 853 c 0
 260 1143 502 1209 584 1215 c 1
 711 1126 l 1
 862 1215 l 1
 1012 1195 1096 1096 1096 967 c 0
 1096 771 890 596 831 481 c 0
 813 445 800 405 791 361 c 2
 764 222 l 1
 966 222 l 2
 1035 222 1076 258 1089 326 c 2
 1260 1204 l 1
 1570 1204 l 1
 1395 305 l 2
 1356 102 1192 0 924 0 c 2
 411 0 l 1
 491 409 l 2
 499 455 532 610 736 763 c 0
 830 833 842 919 842 948 c 0
 842 981 826 1000 789 1008 c 1
 679 970 l 1
 534 1051 l 1
 485 1032 l 1
 598 1015 640 931 640 848 c 0
404 741 m 0
 449 741 495 782 495 832 c 0
 495 865 471 890 432 890 c 0
 378 890 339 841 339 801 c 0
 339 767 366 741 404 741 c 0
EndSplineSet
EndChar
StartChar: uni0E04
Encoding: 227 3588 127
Width: 1570
Flags: W
HStem: 0 21G<177 502 1079 1394.9> 390 127<819.438 958.63> 666 139<832.536 969.524> 984 239<780.963 1148.22>
VStem: 972 146<531.808 662.667>
Fore
1118 628 m 0
 1118 487 969 390 863 390 c 0
 802 390 742 406 712 453 c 1
 551 251 516 142 488 0 c 1
 177 0 l 1
 298 732 l 2
 360 1104 699 1223 1024 1223 c 0
 1333 1223 1544 1089 1544 833 c 0
 1544 801 1540 766 1533 729 c 2
 1391 0 l 1
 1079 0 l 1
 1222 738 l 2
 1225 756 1227 773 1227 789 c 0
 1227 907 1135 984 974 984 c 0
 786 984 647 884 618 735 c 2
 587 577 l 1
 658 692 787 805 934 805 c 0
 1028 805 1118 734 1118 628 c 0
909 666 m 0
 856 666 817 619 817 574 c 0
 817 539 844 517 879 517 c 8
 921 517 972 553 972 605 c 0
 972 641 946 666 909 666 c 0
EndSplineSet
EndChar
StartChar: uni0E05
Encoding: 228 3589 128
Width: 1570
Flags: W
HStem: 0 21G<177 502 1080 1395.9> 390 127<819.438 958.63> 666 139<832.204 969.237> 1198 20G<740.5 826.219 1223.34 1334>
VStem: 972 146<531.808 662.797> 1225 311<711.023 739 739 777.592 777.592 818.697 798.145 931.524>
Fore
909 666 m 0
 856 666 817 619 817 574 c 0
 817 539 844 517 879 517 c 8
 921 517 972 553 972 605 c 0
 972 641 946 666 909 666 c 0
1118 628 m 0
 1118 487 969 390 863 390 c 0
 802 390 742 406 712 453 c 1
 551 251 516 142 488 0 c 1
 177 0 l 1
 305 765 l 2
 332 908 392 1013 484 1080 c 0
 582 1150 685 1196 796 1218 c 1
 1003 1081 l 1
 1261 1218 l 1
 1407 1180 1549 1077 1549 865 c 0
 1549 826 1545 784 1536 739 c 2
 1392 0 l 1
 1080 0 l 1
 1225 748 l 2
 1229 770 1231 789 1231 807 c 0
 1231 890 1191 935 1163 952 c 1
 1006 868 l 1
 915 868 l 1
 776 961 l 1
 655 888 630 796 620 745 c 2
 587 576 l 1
 656 691 786 805 934 805 c 0
 1026 805 1118 735 1118 628 c 0
EndSplineSet
EndChar
StartChar: uni0E06
Encoding: 229 3590 129
Width: 1600
Flags: W
HStem: -11 216<431.753 580.05> 605 137<360.392 501.761> 1195 20G<563 632.539 848.067 951.5 1315.11 1645>
VStem: 196 229<211.035 350.017> 217 142<745.356 861.407> 515 145<756.656 887.403> 862 265<831.025 1003.44>
Fore
660 848 m 0xf6
 660 712 547 605 398 605 c 0
 321 605 217 643 217 783 c 0xee
 217 804 219 827 224 853 c 0
 280 1143 522 1209 604 1215 c 1
 731 1126 l 1
 882 1215 l 1
 1021 1197 1127 1099 1127 964 c 0
 1127 867 1063 727 966 645 c 0
 924 608 895 573 881 540 c 1
 993 508 1137 399 1150 336 c 1
 1319 1204 l 1
 1645 1204 l 1
 1411 0 l 1
 1080 0 l 1
 1046 128 942 267 838 315 c 1
 829 265 l 2
 796 99 646 -11 466 -11 c 0
 298 -11 196 77 196 219 c 0
 196 358 298 573 587 588 c 1
 687 777 862 786 862 948 c 0
 862 981 846 1000 809 1008 c 1
 699 970 l 1
 554 1051 l 1
 505 1032 l 1
 618 1015 660 931 660 848 c 0xf6
423 742 m 0
 474 742 515 783 515 831 c 0
 515 868 489 890 452 890 c 0
 408 890 359 850 359 799 c 0
 359 762 389 742 423 742 c 0
530 373 m 0
 470 373 425 319 425 271 c 0xf6
 425 231 457 205 498 205 c 0
 552 205 601 254 601 304 c 0
 601 342 574 373 530 373 c 0
EndSplineSet
EndChar
StartChar: uni0E07
Encoding: 230 3591 130
Width: 1130
Flags: W
HStem: 0 21G<543.5 944.893> 744 146<672.148 770.122> 1039 176<688.961 822.919>
VStem: 507 163<893.758 1023.17> 825 287<904.965 1034.28>
Back
372 960 m 4
 372 1029.33 396.667 1088.67 446 1138 c 0
 495.333 1187.33 554.667 1212 624 1212 c 0
 693.333 1212 752.667 1187.33 802 1138 c 0
 851.333 1088.67 876 1029.33 876 960 c 0
 876 890.667 851.333 831.333 802 782 c 0
 752.667 732.667 693.333 708 624 708 c 0
 554.667 708 495.333 732.667 446 782 c 0
 396.667 831.333 372 890.667 372 960 c 4
548 962 m 4
 548 982.667 555.167 1000.17 569.5 1014.5 c 0
 583.833 1028.83 601.333 1036 622 1036 c 0
 642.667 1036 660.167 1028.83 674.5 1014.5 c 0
 688.833 1000.17 696 982.667 696 962 c 0
 696 941.333 688.833 923.833 674.5 909.5 c 0
 660.167 895.167 642.667 888 622 888 c 0
 601.333 888 583.833 895.167 569.5 909.5 c 0
 555.167 923.833 548 941.333 548 962 c 4
EndSplineSet
Fore
762 1039 m 0
 707 1039 670 989 670 949 c 0
 670 913 697 890 732 890 c 8
 775 890 825 927 825 978 c 0
 825 1012 801 1039 762 1039 c 0
507 924 m 0
 507 1005 572 1215 834 1215 c 2
 836 1215 l 2
 982 1215 1112 1158 1112 928 c 0
 1112 894 1108 859 1101 822 c 2
 941 0 l 25
 574 0 l 1
 513 109 357 381 150 570 c 1
 251 761 l 1
 367 696 591 526 698 371 c 1
 772 752 l 1
 760 746 734 744 703 744 c 0
 593 744 507 820 507 924 c 0
EndSplineSet
EndChar
StartChar: uni0E08
Encoding: 231 3592 131
Width: 1360
Flags: W
HStem: 0 21G<852 1166.88> 364 144<502.766 640.107> 657 144<516.626 651.294> 994 240<576.786 950.281>
VStem: 352 147<510.531 642.792> 1013 315<811.689 936.547>
Fore
638 801 m 0
 890 801 945 569 953 518 c 1
 1009 806 l 2
 1012 819 1013 831 1013 843 c 0
 1013 962 880 994 731 994 c 0
 442 994 270 861 219 822 c 1
 272 1095 l 1
 502 1220 670 1234 778 1234 c 0
 957 1234 1100 1202 1206 1138 c 0
 1288 1090 1328 1011 1328 901 c 0
 1328 867 1324 829 1316 789 c 10
 1163 0 l 1
 852 0 l 1
 852 36 l 0
 852 231 813 372 738 460 c 1
 709 411 608 364 539 364 c 0
 432 364 352 453 352 539 c 0
 352 636 447 801 638 801 c 0
592 657 m 0
 541 657 499 612 499 566 c 0
 499 530 527 508 562 508 c 8
 611 508 655 551 655 596 c 0
 655 630 631 657 592 657 c 0
EndSplineSet
EndChar
StartChar: uni0E09
Encoding: 232 3593 132
Width: 1470
Flags: W
HStem: -10 174<1135.76 1271.79> 324 146<333.115 431.754> 619 176<348.452 591.349> 994 241<650.849 1037.91>
VStem: 169 162<473.228 602.64> 486 279<484.423 616.55> 1289 199<178.696 310.345>
Fore
423 619 m 0
 374 619 331 575 331 527 c 0
 331 492 358 470 393 470 c 8
 437 470 486 508 486 557 c 0
 486 594 459 619 423 619 c 0
1092 839 m 0
 1092 966.799 969.794 994 818 994 c 0
 753 994 573 990 279 822 c 1
 332 1095 l 1
 500 1179 692 1235 915 1235 c 0
 1270 1235 1408 1105 1408 900 c 0
 1408 865 1404 828 1396 789 c 2
 1342 507 l 1
 1386 507 1488 438 1488 304 c 0
 1488 201 1414 -10 1162 -10 c 0
 1019 -10 943 55 933 185 c 1
 841 157 755 96 675 0 c 1
 369 0 l 1
 434 332 l 1
 421 326 395 324 364 324 c 0
 255 324 169 399 169 503 c 0
 169 586 234 795 496 795 c 0
 699 795 765 626 765 496 c 0
 765 473 763 451 759 432 c 2
 734 305 l 1
 818 370 914 425 1024 471 c 1
 1089 806 l 2
 1091 818 1092 829 1092 839 c 0
1226 313 m 0
 1182 313 1134 273 1134 223 c 0
 1134 187 1161 164 1196 164 c 8
 1239 164 1289 201 1289 252 c 0
 1289 288 1261 313 1226 313 c 0
EndSplineSet
EndChar
StartChar: uni0E0A
Encoding: 233 3594 133
Width: 1420
Flags: W
HStem: 0 222<617 939.864> 712 136<362.777 500.903> 996 219<418.752 605.199>
VStem: 215 146<851.602 979.44> 517 150<864.233 986.71> 698 236<806.859 981.615> 1034 314<611.843 742.209>
Fore
454 996 m 0
 396 996 361 949 361 908 c 0
 361 877 381 848 425 848 c 0
 470 848 517 889 517 939 c 0
 517 977 488 996 454 996 c 0
215 884 m 0
 215 1050 388 1215 611 1215 c 0
 738 1215 934 1159 934 945 c 0
 934 682 695 623 644 361 c 2
 617 222 l 1
 851 222 l 2
 920 222 961 258 974 326 c 2
 1029 608 l 2
 1032 624 1034 639 1034 653 c 0
 1034 716 1000 752 932 761 c 1
 987 1042 l 1
 1108 1066 1202 1206 1235 1373 c 1
 1565 1373 l 1
 1501 1043 1290 920 1230 894 c 1
 1295 863 1348 776 1348 673 c 0
 1348 654 1346 634 1342 614 c 2
 1282 306 l 2
 1243 102 1079 0 811 0 c 2
 264 0 l 1
 343 406 l 2
 392 658 698 737 698 925 c 0
 698 961 682 989 651 1009 c 1
 661 991 667 971 667 948 c 0
 667 853 569 712 398 712 c 0
 286 712 215 786 215 884 c 0
EndSplineSet
EndChar
StartChar: uni0E0B
Encoding: 234 3595 134
Width: 1580
Flags: W
HStem: 0 222<764 1109.61> 605 136<342.597 477.972> 1195 20G<543 612.539 828.067 937>
VStem: 197 142<744.943 861.573> 495 145<756.641 873.746> 842 254<862.7 1004.19> 1199 314<611.89 746.634>
Fore
640 848 m 0
 640 712 527 605 378 605 c 0
 301 605 197 643 197 783 c 0
 197 804 199 827 204 853 c 0
 260 1143 502 1209 584 1215 c 1
 711 1126 l 1
 862 1215 l 1
 1012 1195 1096 1096 1096 967 c 0
 1096 771 890 596 831 481 c 0
 813 445 800 405 791 361 c 2
 764 222 l 1
 1016 222 l 2
 1085 222 1126 258 1139 326 c 2
 1194 608 l 2
 1198 626 1199 643 1199 658 c 0
 1199 723 1165 758 1097 761 c 1
 1153 1052 l 1
 1252 1070 1359 1163 1400 1373 c 1
 1730 1373 l 1
 1666 1043 1455 920 1395 894 c 1
 1460 863 1513 776 1513 673 c 0
 1513 654 1511 634 1507 614 c 2
 1444 290 l 18
 1407 97 1257 0 995 0 c 2
 411 0 l 1
 491 409 l 2
 499 455 532 610 736 763 c 0
 830 833 842 919 842 948 c 0
 842 981 826 1000 789 1008 c 1
 679 970 l 1
 534 1051 l 1
 485 1032 l 1
 598 1015 640 931 640 848 c 0
404 741 m 0
 452 741 495 786 495 831 c 0
 495 859 479 890 432 890 c 0
 378 890 339 841 339 801 c 0
 339 767 366 741 404 741 c 0
EndSplineSet
EndChar
StartChar: uni0E0C
Encoding: 235 3596 135
Width: 2060
Flags: W
HStem: -20 186<352.454 566.9> -20 206<1038.76 1190.55> 315 148<490.346 517.508 503.927 581.3> 984 241<625.963 1081.9>
VStem: 145 283<169.34 287.54> 584 159<181.799 312.636> 810 225<191.898 331.834>
Fore
899 1225 m 0xbe
 1183 1225 1435 1160 1435 898 c 0
 1435 871 1432 842 1426 812 c 2
 1374 547 l 1
 1481 522 1564 462 1618 366 c 1
 1781 1204 l 1
 2085 1204 l 1
 1851 0 l 1
 1541 0 l 1
 1514 121 1466 195 1398 220 c 1
 1396 213 l 2
 1378 117 1261 -20 1065 -20 c 0x7e
 956 -20 810 46 810 208 c 0
 810 339 893 472 1066 536 c 1
 1117 796 l 2
 1120 814 1122 830 1122 845 c 0
 1122 954 1033 984 923 984 c 0
 764 984 675 959 618 936 c 1
 754 850 l 1
 727 708 l 1
 530 640 508 554 500 516 c 2
 490 463 l 1
 495 463 499 464 547 464 c 0
 607 464 662 459 709 398 c 0
 731 369 743 331 743 286 c 0
 743 120 610 -20 398 -20 c 0
 275 -20 145 65 145 238 c 0
 145 268 149 301 156 337 c 2
 181 468 l 2
 197 549 240 678 412 765 c 1
 256 854 l 1
 299 1074 l 1
 472 1161 671 1225 899 1225 c 0xbe
1139 354 m 0
 1079 354 1035 300 1035 253 c 0
 1035 212 1066 186 1107 186 c 0
 1155 186 1210 228 1210 285 c 0
 1210 323 1183 354 1139 354 c 0
491 166 m 0xbe
 537 166 584 207 584 257 c 0
 584 293 556 315 521 315 c 8
 478 315 428 278 428 226 c 0
 428 190 455 166 491 166 c 0xbe
EndSplineSet
EndChar
StartChar: uni0E0D
Encoding: 236 3597 136
Width: 1970
Flags: W
HStem: -461 176<1022.05 1242.1> -172 119<997.468 1113.83> -11 189<363.041 544.78> 0 221<1230 1510> 994 240<637.139 974.503>
VStem: 159 249<180.203 299.269> 563 208<194.484 324.064> 867 124<-284.467 -180.438> 1114 125<-262.547 -184.151>
Fore
1044 -285 m 0xcf80
 1088 -285 1114 -251 1114 -218 c 0
 1114 -194 1098 -172 1064 -172 c 0
 1022 -172 991 -210 991 -241 c 0
 991 -270 1016 -285 1044 -285 c 0xcf80
1239 -204 m 0
 1239 -233 1228 -269 1223 -274 c 1
 1295 -267 1576 -203 1738 -67 c 1
 1731 -306 l 1
 1525 -441 1191 -461 1116 -461 c 0
 1039 -461 984 -448 950 -420 c 0
 893 -376 867 -338 867 -279 c 0
 867 -121 1000 -53 1088 -53 c 0
 1183 -53 1239 -127 1239 -204 c 0
EndSplineSet
Refer: 256 63247 N 1 0 0 1 0 0 2
Substitution2: "Thai Descender Removal Single Substitution" uni0E0D.descless
EndChar
StartChar: uni0E0E
Encoding: 237 3598 137
Width: 1560
Flags: W
HStem: -532 193<469.472 605.387> -196 195<479.224 642> -10 179<292.656 429.211> 984 241<887.296 1138.4>
VStem: 108 182<100.646 302.897> 240 217<-337.896 -222.392> 1199 329<811.634 928.002>
AnchorPoint: "BelowBase" 1237 -580 basechar 0
Fore
353 169 m 0xba
 406 169 445 217 445 257 c 0
 445 291 419 318 381 318 c 8
 339 318 290 284 290 230 c 0
 290 196 314 169 353 169 c 0xba
240 -331 m 0xb6
 240 -129 446 -1 628 -1 c 0
 673 -1 716 -10 757 -29 c 1
 787 62 l 1
 978 -1 l 1xd6
 914 -127 l 1
 951 -156 978 -186 998 -217 c 1
 1195 795 l 2
 1197 808 1199 820 1199 832 c 0
 1199 953 1065 984 944 984 c 0
 883 984 811 975 732 937 c 1
 933 836 l 1
 895 644 l 1
 823 620 761 561 745 478 c 2
 714 320 l 2
 663 56 497 -10 338 -10 c 0
 234 -10 108 30 108 177 c 0xba
 108 342 234 483 388 493 c 2
 434 496 l 1
 459 622 496 690 595 734 c 1
 394 811 l 1
 447 1088 l 1
 736 1207 925 1225 1038 1225 c 0
 1211 1225 1343 1193 1429 1128 c 0
 1495 1080 1528 1007 1528 911 c 0
 1528 880 1525 847 1518 811 c 2
 1259 -520 l 1
 931 -520 l 1
 903 -457 866 -403 818 -358 c 1
 732 -484 601 -532 473 -532 c 0
 353 -532 240 -458 240 -331 c 0xb6
578 -196 m 0
 526 -196 457 -230 457 -292 c 0
 457 -329 485 -339 505 -339 c 0
 558 -339 623 -299 662 -220 c 1
 634 -204 606 -196 578 -196 c 0
EndSplineSet
EndChar
StartChar: uni0E0F
Encoding: 238 3599 138
Width: 1550
Flags: W
HStem: -523 177<243.1 385.328> -241 162<238.778 383.792> -12 181<294.617 428.173> 985 240<801.305 1136.66>
VStem: 23 210<-345.468 -251.835> 110 180<171.931 303.691> 1199 328<811.724 927.398>
AnchorPoint: "BelowBase" 1237 -580 basechar 0
Fore
353 169 m 0xf6
 406 169 445 217 445 257 c 0
 445 291 419 318 381 318 c 8
 339 318 290 284 290 230 c 0
 290 196 314 169 353 169 c 0xf6
23 -340 m 0xfa
 23 -230 146 -79 357 -79 c 0
 367 -79 462 -81 519 -119 c 1
 618 9 l 1
 841 -76 l 1
 691 -232 l 1
 741 -265 l 1
 843 -175 l 1
 921 -175 l 1
 991 -254 l 1
 1195 795 l 2
 1197 808 1199 820 1199 831 c 0
 1199 953 1063 985 941 985 c 0
 864 985 794 967 732 937 c 1
 933 836 l 1
 895 644 l 1
 823 620 761 561 745 478 c 2
 714 320 l 2
 659 38 436 -12 326 -12 c 0
 200 -12 110 78 110 194 c 0xf6
 110 303 198 480 388 493 c 2
 434 496 l 1
 459 622 496 690 595 734 c 1
 394 811 l 1
 447 1088 l 1
 666 1195 867 1225 1038 1225 c 0
 1305 1225 1527 1161 1527 904 c 0
 1527 875 1523 844 1517 811 c 2
 1258 -520 l 1
 921 -520 l 1
 847 -418 l 1
 751 -508 l 1
 652 -508 l 1
 554 -388 l 1
 460 -471 348 -523 256 -523 c 0
 145 -523 23 -457 23 -340 c 0xfa
329 -241 m 0
 275 -241 233 -268 233 -309 c 0xfa
 233 -338 260 -346 289 -346 c 0
 354 -346 388 -304 411 -265 c 1
 384 -249 356 -241 329 -241 c 0
EndSplineSet
EndChar
StartChar: uni0E10
Encoding: 239 3600 139
Width: 1250
Flags: W
HStem: -617 143<163.133 281.009> -615 570<778.112 908 174 784 784 784> -394 130<179.482 266.444> -361 103<675.022 722.238 692.477 701> -156 111<678.642 815.494> 0 21<677.755 986.91> 205 144<387.915 526.369> 498 144<400.062 537.213> 984 241<716.095 1180.48>
VStem: 19 144<-505.154 -397.361> 19 956 237 147<352.786 480.132> 557 117<-249.469 -160.784> 882 337<531.835 682.503>
Fore
19 -480 m 0x87c0
 19 -358 146 -264 253 -264 c 0xa7c0
 283 -264 311 -265 362 -308 c 1
 407 -231 l 1
 512 -338 l 1
 461 -408 l 1
 509 -458 l 1
 581 -385 l 1
 640 -385 l 1
 682 -456 l 1
 701 -360 l 1
 695 -361 689 -361 684 -361 c 0
 628 -361 557 -323 557 -237 c 0x17c8
 557 -122 658 -45 784 -45 c 0
 853 -45 975 -69 975 -235 c 0
 975 -260 972 -289 966 -321 c 2
 908 -615 l 1
 646 -615 l 1x47a0
 587 -528 l 1
 514 -610 l 1
 442 -610 l 1
 379 -518 l 1
 334 -584 266 -617 174 -617 c 0
 57 -617 19 -546 19 -480 c 0x87c0
716 -258 m 0x1f88
 752 -258 778 -221 778 -195 c 0
 778 -174 762 -156 738 -156 c 0
 698 -156 674 -188 674 -218 c 0
 674 -240 687 -258 716 -258 c 0x1f88
217 -394 m 0xa7c0
 193 -394 163 -417 163 -443 c 0
 163 -457 169 -474 196 -474 c 0
 249 -474 261 -446 283 -428 c 1
 260 -406 250 -394 217 -394 c 0xa7c0
EndSplineSet
Refer: 241 63232 N 1 0 0 1 0 0 2
Substitution2: "Thai Descender Removal Single Substitution" uni0E10.descless
EndChar
StartChar: uni0E11
Encoding: 240 3601 140
Width: 1820
Flags: W
HStem: 0 21G<432 833 1319 1632.89> 605 137<361.392 502.92> 836 387<1400.95 1619.49>
VStem: 218 142<745.41 861.282> 516 145<756.86 887.382> 863 254<862.7 1004.19>
Fore
424 742 m 0
 481 742 516 790 516 831 c 0
 516 862 495 890 454 890 c 0
 402 890 360 844 360 800 c 0
 360 763 390 742 424 742 c 0
661 848 m 0
 661 712 548 605 399 605 c 0
 322 605 218 643 218 783 c 0
 218 804 220 827 225 853 c 0
 281 1143 523 1209 605 1215 c 1
 732 1126 l 1
 883 1215 l 1
 1033 1195 1117 1096 1117 967 c 0
 1117 771 911 596 852 481 c 0
 834 445 821 405 812 361 c 2
 808 340 l 1
 836 360 895 429 987 549 c 0
 1077 668 1162 820 1241 1003 c 0
 1261 1051 1301 1100 1359 1149 c 0
 1417 1198 1487 1223 1571 1223 c 0
 1766 1223 1820 1119 1820 1016 c 0
 1820 994 1818 972 1814 951 c 2
 1629 0 l 1
 1319 0 l 1
 1471 784 l 2
 1472 789 1473 794 1473 798 c 0
 1473 828 1447 836 1430 836 c 0
 1414 836 1378 810 1367 784 c 0
 1253 525 919 155 747 0 c 1
 432 0 l 1
 512 409 l 2
 520 455 553 610 757 763 c 0
 851 833 863 919 863 948 c 0
 863 981 847 1000 810 1008 c 1
 700 970 l 1
 555 1051 l 1
 506 1032 l 1
 618 1015 661 931 661 848 c 0
EndSplineSet
EndChar
StartChar: uni0E12
Encoding: 241 3602 141
Width: 2230
Flags: W
HStem: -21 191<1235.17 1387.06> 702 140<831.283 980.255> 1203 20<756.5 840.922 1246.83 1394 1961.12 2271>
VStem: 664 147<544.223 682.841> 986 157<559.307 696.071> 1021 210<175.56 314.737> 1308 309<708.726 737 746 768.993 768.993 778.613 773.803 972.666>
Fore
1336 338 m 0xf6
 1276 338 1231 284 1231 236 c 0
 1231 196 1263 170 1304 170 c 0
 1352 170 1407 212 1407 269 c 0
 1407 307 1380 338 1336 338 c 0xf6
913 702 m 0
 853 702 811 648 811 603 c 0
 811 566 841 539 884 539 c 0
 941 539 986 589 986 635 c 0xfa
 986 672 958 702 913 702 c 0
1143 677 m 0
 1143 406 660 102 495 0 c 1
 187 0 l 1
 273 710 l 2
 292 863 354 985 476 1078 c 0
 592 1168 703 1216 810 1223 c 1
 1028 1082 l 1
 1283 1223 l 1
 1505 1217 1628 1067 1628 859 c 0
 1628 823 1625 785 1617 746 c 2
 1572 512 l 1
 1659 492 1732 427 1793 318 c 1
 1965 1204 l 1
 2271 1204 l 1
 2037 0 l 1
 1726 0 l 1
 1694 107 1648 176 1591 209 c 1
 1575 128 1454 -21 1279 -21 c 0
 1121 -21 1021 53 1021 189 c 0xf6
 1021 333 1121 467 1265 515 c 1
 1308 737 l 2
 1316 777 1319 810 1319 839 c 0
 1319 948 1272 985 1246 994 c 1
 1072 898 l 1
 935 898 l 1
 785 993 l 1
 610 897 590 772 578 689 c 2
 537 339 l 1
 644 362 719 394 758 437 c 1
 702 465 664 506 664 575 c 0
 664 692 757 842 939 842 c 0
 1017 842 1143 808 1143 677 c 0
EndSplineSet
EndChar
StartChar: uni0E13
Encoding: 242 3603 142
Width: 2060
Flags: W
HStem: -18 203<352.102 568.92 1638.06 1773.8> 985 240<597.083 1002.55>
VStem: 184 251<187.315 306.136> 589 209<201.43 331.599> 1791 218<194.029 323.275>
Fore
1728 327 m 0
 1677 327 1635 282 1635 236 c 0
 1635 200 1663 178 1698 178 c 8
 1742 178 1791 216 1791 267 c 0
 1791 300 1767 327 1728 327 c 0
2009 312 m 0
 2009 193 1916 -24 1647 -24 c 0
 1486 -24 1412 74 1412 166 c 0
 1412 177 1413 188 1415 199 c 1
 1374 181 1305 115 1209 0 c 1
 900 0 l 1
 1055 796 l 2
 1057 807 1058 818 1058 829 c 0
 1058 866 1045 900 1018 930 c 0
 984 967 913 985 806 985 c 0
 703 985 653 968 592 938 c 1
 777 847 l 1
 739 651 l 1
 630 629 565 580 542 509 c 1
 598 509 l 2
 694 509 798 440 798 307 c 0
 798 127 628 -18 441 -18 c 256
 265 -18 184 94 184 241 c 0
 184 269 187 299 193 330 c 2
 219 465 l 2
 240 569 315 681 425 735 c 1
 254 812 l 1
 307 1088 l 1
 608 1202 785 1225 898 1225 c 0
 1180 1225 1378 1143 1378 910 c 0
 1378 880 1375 847 1368 812 c 2
 1277 345 l 1
 1374 429 1474 479 1577 495 c 1
 1715 1204 l 1
 2025 1204 l 1
 1888 501 l 1
 1938 490 2009 418 2009 312 c 0
497 185 m 0
 541 185 589 225 589 275 c 0
 589 311 562 334 527 334 c 8
 480 334 435 292 435 246 c 0
 435 213 458 185 497 185 c 0
EndSplineSet
EndChar
StartChar: uni0E14
Encoding: 243 3604 143
Width: 1600
Flags: W
HStem: 0 21G<171 552.5 1114 1428.9> 666 145<827.817 962.628> 984 240<840.719 1192.45>
VStem: 666 145<520.753 649.14> 966 151<532.051 661.856> 1114 311<59.1611 751.727>
Fore
666 552 m 0xf4
 666 695 807 811 944 811 c 0
 1036 811 1117 727 1117 628 c 0xf8
 1117 555 1064 394 895 261 c 0
 760 155 623 68 482 0 c 1
 171 0 l 1
 292 732 l 1
 296 751 l 2
 369 1129 753 1224 1061 1224 c 0
 1274 1224 1416 1175 1491 1078 c 0
 1548 1001 1576 917 1576 824 c 0
 1576 793 1573 762 1567 729 c 2
 1425 0 l 1
 1114 0 l 1
 1257 738 l 2
 1260 750 1261 763 1261 776 c 0
 1261 814 1250 855 1229 898 c 0
 1201 956 1126 984 1006 984 c 0
 915 984 795 971 716 897 c 0
 629 815 618 761 613 735 c 2
 535 264 l 1
 610 283 689 329 772 402 c 1
 733 412 666 457 666 552 c 0xf4
903 666 m 0
 850 666 811 619 811 574 c 0
 811 539 838 517 873 517 c 8
 915 517 966 553 966 605 c 0
 966 641 940 666 903 666 c 0
EndSplineSet
EndChar
StartChar: uni0E15
Encoding: 244 3605 144
Width: 1600
Flags: W
HStem: 0 21G<171 743.5 1114 1428.9> 636 135<819.255 957.483> 1193 20G<742.5 824.595 1251.81 1405>
VStem: 670 135<490.337 619.642> 960 150<502.727 633.809> 1275 309<790.937 957.925>
Fore
670 530 m 0
 670 662 799 771 936 771 c 0
 1025 771 1110 699 1110 597 c 0
 1110 478 1006 248 481 0 c 1
 171 0 l 1
 294 742 l 2
 310 815 342 992 479 1088 c 0
 575 1156 683 1198 802 1213 c 1
 1011 1028 l 1
 1281 1213 l 1
 1529 1150 1584 1006 1584 874 c 0
 1584 826 1577 779 1569 739 c 2
 1425 0 l 1
 1114 0 l 1
 1259 748 l 2
 1270 802 1275 844 1275 875 c 0
 1275 951 1223 964 1218 965 c 1
 1063 854 l 1
 874 854 l 1
 760 966 l 1
 590 877 634 786 540 302 c 1
 618 313 694 343 766 392 c 1
 742 400 670 440 670 530 c 0
898 636 m 0
 845 636 805 589 805 545 c 0
 805 509 833 487 868 487 c 8
 917 487 960 529 960 575 c 0
 960 611 935 636 898 636 c 0
EndSplineSet
EndChar
StartChar: uni0E16
Encoding: 245 3606 145
Width: 1430
Flags: W
HStem: -11 195<435.236 572.656> 986 238<756.396 1025.04>
VStem: 180 253<187.06 305.239> 588 207<201.045 328.625> 930 310<59.1395 811.932>
Fore
795 297 m 0
 795 142 653 -11 447 -11 c 0
 366 -11 287 16 233 68 c 0
 199 103 180 155 180 226 c 0
 180 255 184 289 191 325 c 2
 219 466 l 2
 240 574 338 683 444 736 c 1
 254 813 l 1
 308 1090 l 1
 640 1215 775 1224 909 1224 c 0
 1020 1224 1177 1213 1296 1132 c 0
 1368 1085 1406 997 1406 896 c 0
 1406 869 1403 841 1398 813 c 2
 1240 0 l 1
 930 0 l 1
 1085 797 l 2
 1087 809 1089 821 1089 832 c 0
 1089 954 947 986 835 986 c 0
 750 986 644 965 592 939 c 1
 776 848 l 1
 738 652 l 1
 622 615 568 576 541 508 c 1
 597 508 l 2
 730 508 795 401 795 297 c 0
496 184 m 0
 550 184 588 234 588 274 c 0
 588 310 561 333 526 333 c 8
 482 333 433 296 433 244 c 0
 433 208 459 184 496 184 c 0
EndSplineSet
EndChar
StartChar: uni0E17
Encoding: 246 3607 146
Width: 1690
Flags: W
HStem: 0 21G<335 688.016 1202 1515.89> 745 146<372.933 472.478> 901 313<1246.22 1492.55> 1040 175<387.762 586.076>
VStem: 221 149<893.124 1025.58> 525 297<905.748 1034.22> 1366 336<843.57 1055.5>
Fore
221 920 m 0xee
 221 1003 282 1215 543 1215 c 0xde
 649 1215 822 1181 822 941 c 0
 822 903 818 861 809 813 c 2
 742 467 l 1
 1055 993 l 2
 1108 1082 1234 1214 1438 1214 c 0
 1651 1214 1702 1105 1702 1006 c 0
 1702 983 1699 961 1695 941 c 2
 1512 0 l 1
 1202 0 l 1
 1365 839 l 2
 1366 842 1366 845 1366 848 c 0
 1366 880 1333 901 1305 901 c 0
 1271 901 1237 863 1221 839 c 2
 675 0 l 1
 335 0 l 1
 483 759 l 1
 461 750 435 745 404 745 c 0
 328 745 221 801 221 920 c 0xee
462 1040 m 0
 408 1040 370 990 370 950 c 0
 370 914 397 891 432 891 c 8
 476 891 525 928 525 980 c 0
 525 1016 499 1040 462 1040 c 0
EndSplineSet
EndChar
StartChar: uni0E18
Encoding: 247 3608 147
Width: 1330
Flags: W
HStem: 0 158<546 833> 984 241<646.371 1103.26>
Fore
1175 848 m 1
 1160 962 1080 984 923 984 c 0
 769 984 689 961 635 938 c 1
 1122 798 l 2
 1193 778 1228 720 1228 625 c 0
 1228 595 1225 560 1217 521 c 2
 1116 0 l 1
 204 0 l 1
 325 622 l 1
 636 622 l 1
 546 158 l 1
 833 158 l 1
 903 520 l 2
 905 528 905 535 905 543 c 0
 905 597 862 635 775 656 c 2
 289 772 l 1
 349 1078 l 1
 617 1182 768 1225 966 1225 c 0
 1070 1225 1290 1218 1409 1112 c 1
 1175 848 l 1
EndSplineSet
EndChar
StartChar: uni0E19
Encoding: 248 3609 148
Width: 1580
Flags: W
HStem: -23 196<1204.7 1341.42> 751 146<373.028 473.1> 1046 175<385.819 589.076>
VStem: 223 148<899.772 1030.54> 526 298<912.561 1040.34> 997 203<139.634 236.835> 1355 220<187.999 319.157>
Fore
463 1046 m 0
 410 1046 371 999 371 954 c 0
 371 919 398 897 433 897 c 8
 475 897 526 933 526 985 c 0
 526 1021 500 1046 463 1046 c 0
1293 322 m 0
 1240 322 1200 275 1200 231 c 0
 1200 195 1228 173 1263 173 c 8
 1312 173 1355 215 1355 261 c 0
 1355 297 1330 322 1293 322 c 0
1575 308 m 0
 1575 196 1477 -23 1225 -23 c 0
 1037 -23 997 104 997 173 c 0
 997 183 998 192 999 199 c 1
 902 178 785 112 648 0 c 1
 336 0 l 1
 485 765 l 17
 459 756 432 751 404 751 c 0
 326 751 223 810 223 927 c 0
 223 1005 279 1221 555 1221 c 0
 654 1221 824 1186 824 948 c 0
 824 910 819 867 810 819 c 2
 710 304 l 1
 826 409 968 470 1140 485 c 1
 1280 1204 l 1
 1592 1204 l 1
 1453 491 l 1
 1472 488 1575 421 1575 308 c 0
EndSplineSet
EndChar
StartChar: uni0E1A
Encoding: 249 3610 149
Width: 1600
Flags: W
HStem: 0 222<694 1157> 744 146<372.462 477.343> 1039 176<384.437 608.459>
VStem: 221 149<893.724 1022.13> 525 300<904.346 1035.45>
Fore
462 1039 m 0
 407 1039 370 989 370 949 c 0
 370 913 397 890 432 890 c 8
 475 890 525 927 525 978 c 0
 525 1012 501 1039 462 1039 c 0
221 918 m 0
 221 1005 285 1215 544 1215 c 0
 694 1215 825 1152 825 949 c 0
 825 914 821 875 813 831 c 2
 694 222 l 1
 1157 222 l 1
 1348 1204 l 1
 1662 1204 l 1
 1428 0 l 1
 336 0 l 1
 483 755 l 1
 468 748 442 744 404 744 c 0
 291 744 221 820 221 918 c 0
EndSplineSet
EndChar
StartChar: uni0E1B
Encoding: 250 3611 150
Width: 1600
Flags: W
HStem: 0 222<694 1157> 754 146<375.299 475.302> 1049 175<387.748 597.459>
VStem: 222 150<902.535 1034.01> 527 297<914.335 1045.94>
AnchorPoint: "AboveBase" 1236 1284 basechar 0
Fore
464 1049 m 0
 409 1049 372 999 372 959 c 0
 372 923 399 900 434 900 c 8
 477 900 527 937 527 988 c 0
 527 1022 503 1049 464 1049 c 0
222 927 m 0
 222 997 285 1224 536 1224 c 0
 670 1224 824 1168 824 944 c 0
 824 908 820 867 811 822 c 2
 694 222 l 1
 1157 222 l 1
 1433 1641 l 1
 1747 1641 l 1
 1428 0 l 1
 335 0 l 1
 484 768 l 1
 472 760 449 754 405 754 c 0
 321 754 222 822 222 927 c 0
EndSplineSet
EndChar
StartChar: uni0E1C
Encoding: 251 3612 151
Width: 1580
Flags: W
HStem: 0 21G<172 522.21 1045.97 1388.89> 748 146<706.402 846.314> 1042 175<722.377 855.998>
VStem: 859 151<909.567 1038.07>
Fore
796 1042 m 0
 743 1042 704 993 704 953 c 0
 704 920 730 894 768 894 c 8
 810 894 859 929 859 982 c 0
 859 1018 832 1042 796 1042 c 0
1010 1031 m 0
 1010 852 860 748 729 748 c 0
 679 748 648 753 636 762 c 9
 556 352 l 1
 819 652 l 1
 993 652 l 1
 1139 336 l 1
 1308 1204 l 1
 1619 1204 l 1
 1385 0 l 1
 1056 0 l 1
 860 391 l 1
 504 0 l 1
 172 0 l 1
 339 857 l 2
 370 1021 483 1217 779 1217 c 0
 926 1217 1010 1151 1010 1031 c 0
EndSplineSet
EndChar
StartChar: uni0E1D
Encoding: 252 3613 152
Width: 1580
Flags: W
HStem: 0 21G<172 522.21 1045.97 1388.88> 747 147<705.744 844.293> 1042 175<722.008 856.325>
VStem: 859 152<909.081 1037.96>
AnchorPoint: "AboveBase" 1210 1284 basechar 0
Fore
796 1042 m 0
 743 1042 704 993 704 953 c 0
 704 920 730 894 768 894 c 8
 810 894 859 929 859 982 c 0
 859 1018 832 1042 796 1042 c 0
1011 1028 m 0
 1011 868 870 747 722 747 c 0
 670 747 637 761 636 762 c 9
 556 352 l 1
 819 652 l 1
 993 652 l 1
 1139 336 l 1
 1392 1638 l 1
 1703 1638 l 1
 1385 0 l 1
 1056 0 l 1
 860 391 l 1
 504 0 l 1
 172 0 l 1
 335 836 l 2
 393 1135 583 1217 780 1217 c 0
 961 1217 1011 1117 1011 1028 c 0
EndSplineSet
EndChar
StartChar: uni0E1E
Encoding: 253 3614 153
Width: 1700
Flags: W
HStem: 0 21G<337 665.5 1216.72 1534.89> 753 146<376.305 474.428> 1048 177<390.353 590.109>
VStem: 224 149<901.874 1031.41> 528 299<913.357 1044.13>
Fore
224 926 m 0
 224 989 278 1225 552 1225 c 0
 654 1225 827 1191 827 954 c 0
 827 918 823 877 814 830 c 2
 751 505 l 1
 1061 1064 l 1
 1220 1064 l 1
 1318 500 l 1
 1455 1204 l 1
 1765 1204 l 1
 1531 0 l 1
 1222 0 l 1
 1053 640 l 25
 653 0 l 1
 337 0 l 1
 486 767 l 1
 462 758 436 753 407 753 c 0
 319 753 224 823 224 926 c 0
466 1048 m 0
 413 1048 373 1001 373 957 c 0
 373 921 401 899 436 899 c 8
 485 899 528 941 528 987 c 0
 528 1023 503 1048 466 1048 c 0
EndSplineSet
EndChar
StartChar: uni0E1F
Encoding: 254 3615 154
Width: 1700
Flags: W
HStem: 0 21G<337 665.5 1216.72 1534.89> 753 146<376.305 474.428> 1048 177<390.353 590.109>
VStem: 224 149<901.874 1031.41> 528 299<913.357 1044.13>
AnchorPoint: "AboveBase" 1353 1284 basechar 0
Fore
224 926 m 0
 224 989 278 1225 552 1225 c 0
 654 1225 827 1191 827 954 c 0
 827 918 823 877 814 830 c 2
 751 505 l 1
 1061 1064 l 1
 1220 1064 l 1
 1318 500 l 1
 1540 1639 l 1
 1850 1639 l 1
 1531 0 l 1
 1222 0 l 1
 1053 640 l 25
 653 0 l 1
 337 0 l 1
 486 767 l 1
 462 758 436 753 407 753 c 0
 319 753 224 823 224 926 c 0
466 1048 m 0
 413 1048 373 1001 373 957 c 0
 373 921 401 899 436 899 c 8
 485 899 528 941 528 987 c 0
 528 1023 503 1048 466 1048 c 0
EndSplineSet
EndChar
StartChar: uni0E20
Encoding: 255 3616 155
Width: 1550
Flags: W
HStem: -13 192<298.087 432.798> 328 178<306.737 437> 986 237<910.396 1132.99>
VStem: 99 194<133.772 312.163> 1052 310<59.2097 810.951>
Fore
356 179 m 0
 409 179 448 228 448 267 c 0
 448 301 422 328 384 328 c 8
 332 328 293 284 293 240 c 0
 293 204 321 179 356 179 c 0
437 506 m 1
 447 545 466 675 585 735 c 1
 396 812 l 1
 449 1088 l 1
 654 1210 1022 1223 1044 1223 c 0
 1243 1223 1378 1183 1449 1104 c 0
 1501 1043 1528 973 1528 892 c 0
 1528 866 1525 840 1520 812 c 2
 1362 0 l 1
 1052 0 l 1
 1207 796 l 2
 1208 800 1208 804 1208 808 c 0
 1208 865 1153 986 984 986 c 0
 959 986 824 983 733 938 c 1
 934 837 l 1
 894 635 l 1
 829 616 757 533 746 479 c 2
 709 290 l 2
 662 48 442 -13 334 -13 c 0
 151 -13 99 86 99 180 c 0
 99 365 254 506 391 506 c 2
 437 506 l 1
EndSplineSet
EndChar
StartChar: uni0E21
Encoding: 256 3617 156
Width: 1560
Flags: W
HStem: -11 207<372.748 520.906> 364 215<385.908 514> 752 146<438.514 539.067> 1047 178<453.783 691.852>
VStem: 148 218<203.137 343.426> 288 148<900.456 1030.79> 591 301<912.408 1042.06>
Fore
529 1047 m 0xf6
 480 1047 436 1003 436 956 c 0
 436 920 464 898 499 898 c 8
 549 898 591 942 591 985 c 0
 591 1022 564 1047 529 1047 c 0xf6
288 928 m 0
 288 1030 374 1225 601 1225 c 0
 795 1225 892 1135 892 954 c 0
 892 914 888 869 878 820 c 2
 824 541 l 1
 943 504 1048 443 1138 356 c 1
 1303 1204 l 1
 1609 1204 l 1
 1375 0 l 1
 1064 0 l 1
 1017 165 918 245 777 296 c 1
 771 266 l 2
 743 121 595 -11 398 -11 c 0
 237 -11 148 74 148 212 c 0xfa
 148 472 399 579 514 579 c 1
 550 766 l 1
 531 757 500 752 457 752 c 0
 399 752 288 806 288 928 c 0
470 364 m 0
 410 364 366 310 366 263 c 0
 366 222 397 196 438 196 c 8
 496 196 541 247 541 295 c 0
 541 333 514 364 470 364 c 0
EndSplineSet
EndChar
StartChar: uni0E22
Encoding: 257 3618 157
Width: 1470
Flags: W
HStem: 0 222<505 1003> 447 200<634.234 811> 749 149<651.426 789.288> 1048 175<663.295 799.331>
VStem: 288 361<786.169 979.828> 803 151<911.661 1045.19>
Fore
741 1048 m 0
 688 1048 649 1000 649 958 c 0
 649 924 674 898 713 898 c 8
 758 898 803 938 803 986 c 0
 803 1023 776 1048 741 1048 c 0
485 540 m 1
 398 569 288 640 288 791 c 0
 288 918 334 1010 431 1110 c 0
 503 1185 600 1223 717 1223 c 0
 913 1223 954 1115 954 1028 c 0
 954 839 785 749 656 749 c 0
 614 749 572 773 557 789 c 1
 557 786 556 783 556 780 c 0
 556 689 741 647 833 647 c 2
 850 647 l 1
 811 447 l 1
 782 447 l 2
 604 447 535 378 505 222 c 1
 1003 222 l 1
 1194 1204 l 1
 1509 1204 l 1
 1275 0 l 1
 153 0 l 1
 199 237 l 2
 245 475 423 533 485 540 c 1
EndSplineSet
EndChar
StartChar: uni0E23
Encoding: 258 3619 158
Width: 1190
Flags: W
HStem: -12 191<630.955 767.259> 328 177<641.447 778.767> 984 241<640.556 1180.79>
VStem: 426 200<182.013 312.986> 801 324<564.217 699.807>
Fore
426 198 m 0
 426 370 580 505 734 505 c 2
 790 505 l 1
 799 550 l 2
 800 558 801 565 801 572 c 0
 801 626 757 664 670 686 c 2
 291 782 l 1
 350 1088 l 1
 476 1136 724 1225 956 1225 c 0
 1155 1225 1294 1191 1371 1122 c 1
 1137 858 l 1
 1129 954 1024 984 913 984 c 0
 768 984 688 960 635 938 c 1
 1018 828 l 2
 1089 807 1125 750 1125 656 c 0
 1125 626 1121 593 1114 556 c 2
 1070 330 l 2
 1026 102 836 -12 675 -12 c 0
 490 -12 426 89 426 198 c 0
689 179 m 0
 742 179 781 227 781 267 c 0
 781 301 755 328 717 328 c 8
 675 328 626 294 626 240 c 0
 626 206 650 179 689 179 c 0
EndSplineSet
EndChar
StartChar: uni0E24
Encoding: 259 3620 159
Width: 1410
Flags: W
HStem: -11 196<332.985 551.713> 985 238<652.119 985.565>
VStem: 160 254<189.584 306.744> 569 206<199.855 330.177> 830 310<-350.737 818.683>
Fore
775 297 m 0
 775 130 626 -11 409 -11 c 0
 250 -11 160 78 160 225 c 0
 160 250 163 277 168 306 c 2
 197 455 l 2
 219 564 319 683 425 735 c 1
 234 812 l 1
 287 1088 l 1
 444 1156 677 1223 919 1223 c 0
 1074 1223 1196 1195 1285 1138 c 0
 1355 1094 1390 1022 1390 922 c 0
 1390 888 1386 852 1378 812 c 2
 1140 -410 l 1
 830 -410 l 1
 1065 796 l 2
 1066 801 1067 807 1067 813 c 0
 1067 881 997 985 815 985 c 0
 730 985 624 964 572 938 c 1
 757 847 l 1
 720 661 l 1
 564 609 535 551 522 509 c 1
 578 509 l 2
 708 509 775 410 775 297 c 0
477 185 m 0
 521 185 569 225 569 275 c 0
 569 311 542 334 507 334 c 8
 464 334 414 297 414 246 c 0
 414 210 442 185 477 185 c 0
EndSplineSet
EndChar
StartChar: uni0E25
Encoding: 260 3621 160
Width: 1460
Flags: W
HStem: -12 180<356.114 585.679> 606 254<553.714 779.514> 979 242<614.27 1029.81>
VStem: 177 269<173.118 290.905> 601 196<183.477 314.013> 1110 326<768.064 906.503>
Fore
509 168 m 0
 557 168 601 209 601 260 c 0
 601 295 574 317 539 317 c 8
 492 317 446 280 446 230 c 0
 446 194 472 168 509 168 c 0
797 278 m 0
 797 149 697 -12 435 -12 c 0
 264 -12 177 96 177 241 c 0
 177 266 180 292 185 319 c 2
 219 494 l 2
 261 710 469 860 664 860 c 0
 881 860 1015 722 1078 588 c 1
 1103 716 l 2
 1108 741 1110 764 1110 786 c 0
 1110 905 1033 979 808 979 c 0
 667 979 488 951 355 836 c 1
 359 1082 l 1
 511 1154 716 1221 937 1221 c 0
 1084 1221 1209 1188 1312 1122 c 0
 1395 1068 1436 986 1436 876 c 0
 1436 843 1432 808 1425 770 c 2
 1275 0 l 1
 966 0 l 1
 927 355 859 606 649 606 c 0
 587 606 539 572 522 483 c 1
 588 483 l 2
 732 483 797 386 797 278 c 0
EndSplineSet
EndChar
StartChar: uni0E26
Encoding: 261 3622 161
Width: 1570
Flags: W
HStem: -12 191<297.806 433.853> 328 178<307.056 437> 983 240<738.553 1169.24>
VStem: 93 200<181.754 313.64> 972 310<-350.737 818.683>
Fore
356 179 m 0
 409 179 448 228 448 267 c 0
 448 301 422 328 384 328 c 8
 332 328 293 284 293 240 c 0
 293 204 321 179 356 179 c 0
93 200 m 0
 93 352 239 506 391 506 c 2
 437 506 l 1
 461 627 507 695 585 735 c 1
 396 812 l 1
 449 1088 l 1
 763 1209 883 1223 1040 1223 c 0
 1201 1223 1328 1190 1422 1126 c 0
 1494 1075 1530 1002 1530 905 c 0
 1530 876 1526 845 1520 812 c 2
 1282 -410 l 1
 972 -410 l 1
 1207 796 l 2
 1210 813 1212 828 1212 842 c 0
 1212 954 1113 983 982 983 c 0
 850 983 779 960 733 938 c 1
 934 837 l 1
 894 635 l 1
 829 616 757 533 746 479 c 2
 709 290 l 2
 665 58 445 -12 335 -12 c 0
 143 -12 93 105 93 200 c 0
EndSplineSet
EndChar
StartChar: uni0E27
Encoding: 262 3623 162
Width: 1270
Flags: W
HStem: -11 196<709.005 844.367> 334 183<717.646 857.767> 981 240<526.769 856.714>
VStem: 515 190<189.076 320.622> 920 327<774.365 918.631>
Fore
768 185 m 0
 821 185 860 233 860 273 c 0
 860 307 834 334 796 334 c 8
 754 334 705 300 705 246 c 0
 705 212 729 185 768 185 c 0
515 203 m 0
 515 383 691 517 834 517 c 2
 874 517 l 1
 913 717 l 2
 918 741 920 763 920 784 c 0
 920 942 815 981 672 981 c 0
 489 981 339 940 244 837 c 1
 249 1083 l 1
 457 1211 633 1221 721 1221 c 0
 901 1221 1040 1187 1137 1120 c 0
 1210 1069 1247 990 1247 884 c 0
 1247 849 1243 812 1235 771 c 2
 1146 316 l 2
 1095 54 893 -11 750 -11 c 0
 606 -11 515 72 515 203 c 0
EndSplineSet
EndChar
StartChar: uni0E28
Encoding: 263 3624 163
Width: 1580
Flags: W
HStem: 0 21G<173 498 1076 1390.9> 390 127<815.438 954.63> 666 139<828.536 965.237> 984 239<774.91 1150.16>
VStem: 968 146<531.808 662.797>
Fore
1114 628 m 0
 1114 487 965 390 859 390 c 0
 798 390 738 406 708 453 c 1
 547 251 512 142 484 0 c 1
 173 0 l 1
 299 755 l 2
 322 875 396 981 513 1073 c 0
 638 1173 812 1223 1031 1223 c 0
 1191 1223 1304 1197 1368 1144 c 1
 1490 1278 l 1
 1681 1129 l 1
 1506 985 l 1
 1528 937 1539 885 1539 828 c 0
 1539 796 1536 763 1529 729 c 2
 1387 0 l 1
 1076 0 l 1
 1219 738 l 2
 1223 754 1225 770 1227 786 c 1
 1157 744 l 1
 1020 828 l 1
 1159 930 l 1
 1137 966 1077 984 980 984 c 0
 725 984 635 835 615 735 c 2
 583 577 l 1
 654 692 783 805 930 805 c 0
 1022 805 1114 735 1114 628 c 0
905 666 m 0
 852 666 813 619 813 574 c 0
 813 539 840 517 875 517 c 8
 917 517 968 553 968 605 c 0
 968 641 942 666 905 666 c 0
EndSplineSet
EndChar
StartChar: uni0E29
Encoding: 264 3625 164
Width: 1620
Flags: W
HStem: 0 222<694 1157> 410 175<972.101 1089.69> 699 119<978.962 1094.82> 744 146<372.462 477.343> 1039 176<384.437 608.459>
VStem: 221 149<893.724 1022.13> 525 300<904.346 1035.45> 849 122<586.698 691.383> 1095 141<624.699 697.196>
Fore
462 1039 m 0xdf80
 407 1039 370 989 370 949 c 0
 370 913 397 890 432 890 c 8
 475 890 525 927 525 978 c 0
 525 1012 501 1039 462 1039 c 0xdf80
849 607 m 0
 849 727 961 818 1073 818 c 0xef80
 1124 818 1236 798 1236 652 c 0
 1236 643 1236 634 1235 624 c 9
 1348 1204 l 1
 1662 1204 l 1
 1561 682 l 17
 1609 711 1655 751 1698 801 c 1
 1688 552 l 1
 1640 516 1584 487 1519 466 c 9
 1428 0 l 1
 336 0 l 1
 483 755 l 1
 468 748 442 744 404 744 c 0
 291 744 221 820 221 918 c 0
 221 1005 285 1215 544 1215 c 0
 694 1215 825 1152 825 949 c 0
 825 914 821 875 813 831 c 2
 694 222 l 1
 1157 222 l 1
 1194 410 l 17
 1013 410 849 466 849 607 c 0
1047 699 m 0
 1000 699 971 658 971 631 c 0
 971 604 994 585 1025 585 c 0
 1065 585 1095 622 1095 653 c 0
 1095 679 1075 699 1047 699 c 0
EndSplineSet
EndChar
StartChar: uni0E2A
Encoding: 265 3626 165
Width: 1490
Flags: W
HStem: -12 191<379.541 607.509> 609 254<612.903 784.283> 983 240<594.828 1056.15>
VStem: 197 271<184.32 300.667> 623 197<193.453 323.998> 1135 322<765.894 901.5>
Fore
531 179 m 0
 586 179 623 229 623 269 c 0
 623 305 596 328 561 328 c 8
 518 328 468 291 468 240 c 0
 468 206 492 179 531 179 c 0
820 293 m 0
 820 171 723 -12 454 -12 c 0
 289 -12 197 92 197 241 c 0
 197 267 200 293 205 321 c 2
 240 499 l 2
 274 674 456 863 679 863 c 0
 800 863 894 834 960 777 c 0
 1026 720 1074 658 1102 591 c 1
 1127 719 l 2
 1133 747 1135 769 1135 786 c 0
 1135 799 1134 808 1130 814 c 1
 1048 759 l 1
 954 842 l 1
 1068 924 l 1
 1039 967 996 983 829 983 c 0
 649 983 498 927 375 839 c 1
 380 1085 l 1
 566 1192 748 1223 903 1223 c 0
 1140 1223 1237 1197 1293 1158 c 1
 1376 1276 l 1
 1575 1134 l 1
 1430 1012 l 1
 1448 973 1457 927 1457 876 c 0
 1457 844 1453 810 1446 773 c 2
 1296 0 l 1
 986 0 l 1
 953 290 853 609 682 609 c 0
 655 609 596 608 546 503 c 1
 622 503 l 2
 756 503 820 396 820 293 c 0
EndSplineSet
EndChar
StartChar: uni0E2B
Encoding: 266 3627 166
Width: 1620
Flags: W
HStem: 0 21G<335 697.5 1136 1449.89> 756 146<375.138 482.856> 1051 175<389.355 590.496> 1066 158<1295.39 1454.53>
VStem: 222 150<904.493 1034.76> 527 297<916.44 1045.41> 1081 184<882.966 1036.04> 1462 175<924.594 1058.29>
Fore
1081 919 m 0xef
 1081 1061 1228 1224 1412 1224 c 0xdf
 1544 1224 1637 1132 1637 1007 c 0
 1637 977 1632 874 1529 783 c 1
 1555 741 1567 696 1567 649 c 0
 1567 632 1566 614 1562 596 c 2
 1446 0 l 1
 1136 0 l 1
 1264 656 l 2
 1268 678 1261 693 1242 701 c 1
 1090 506 720 234 675 0 c 1
 335 0 l 1
 483 760 l 1
 483 760 415 756 405 756 c 0
 321 756 222 824 222 929 c 0
 222 1021 311 1226 536 1226 c 0
 656 1226 824 1179 824 946 c 0
 824 910 820 869 811 824 c 2
 756 540 l 1
 821 601 1070 743 1108 812 c 1
 1093 834 1081 876 1081 919 c 0xef
1382 1066 m 0
 1316 1066 1265 1006 1265 952 c 0
 1265 909 1296 876 1344 876 c 8
 1399 876 1462 923 1462 988 c 0
 1462 1035 1428 1066 1382 1066 c 0
464 1051 m 0xef
 414 1051 372 1007 372 959 c 0
 372 924 399 902 434 902 c 8
 478 902 527 940 527 989 c 0
 527 1024 504 1051 464 1051 c 0xef
EndSplineSet
EndChar
StartChar: uni0E2C
Encoding: 267 3628 167
Width: 1700
Flags: W
HStem: 0 21G<337 666.75 1215.43 1534.88> 753 146<376.342 474.415> 1048 176<387.144 592.109> 1323 251<1382.4 1602.44>
VStem: 224 149<901.675 1005.17> 528 299<913.841 1044.59> 1110 255<1177.89 1306.96> 1519 261<1259.3 1392.25>
AnchorPoint: "AboveBase" 1024 1284 basechar 0
Fore
1110 1193 m 0
 1110 1360 1263 1574 1517 1574 c 0
 1688 1574 1780 1463 1780 1322 c 0
 1780 1301 1778 1280 1774 1258 c 1
 1816 1281 1863 1317 1916 1366 c 1
 1893 1107 l 1
 1838 1070 1783 1040 1728 1016 c 1
 1531 0 l 1
 1222 0 l 1
 1038 560 l 25
 653 0 l 1
 337 0 l 1
 486 767 l 1
 462 758 436 753 406 753 c 0
 322 753 224 821 224 926 c 0
 224 970 246 1065 325 1146 c 0
 376 1198 454 1224 556 1224 c 0
 658 1224 827 1190 827 956 c 0
 827 919 823 877 814 830 c 2
 745 475 l 1
 1028 894 l 1
 1187 894 l 1
 1312 470 l 1
 1403 936 l 1
 1232 936 1110 1047 1110 1193 c 0
466 1048 m 0
 413 1048 373 1001 373 957 c 0
 373 921 401 899 436 899 c 8
 485 899 528 941 528 987 c 0
 528 1023 503 1048 466 1048 c 0
1461 1323 m 0
 1417 1323 1365 1286 1365 1233 c 0
 1365 1197 1393 1174 1428 1174 c 0
 1471 1174 1519 1210 1519 1262 c 0
 1519 1297 1494 1323 1461 1323 c 0
EndSplineSet
EndChar
StartChar: uni0E2D
Encoding: 268 3629 168
Width: 1420
Flags: W
HStem: 0 222<508 976> 353 146<587.102 725.479> 648 178<601.552 736.647> 986 240<552.019 986.19>
VStem: 740 169<513.786 645.205> 1079 323<778.635 903.218>
Fore
677 648 m 0
 631 648 585 606 585 558 c 0
 585 522 612 499 649 499 c 8
 691 499 740 533 740 588 c 0
 740 624 713 648 677 648 c 0
909 622 m 0
 909 437 729 353 621 353 c 0
 577 353 549 358 536 367 c 9
 508 222 l 1
 976 222 l 1
 1073 722 l 2
 1077 744 1079 764 1079 782 c 0
 1079 929 951 986 773 986 c 0
 631 986 456 956 321 842 c 1
 325 1088 l 1
 475 1167 650 1226 849 1226 c 0
 1029 1226 1173 1193 1279 1129 c 0
 1361 1079 1402 999 1402 888 c 0
 1402 854 1398 816 1390 776 c 2
 1239 0 l 1
 150 0 l 1
 232 421 l 2
 258 558 369 826 671 826 c 0
 859 826 909 719 909 622 c 0
EndSplineSet
EndChar
StartChar: uni0E2E
Encoding: 269 3630 169
Width: 1460
Flags: W
HStem: 0 222<530 1002> 257 131<586.862 725.837> 537 175<601.642 728.189> 736 179<614.597 946.483> 1020 206<677.466 944.732>
VStem: 319 295<850.743 995.938> 739 152<403.553 563.854>
Fore
676 537 m 0
 621 537 585 488 585 447 c 0
 585 414 610 388 648 388 c 8
 698 388 739 432 739 476 c 0
 739 510 715 537 676 537 c 0
891 536 m 0
 891 313 714 257 606 257 c 0
 575 257 553 260 539 266 c 1
 530 222 l 1
 1002 222 l 1
 1099 722 l 2
 1106 760 1111 794 1111 822 c 0
 1111 827 1110 833 1110 838 c 1
 1050 806 856 736 686 736 c 0
 522 736 319 781 319 910 c 0
 319 966 357 1091 525 1156 c 0
 647 1205 762 1226 888 1226 c 0
 1045 1226 1167 1206 1258 1166 c 1
 1315 1207 1367 1257 1416 1316 c 1
 1537 1094 l 1
 1403 1007 l 1
 1418 969 1426 927 1426 879 c 0
 1426 847 1422 813 1415 776 c 2
 1264 0 l 1
 170 0 l 1
 230 310 l 2
 290 615 535 712 677 712 c 0
 716 712 777 706 842 658 c 0
 875 633 891 593 891 536 c 0
815 1020 m 0
 782 1020 614 1013 614 953 c 0
 614 930 643 915 736 915 c 0
 838 915 934 952 1003 984 c 1
 967 998 880 1020 815 1020 c 0
EndSplineSet
EndChar
StartChar: uni0E2F
Encoding: 270 3631 170
Width: 1410
Flags: W
HStem: 0 21G<877 1190.89> 488 253<558.687 787.531> 1058 157<443.264 577.163>
VStem: 582 163<921.592 1054.15>
Back
1217 1509.5 m 25
 1217 -110.5 l 1
1260 1207.5 m 25
 1260 -412.5 l 1
1411 1327.5 m 25
 1410 -292.5 l 1
1324 1318.5 m 25
 1323 -301.5 l 1
1392 1276.5 m 25
 1391 -343.5 l 1
1310 1149.5 m 25
 1310 -470.5 l 1
EndSplineSet
Fore
520 1058 m 0
 467 1058 428 1010 428 969 c 0
 428 936 454 909 492 909 c 8
 538 909 582 947 582 997 c 0
 582 1033 557 1058 520 1058 c 0
745 1027 m 0
 745 854 609 783 521 783 c 1
 533 769 599 741 636 741 c 0
 707 741 901 769 1063 1161 c 1
 1397 1081 l 1
 1187 0 l 1
 877 0 l 1
 998 624 l 1
 963 581 810 488 580 488 c 0
 528 488 431 489 298 594 c 0
 231 648 199 719 199 806 c 0
 199 830 201 855 206 882 c 2
 220 951 l 2
 254 1126 415 1215 546 1215 c 0
 703 1215 745 1117 745 1027 c 0
EndSplineSet
EndChar
StartChar: uni0E30
Encoding: 271 3632 171
Width: 1160
Flags: W
HStem: 28 187<274.401 478.371> 328 128<268.877 383.202> 714 185<413.941 615.425> 1012 129<408.906 522.451>
VStem: 130 132<217.905 320.436> 269 132<899.531 1004.75> 385 136<251.973 327.55> 524 136<936.113 1000.22>
Fore
454 899 m 0xfd
 498 899 524 933 524 966 c 0
 524 990 508 1012 474 1012 c 0
 432 1012 401 974 401 943 c 0
 401 914 426 899 454 899 c 0xfd
660 988 m 0
 660 947 647 930 647 930 c 1
 739 939 991 1019 1144 1147 c 1
 1143 888 l 1
 966 770 673 714 534 714 c 0
 429 714 269 756 269 914 c 0
 269 1069 428 1141 503 1141 c 0
 601 1141 660 1064 660 988 c 0
314 215 m 0
 353 215 385 244 385 282 c 0xfb
 385 310 364 328 334 328 c 0
 296 328 262 294 262 258 c 0
 262 230 287 215 314 215 c 0
521 302 m 0
 521 262 507 245 507 245 c 1
 600 254 852 334 1005 462 c 1
 1003 203 l 1
 831 89 546 28 388 28 c 0
 231 28 130 107 130 232 c 0
 130 380 285 456 364 456 c 0
 459 456 521 380 521 302 c 0
EndSplineSet
EndChar
StartChar: uni0E31
Encoding: 272 3633 172
Width: 0
Flags: W
HStem: 1336 176<-220.463 -73.3799> 1625 119<-224.99 -108.891>
VStem: -364 132<1513.58 1617.78> -108 134<1540.01 1613.31>
AnchorPoint: "AboveMark" 194 2000 basemark 0
AnchorPoint: "AboveBase" -4 1284 mark 0
Fore
-180 1512 m 0
 -140 1512 -108 1542 -108 1578 c 0
 -108 1602 -123 1625 -157 1625 c 0
 -200 1625 -232 1587 -232 1556 c 0
 -232 1527 -208 1512 -180 1512 c 0
26 1590 m 0
 26 1547 11 1533 11 1533 c 1
 91 1540 356 1605 517 1740 c 1
 508 1491 l 1
 301 1355 -35 1336 -111 1336 c 0
 -288 1336 -364 1439 -364 1538 c 0
 -364 1662 -219 1744 -132 1744 c 0
 -34 1744 26 1667 26 1590 c 0
EndSplineSet
EndChar
StartChar: uni0E32
Encoding: 273 3634 173
Width: 1220
Flags: W
HStem: 0 21G<722 1036.9> 990 240<489.716 802.401>
VStem: 247 951<864 1067.14> 722 311<59.2929 739.565>
Fore
633 990 m 0xd0
 489 990 357 952 242 846 c 1
 247 1092 l 1
 455 1229 578 1230 680 1230 c 0
 1071 1230 1198 1103 1198 902 c 0xe0
 1198 864 1193 823 1185 780 c 2
 1033 0 l 1
 722 0 l 1
 863 726 l 2
 868 752 871 777 871 801 c 0
 871 906 816 990 633 990 c 0xd0
EndSplineSet
EndChar
StartChar: uni0E34
Encoding: 275 3636 175
Width: 0
Flags: W
HStem: 1430 148<-623 -442.181> 1683 159<-557.84 -253.362>
AnchorPoint: "AboveMark" 86 2000 basemark 0
AnchorPoint: "AboveBase" 64 1284 mark 0
Fore
-181 1536 m 1
 -234 1644 -274 1683 -399 1683 c 0
 -509 1683 -560 1653 -623 1578 c 1
 -579 1578 l 2
 -335 1578 -228 1548 -181 1536 c 1
-955 1414 m 1
 -924 1575 l 1
 -801 1743 -520 1842 -359 1842 c 0
 -110 1842 68 1673 152 1524 c 1
 78 1326 l 1
 -288 1427 -512 1430 -635 1430 c 0
 -752 1430 -894 1426 -955 1414 c 1
EndSplineSet
EndChar
StartChar: uni0E35
Encoding: 276 3637 176
Width: 0
Flags: W
HStem: 1430 148<-623 -442.181> 1683 159<-557.698 -250.17>
AnchorPoint: "AboveBase" 60 1284 mark 0
AnchorPoint: "AboveMark" 86 2000 basemark 0
Fore
-181 1536 m 1
 -234 1644 -274 1683 -399 1683 c 0
 -509 1683 -560 1653 -623 1578 c 1
 -579 1578 l 2
 -335 1578 -228 1548 -181 1536 c 1
-955 1414 m 1
 -924 1575 l 1
 -801 1744 -520 1842 -358 1842 c 0
 -253 1842 -154 1812 -61 1753 c 1
 -32 1903 l 1
 165 1903 l 1
 105 1596 l 1
 123 1572 138 1548 152 1524 c 1
 78 1326 l 1
 -288 1427 -512 1430 -635 1430 c 0
 -752 1430 -894 1426 -955 1414 c 1
EndSplineSet
EndChar
StartChar: uni0E36
Encoding: 277 3638 177
Width: 0
Flags: W
HStem: 1430 148<-623 -442.181> 1683 159<-557.84 -248.858> 1840 124<-21.4163 110.929>
VStem: 113 126<1713.32 1838.67>
AnchorPoint: "AboveBase" 63 1284 mark 0
AnchorPoint: "AboveMark" 86 2000 basemark 0
Fore
-181 1536 m 1xd0
 -234 1644 -274 1683 -399 1683 c 0
 -509 1683 -560 1653 -623 1578 c 1
 -579 1578 l 2
 -335 1578 -228 1548 -181 1536 c 1xd0
239 1811 m 0
 239 1734 186 1642 94 1604 c 1
 124 1565 144 1539 152 1524 c 1
 78 1326 l 1
 -288 1427 -512 1430 -635 1430 c 0
 -752 1430 -894 1426 -955 1414 c 1
 -924 1575 l 1
 -801 1743 -520 1842 -359 1842 c 0xd0
 -282 1842 -208 1826 -137 1794 c 1
 -121 1879 -21 1964 79 1964 c 0xb0
 177 1964 239 1897 239 1811 c 0
29 1702 m 0
 70 1702 113 1736 113 1784 c 0
 113 1815 92 1840 56 1840 c 0xb0
 13 1840 -33 1805 -33 1758 c 0
 -33 1726 -8 1702 29 1702 c 0
EndSplineSet
EndChar
StartChar: uni0E37
Encoding: 278 3639 178
Width: 0
Flags: W
HStem: 1430 148<-623 -442.181> 1683 159<-557.698 -289.785>
AnchorPoint: "AboveBase" 64 1284 mark 0
AnchorPoint: "AboveMark" -32 2000 basemark 0
Fore
-181 1536 m 1
 -234 1644 -274 1683 -399 1683 c 0
 -509 1683 -560 1653 -623 1578 c 1
 -579 1578 l 2
 -335 1578 -228 1548 -181 1536 c 1
-955 1414 m 1
 -924 1575 l 1
 -801 1744 -520 1842 -358 1842 c 0
 -337 1842 -314 1841 -293 1838 c 1
 -275 1928 l 1
 -80 1928 l 1
 -109 1780 l 1
 -89 1770 -67 1758 -48 1744 c 1
 -12 1927 l 1
 171 1927 l 1
 106 1595 l 1
 124 1572 138 1548 152 1524 c 1
 78 1326 l 1
 -288 1427 -512 1430 -635 1430 c 0
 -752 1430 -894 1426 -955 1414 c 1
EndSplineSet
EndChar
StartChar: uni0E38
Encoding: 279 3640 179
Width: 0
Flags: W
HStem: -512 434<-486 -286.175> -412 102<-540.174 -465.436> -204 126<-536.175 -357.007>
VStem: -641 100<-308.732 -208.957> -427 232<-320.891 -204.829>
AnchorPoint: "BelowBase" -150 -85 mark 0
Fore
-641 -281 m 0x58
 -641 -208 -573 -78 -421 -78 c 0
 -287 -78 -195 -180 -195 -316 c 0
 -195 -336 -197 -357 -201 -378 c 2
 -228 -512 l 1
 -486 -512 l 1x98
 -465 -405 l 1
 -476 -410 -492 -412 -515 -412 c 0
 -581 -412 -641 -354 -641 -281 c 0x58
-493 -310 m 0x78
 -462 -310 -427 -283 -427 -247 c 0
 -427 -222 -445 -204 -473 -204 c 8
 -514 -204 -541 -238 -541 -266 c 0
 -541 -291 -521 -310 -493 -310 c 0x78
EndSplineSet
Substitution2: "Thai Sara U Mai Ek Reordering" uni0E48.low
Substitution2: "Thai Sara U Mai Tho Reordering" uni0E49.low
Substitution2: "Thai Sara U Mai Tri Reordering" uni0E4A.low
Substitution2: "Thai Sara U Mai Chattawa Reordering" uni0E4B.low
Substitution2: "Thai Sara U Thanthakhat Reordering" uni0E4C.low
Substitution2: "Thai Sara U Nikhahit Reordering" uni0E4D
EndChar
StartChar: uni0E39
Encoding: 280 3641 180
Width: 0
Flags: W
HStem: -560 151<-604 -522> -560 490<-889 -679.852 -457 -289> -404 102<-932.782 -857.544> -196 126<-929.989 -749.507>
VStem: -1039 106<-300.431 -201.512> -819 229<-312.563 -196.041>
AnchorPoint: "BelowBase" -150 -85 mark 0
Fore
-1039 -272 m 0x2c
 -1039 -202 -969 -70 -814 -70 c 0x4c
 -680 -70 -590 -170 -590 -306 c 0
 -590 -327 -592 -348 -596 -370 c 2
 -604 -409 l 1
 -522 -409 l 1x8c
 -457 -76 l 1
 -195 -76 l 1
 -289 -560 l 1
 -889 -560 l 1x4c
 -857 -397 l 1
 -868 -402 -885 -404 -908 -404 c 0
 -974 -404 -1039 -346 -1039 -272 c 0x2c
-886 -302 m 0x3c
 -847 -302 -819 -268 -819 -240 c 0
 -819 -215 -837 -196 -865 -196 c 8
 -897 -196 -933 -221 -933 -258 c 0
 -933 -283 -914 -302 -886 -302 c 0x3c
EndSplineSet
Substitution2: "Thai Sara UU Mai Ek Reordering" uni0E48.low
Substitution2: "Thai Sara UU Mai Tho Reordering" uni0E49.low
Substitution2: "Thai Sara UU Mai Tri Reordering" uni0E4A.low
Substitution2: "Thai Sara UU Mai Chattawa Reordering" uni0E4B.low
Substitution2: "Thai Sara UU Thanthakhat Reordering" uni0E4C.low
Substitution2: "Thai Sara UU Nikhahit Reordering" uni0E4D
EndChar
StartChar: uni0E3A
Encoding: 281 3642 181
Width: 0
Flags: W
HStem: -433 330<-414.745 -240.578>
VStem: -494 334<-354.326 -180.171>
AnchorPoint: "BelowBase" -175 -85 mark 0
Fore
-494 -300 m 0
 -494 -204 -406 -103 -296 -103 c 16
 -215 -103 -160 -160 -160 -236 c 0
 -160 -337 -255 -433 -360 -433 c 0
 -443 -433 -494 -374 -494 -300 c 0
EndSplineSet
Substitution2: "Thai Phinthu Maitaikhu Reordering" uni0E47
Substitution2: "Thai Phinthu Mai Ek Reordering" uni0E48.low
Substitution2: "Thai Phinthu Mai Tho Reordering" uni0E49.low
Substitution2: "Thai Phinthu Mai Tri Reordering" uni0E4A.low
Substitution2: "Thai Phinthu Mai Chattawa Reordering" uni0E4B.low
Substitution2: "Thai Phinthu Thanthakhat Reordering" uni0E4C.low
Substitution2: "Thai Phinthu Nikhahit Reordering" uni0E4D
EndChar
StartChar: uni0E3F
Encoding: 283 3647 182
Width: 1561
Flags: W
HStem: 1211 20G<812 902.139>
VStem: 1126 384<448.271 610.807> 1184 395<992.679 1203.98>
Fore
1579 1194 m 0xa0
 1579 1069 1529 876 1312 799 c 1
 1435 761 1510 666 1510 522 c 0xc0
 1510 493 1506 461 1500 428 c 0
 1440 117 1191 7 860 0 c 1
 834 -136 l 1
 640 -136 l 1
 666 0 l 1
 188 0 l 1
 478 1493 l 1
 956 1493 l 1
 976 1593 l 1
 1170 1593 l 1
 1150 1491 l 1
 1407 1478 1579 1407 1579 1194 c 0xa0
1039 922 m 17
 1049 927 1184 959 1184 1111 c 0xa0
 1184 1172 1151 1209 1098 1222 c 1
 1039 922 l 17
912 266 m 1
 1103 287 1126 456 1126 509 c 0xc0
 1126 593 1075 637 986 649 c 1
 912 266 l 1
717 262 m 1
 793 653 l 1
 700 653 l 1
 624 262 l 1
 717 262 l 1
845 915 m 1
 906 1231 l 1
 812 1231 l 1
 751 915 l 1
 845 915 l 1
EndSplineSet
EndChar
StartChar: uni0E40
Encoding: 284 3648 183
Width: 850
Flags: W
HStem: -11 207<452.501 641.159> 1186 20G<412.112 724>
VStem: 238 266<201.999 317.831> 658 208<211.064 342.395>
Fore
866 314 m 0
 866 138 694 -11 501 -11 c 0
 399 -11 238 31 238 244 c 0
 238 275 242 309 249 347 c 2
 416 1206 l 1
 724 1206 l 1
 592 523 l 1
 632 523 l 2
 735 523 801 494 832 440 c 0
 855 399 866 357 866 314 c 0
566 196 m 0
 619 196 658 245 658 285 c 0
 658 318 634 345 596 345 c 8
 545 345 504 302 504 257 c 0
 504 224 527 196 566 196 c 0
EndSplineSet
EndChar
StartChar: uni0E41
Encoding: 285 3649 184
Width: 1570
Flags: W
HStem: -10 206<425.001 640.081 1145 1360.08> 345 178<593.617 655.464 1313.62 1375.46> 1186 20G<412.112 724 1132.11 1444>
VStem: 238 266<199.795 318.4> 658 208<213.827 342.395> 958 266<199.795 318.4> 1378 208<213.827 342.395>
Back
258 282 m 4
 258 360 285.5 426.5 340.5 481.5 c 0
 395.5 536.5 462 564 540 564 c 0
 618 564 684.5 536.5 739.5 481.5 c 0
 794.5 426.5 822 360 822 282 c 0
 822 204 794.5 137.5 739.5 82.5 c 0
 684.5 27.5 618 0 540 0 c 0
 462 0 395.5 27.5 340.5 82.5 c 0
 285.5 137.5 258 204 258 282 c 4
461 282 m 0
 461 303.333 468.667 321.667 484 337 c 0
 499.333 352.333 517.667 360 539 360 c 0
 560.333 360 578.667 352.333 594 337 c 0
 609.333 321.667 617 303.333 617 282 c 0
 617 260.667 609.333 242.333 594 227 c 0
 578.667 211.667 560.333 204 539 204 c 0
 517.667 204 499.333 211.667 484 227 c 0
 468.667 242.333 461 260.667 461 282 c 0
EndSplineSet
Fore
1586 314 m 0
 1586 152 1434 -10 1216 -10 c 0
 1064 -10 958 77 958 238 c 0
 958 271 962 307 969 347 c 2
 1136 1206 l 1
 1444 1206 l 1
 1312 523 l 1
 1352 523 l 2
 1455 523 1521 494 1552 440 c 0
 1575 399 1586 357 1586 314 c 0
1286 196 m 0
 1339 196 1378 245 1378 285 c 0
 1378 318 1354 345 1316 345 c 8
 1265 345 1224 302 1224 257 c 0
 1224 224 1247 196 1286 196 c 0
866 314 m 0
 866 152 714 -10 496 -10 c 0
 344 -10 238 77 238 238 c 0
 238 271 242 307 249 347 c 2
 416 1206 l 1
 724 1206 l 1
 592 523 l 1
 632 523 l 2
 735 523 801 494 832 440 c 0
 855 399 866 357 866 314 c 0
566 196 m 0
 619 196 658 245 658 285 c 0
 658 318 634 345 596 345 c 8
 545 345 504 302 504 257 c 0
 504 224 527 196 566 196 c 0
EndSplineSet
EndChar
StartChar: uni0E42
Encoding: 286 3650 185
Width: 1090
Flags: W
HStem: -10 206<666.041 883.573> 1817 241<607.556 1060.97>
VStem: 479 268<199.217 318.37> 696 315<1396.56 1530.27> 901 208<213.594 340.628>
Fore
810 196 m 0xe8
 861 196 901 243 901 285 c 0
 901 318 877 345 839 345 c 8
 788 345 747 302 747 257 c 0
 747 224 771 196 810 196 c 0xe8
1109 314 m 0
 1109 152 957 -10 739 -10 c 0
 583 -10 479 81 479 244 c 0xe8
 479 271 482 300 488 331 c 2
 694 1388 l 2
 695 1395 696 1402 696 1408 c 0
 696 1460 653 1498 566 1524 c 2
 258 1615 l 1
 317 1921 l 1
 443 1969 691 2058 923 2058 c 0
 1122 2058 1260 2023 1338 1954 c 1
 1104 1691 l 1
 1096 1799 974 1817 880 1817 c 0
 735 1817 655 1793 602 1771 c 1
 905 1661 l 2
 975 1636 1011 1576 1011 1483 c 0xd0
 1011 1455 1008 1423 1001 1389 c 2
 833 523 l 1
 875 523 l 2
 1063 523 1109 419 1109 314 c 0
EndSplineSet
EndChar
StartChar: uni0E43
Encoding: 287 3651 186
Width: 1040
Flags: W
HStem: -10 206<565.541 783.573> 1408 160<430.455 568.353> 1717 335<485 700.79>
VStem: 262 165<1571.79 1700.67> 379 268<199.333 318.37> 583 173<1584.51 1714.68> 801 208<213.594 340.628> 832 318<1609.49 1756.61>
Fore
710 196 m 0xea
 761 196 801 243 801 285 c 0
 801 318 777 345 739 345 c 8
 688 345 647 302 647 257 c 0
 647 224 671 196 710 196 c 0xea
262 1597 m 0xf5
 262 1847 505 2052 780 2052 c 0
 1076 2052 1150 1812 1150 1694 c 0xf5
 1150 1645 1145 1544 1033 1406 c 2
 955 1310 l 2
 911 1255 858 1169 840 1074 c 2
 733 523 l 1
 775 523 l 2
 963 523 1009 419 1009 314 c 0
 1009 152 857 -10 639 -10 c 0
 482 -10 379 82 379 244 c 0xea
 379 271 382 300 388 331 c 2
 546 1142 l 2
 562 1226 612 1304 655 1352 c 2
 724 1432 l 2
 816 1531 832 1603 832 1646 c 0
 832 1713 794 1780 705 1804 c 1
 742 1779 756 1749 756 1704 c 0
 756 1536 622 1408 461 1408 c 0
 357 1408 262 1464 262 1597 c 0xf5
491 1568 m 0
 536 1568 583 1608 583 1659 c 0
 583 1695 555 1717 522 1717 c 0
 465 1717 427 1668 427 1628 c 0
 427 1594 453 1568 491 1568 c 0
EndSplineSet
EndChar
StartChar: uni0E44
Encoding: 288 3652 187
Width: 1100
Flags: W
HStem: -11 207<682.541 875.072>
VStem: 469 268<201.87 318.38> 891 208<211.025 340.628>
Fore
800 196 m 0
 851 196 891 243 891 285 c 0
 891 318 867 345 829 345 c 8
 778 345 737 302 737 257 c 0
 737 224 761 196 800 196 c 0
1099 314 m 0
 1099 139 929 -11 734 -11 c 0
 626 -11 469 42 469 241 c 0
 469 268 472 298 478 331 c 2
 626 1092 l 2
 644 1181 684 1276 726 1344 c 2
 784 1434 l 2
 812 1477 860 1564 872 1624 c 2
 881 1672 l 1
 776 1661 678 1522 633 1424 c 1
 381 1424 l 1
 379 1623 300 1804 209 1856 c 1
 293 2064 l 1
 362 2010 553 1844 570 1700 c 1
 665 1887 868 1972 939 1972 c 2
 1157 1972 l 2
 1185 1972 1228 1888 1228 1818 c 0
 1228 1809 1228 1800 1226 1792 c 2
 1194 1628 l 2
 1175 1529 1133 1442 1091 1380 c 2
 1027 1288 l 2
 950 1179 937 1113 932 1088 c 2
 823 523 l 1
 865 523 l 2
 1053 523 1099 419 1099 314 c 0
EndSplineSet
EndChar
StartChar: uni0E45
Encoding: 289 3653 188
Width: 1210
Flags: W
HStem: 990 240<342.2 650.687>
VStem: 97 951<864 1070.05 846 901 1104.7 1217.57> 713 322<743.233 770.642 770.642 856.749 813.696 926.572>
Fore
483 990 m 0xa0
 339 990 207 952 92 846 c 1
 97 1092 l 1
 291 1226 441 1230 518 1230 c 0
 836 1230 1048 1161 1048 901 c 0xc0
 1048 864 1044 824 1035 780 c 2
 803 -410 l 1
 492 -410 l 1
 713 726 l 2
 718 752 721 777 721 801 c 0
 721 906 666 990 483 990 c 0xa0
EndSplineSet
EndChar
StartChar: uni0E46
Encoding: 290 3654 189
Width: 1460
Flags: W
HStem: 436 165<410.839 555.205> 1204 20G<595.5 727.5 1007.04 1155>
VStem: 229 178<604.606 736.778> 571 176<618.695 749.078> 860 310<-351.728 786.107>
Fore
747 730 m 0
 747 580 596 436 441 436 c 0
 339 436 229 495 229 653 c 0
 229 905 463 1198 728 1224 c 1
 727 1221 772 1185 862 1116 c 1
 1040 1224 l 1
 1270 1211 1410 1054 1410 860 c 0
 1410 834 1407 807 1402 780 c 2
 1170 -411 l 1
 860 -411 l 1
 1089 764 l 2
 1092 780 1093 796 1093 811 c 0
 1093 881 1061 939 993 984 c 1
 816 896 l 1
 661 992 l 1
 618 976 585 953 564 924 c 1
 681 909 747 823 747 730 c 0
504 754 m 0
 456 754 407 712 407 662 c 0
 407 627 436 601 476 601 c 0
 524 601 571 642 571 692 c 0
 571 727 544 754 504 754 c 0
EndSplineSet
EndChar
StartChar: uni0E47
Encoding: 291 3655 190
Width: 0
Flags: W
HStem: 1304 124<-207.221 -35.8148> 1404 151<-420.629 -307.495> 1543 85<-140.203 -29.0449> 1654 135<-442.596 -217.308 -224.592 -210.023 -217.308 61.9542>
VStem: -659 147<1459.34 1594.74> -29 91<1433.59 1542.76>
AnchorPoint: "AboveMark" -313 1294 mark 0
AnchorPoint: "AboveBase" 48 1284 mark 0
Fore
-95 1428 m 0xbc
 -63 1428 -29 1461 -29 1497 c 0
 -29 1524 -48 1543 -74 1543 c 8
 -114 1543 -146 1509 -146 1474 c 0
 -146 1445 -123 1428 -95 1428 c 0xbc
-659 1472 m 0
 -659 1726 -378 1789 -236 1789 c 0
 -205 1789 -216 1786 -184 1786 c 0
 -35 1786 96 1809 150 1924 c 1
 200 1790 l 1
 115 1683 -25 1654 -207 1654 c 0
 -221 1654 -232 1654 -242 1655 c 0
 -358 1655 -512 1624 -512 1499 c 0
 -512 1480 -508 1462 -495 1453 c 1
 -480 1482 -450 1555 -361 1555 c 0x5c
 -313 1555 -276 1473 -234 1473 c 1
 -234 1478 -232 1479 -231 1480 c 1
 -227 1502 l 2
 -212 1578 -140 1628 -66 1628 c 0
 -13 1628 62 1606 62 1520 c 0
 62 1429 -25 1304 -170 1304 c 0xbc
 -291 1304 -327 1404 -375 1404 c 0x5c
 -423 1404 -428 1319 -440 1305 c 1
 -563 1305 -659 1341 -659 1472 c 0
EndSplineSet
Substitution2: "Thai Mark High Variant" uni0E47.high
Substitution2: "Thai Phinthu Maitaikhu Reordering" uni0E3A
EndChar
StartChar: uni0E48
Encoding: 292 3656 191
Width: 0
VWidth: 2302
Flags: W
HStem: 2076 356<51 194 51 194 51 51>
AnchorPoint: "AboveMark" 73 2000 mark 0
Fore
51 2432 m 25
 263 2432 l 1
 194 2076 l 1
 -18 2076 l 1
 51 2432 l 25
EndSplineSet
MultipleSubs2: "Thai Tone Nikhahit Attachment" uni0E4D uni0E48
Substitution2: "Thai Tone Low Variant" uni0E48.low
Substitution2: "Thai Sara U Mai Ek Reordering" uni0E38
Substitution2: "Thai Sara UU Mai Ek Reordering" uni0E39
Substitution2: "Thai Phinthu Mai Ek Reordering" uni0E3A
EndChar
StartChar: uni0E49
Encoding: 293 3657 192
Width: 0
VWidth: 2314
Flags: W
HStem: 2394 88<-65.2477 52.7205>
VStem: -153 82<2281.6 2386.83> 53 101<2298.08 2393.43>
AnchorPoint: "AboveMark" 115 2000 mark 0
Fore
-153 2308 m 0
 -153 2429 -34 2482 25 2482 c 0
 114 2482 154 2417 154 2356 c 0
 154 2332 148 2268 77 2194 c 1
 177 2211 292 2297 423 2450 c 1
 511 2308 l 1
 326 2118 65 2030 -167 2030 c 2
 -176 2030 l 1
 -151 2162 l 1
 -84 2168 -83 2167 -45 2200 c 1
 -54 2200 l 2
 -92 2200 -153 2226 -153 2308 c 0
3 2394 m 0
 -38 2394 -71 2360 -71 2325 c 0
 -71 2300 -51 2280 -22 2280 c 8
 21 2280 53 2318 53 2349 c 0
 53 2375 32 2394 3 2394 c 0
EndSplineSet
MultipleSubs2: "Thai Tone Nikhahit Attachment" uni0E4D uni0E49
Substitution2: "Thai Tone Low Variant" uni0E49.low
Substitution2: "Thai Sara U Mai Tho Reordering" uni0E38
Substitution2: "Thai Sara UU Mai Tho Reordering" uni0E39
Substitution2: "Thai Phinthu Mai Tho Reordering" uni0E3A
EndChar
StartChar: uni0E4A
Encoding: 294 3658 193
Width: 0
VWidth: 2296
Flags: W
HStem: 2075 85<-218.993 -137.875> 2258 66<-193.556 -129.355>
VStem: -351 122<2160.65 2252.62> -119 73<2163.13 2257.36> 98 137<2235.34 2354.25>
AnchorPoint: "AboveMark" -69 2000 mark 0
Fore
-163 2258 m 0
 -201 2258 -229 2221 -229 2196 c 0
 -229 2175 -209 2160 -184 2160 c 0
 -154 2160 -119 2181 -119 2216 c 0
 -119 2242 -138 2258 -163 2258 c 0
-46 2227 m 0
 -46 2170 -105 2075 -202 2075 c 0
 -279 2075 -351 2133 -351 2214 c 0
 -351 2284 -288 2425 -130 2478 c 1
 -19 2400 l 1
 106 2480 l 1
 184 2452 235 2376 235 2306 c 0
 235 2268 222 2237 194 2212 c 2
 159 2179 l 1
 245 2208 343 2372 385 2475 c 1
 508 2366 l 1
 467 2257 266 2079 78 2076 c 1
 33 2184 l 1
 49 2197 98 2233 98 2307 c 0
 98 2333 90 2353 74 2366 c 1
 -41 2298 l 1
 -140 2364 l 1
 -182 2333 -178 2338 -202 2306 c 1
 -185 2321 -168 2324 -150 2324 c 0
 -85 2324 -46 2277 -46 2227 c 0
EndSplineSet
MultipleSubs2: "Thai Tone Nikhahit Attachment" uni0E4D uni0E4A
Substitution2: "Thai Tone Low Variant" uni0E4A.low
Substitution2: "Thai Sara U Mai Tri Reordering" uni0E38
Substitution2: "Thai Sara UU Mai Tri Reordering" uni0E39
Substitution2: "Thai Phinthu Mai Tri Reordering" uni0E3A
EndChar
StartChar: uni0E4B
Encoding: 295 3659 194
Width: 0
VWidth: 2297
Flags: W
HStem: 2076 453<4 104 4 104 4 4> 2212 179<-160 -58 165 267 -195 302 -160 -160>
AnchorPoint: "AboveMark" 12 2000 mark 0
Fore
267 2213 m 1x80
 130 2213 l 1
 104 2076 l 1
 -84 2076 l 1x80
 -58 2212 l 1
 -195 2212 l 1
 -160 2391 l 1
 -23 2391 l 1x40
 4 2529 l 1
 192 2529 l 1
 165 2392 l 1
 302 2392 l 1
 267 2213 l 1x80
EndSplineSet
MultipleSubs2: "Thai Tone Nikhahit Attachment" uni0E4D uni0E4B
Substitution2: "Thai Tone Low Variant" uni0E4B.low
Substitution2: "Thai Sara U Mai Chattawa Reordering" uni0E38
Substitution2: "Thai Sara UU Mai Chattawa Reordering" uni0E39
Substitution2: "Thai Phinthu Mai Chattawa Reordering" uni0E3A
EndChar
StartChar: uni0E4C
Encoding: 296 3660 195
Width: 0
VWidth: 2306
Flags: W
HStem: 2076 110<-90.1774 35.7354>
VStem: -222 130<2188.83 2310> 45 129<2196.41 2321.37>
AnchorPoint: "AboveMark" -71 2000 mark 0
Fore
174 2310 m 0
 174 2181 63 2076 -56 2076 c 0
 -181 2076 -222 2157 -222 2227 c 0
 -222 2330 -127 2449 20 2468 c 0
 75 2476 406 2480 510 2540 c 1
 504 2378 l 1
 453 2351 403 2343 325 2343 c 0
 275 2343 238 2348 200 2348 c 0
 186 2348 175 2347 166 2346 c 1
 172 2335 174 2324 174 2310 c 0
-33 2186 m 0
 9 2186 45 2224 45 2266 c 0
 45 2298 25 2322 -7 2322 c 8
 -52 2322 -92 2279 -92 2238 c 0
 -92 2208 -68 2186 -33 2186 c 0
EndSplineSet
MultipleSubs2: "Thai Tone Nikhahit Attachment" uni0E4D uni0E4C
Substitution2: "Thai Tone Low Variant" uni0E4C.low
Substitution2: "Thai Sara U Thanthakhat Reordering" uni0E38
Substitution2: "Thai Sara UU Thanthakhat Reordering" uni0E39
Substitution2: "Thai Phinthu Thanthakhat Reordering" uni0E3A
EndChar
StartChar: uni0E4D
Encoding: 297 3661 196
Width: 0
Flags: W
HStem: 1336 180<-181.402 -22.5873> 1708 180<-160.132 -0.0233383>
VStem: -372 183<1522.97 1680.53> 7 183<1542.68 1701.04>
AnchorPoint: "AboveMark" -3 2000 basemark 0
AnchorPoint: "AboveBase" 45 1284 mark 0
Fore
190 1666 m 0
 190 1494 32 1336 -144 1336 c 0
 -278 1336 -372 1430 -372 1558 c 0
 -372 1724 -218 1888 -37 1888 c 0
 97 1888 190 1794 190 1666 c 0
-109 1516 m 0
 -47 1516 7 1571 7 1632 c 0
 7 1677 -26 1708 -72 1708 c 0
 -136 1708 -189 1650 -189 1593 c 0
 -189 1547 -155 1516 -109 1516 c 0
EndSplineSet
Substitution2: "Thai Mark High Variant" uni0E4D.high
Substitution2: "Thai Sara U Nikhahit Reordering" uni0E38
Substitution2: "Thai Sara UU Nikhahit Reordering" uni0E39
Substitution2: "Thai Phinthu Nikhahit Reordering" uni0E3A
EndChar
StartChar: uni0E4E
Encoding: 298 3662 197
Width: 0
VWidth: 2105
Flags: W
HStem: 1313 149<-80.25 72.6324 72.6324 123> 1595 132<-42.7031 146> 1854 144<-36.1344 188.011>
VStem: -316 199<1419.16 1572.05> -228 183<1739.52 1840.39>
AnchorPoint: "AboveBase" 110 1284 mark 0
Fore
80 1595 m 2xe8
 -94 1595 -117 1547 -117 1512 c 0
 -117 1464 -64 1462 18 1462 c 0
 45 1462 31 1463 152 1463 c 1
 123 1313 l 1
 -30 1313 l 2
 -249 1313 -316 1371 -316 1460 c 0xf0
 -316 1600 -165 1655 -148 1659 c 1
 -168 1671 -228 1710 -228 1783 c 0
 -228 1912 -86 1998 93 1998 c 0
 132 1998 213 1994 285 1975 c 1
 257 1830 l 1
 197 1846 143 1854 94 1854 c 0
 -27 1854 -45 1813 -45 1785 c 0
 -45 1747 4 1727 102 1727 c 2
 172 1727 l 1
 146 1595 l 1
 80 1595 l 2xe8
EndSplineSet
EndChar
StartChar: uni0E4F
Encoding: 299 3663 198
Width: 1310
Flags: W
HStem: -1 198<523.219 880.387> 290 156<654.292 844.779> 677 156<682.906 869.825> 933 198<656.185 996.868>
VStem: 185 202<336.606 664.557> 478 159<463.766 631.219> 884 159<484.796 661.167> 1138 203<457.822 797.518>
Fore
743 446 m 0
 812 446 884 503 884 584 c 0
 884 643 840 677 785 677 c 8
 703 677 637 607 637 540 c 0
 637 484 685 446 743 446 c 0
837 933 m 0
 589 933 387 706 387 491 c 0
 387 321 514 197 693 197 c 0
 926 197 1138 399 1138 633 c 0
 1138 805 1014 933 837 933 c 0
1341 669 m 0
 1341 312 1003 -1 659 -1 c 0
 379 -1 185 196 185 454 c 0
 185 797 515 1131 872 1131 c 0
 1151 1131 1341 930 1341 669 c 0
1043 613 m 0
 1043 446 888 290 712 290 c 0
 573 290 478 385 478 511 c 0
 478 671 633 833 815 833 c 0
 948 833 1043 741 1043 613 c 0
EndSplineSet
EndChar
StartChar: uni0E50
Encoding: 300 3664 199
Width: 1330
Flags: W
HStem: 0 263<564.897 888.118> 802 263<656.607 979.411>
VStem: 202 269<352.733 628.178> 1068 268<436.303 714.31>
Fore
1336 633 m 0
 1336 302 1010 0 670 0 c 16
 413 0 202 174 202 434 c 0
 202 770 530 1065 882 1065 c 0
 1148 1065 1336 878 1336 633 c 0
719 263 m 0
 902 263 1068 416 1068 585 c 0
 1068 711 970 802 832 802 c 0
 640 802 471 653 471 481 c 0
 471 348 580 263 719 263 c 0
EndSplineSet
EndChar
StartChar: uni0E51
Encoding: 301 3665 200
Width: 1400
Flags: W
HStem: -160 177<643.861 791.481> 117 238<592.258 762.522> 500 131<698.344 829.097> 808 258<649.344 1017.6>
VStem: 192 279<380.357 625.823> 551 134<364.421 486.393> 832 134<368.347 497.743> 1130 276<440.164 699.346>
Back
538.275 -12 m 4
 441.949 -12 362.147 -3.2484 298.869 14.2548 c 132
 235.592 31.7581 170.404 58.8893 103.306 95.6484 c 5
 126 294 l 5
 174.255 256.779 236.952 227.987 314.09 207.624 c 132
 391.229 187.26 465.107 177.19 535.724 177.413 c 4
 608.786 180.42 677.684 197.516 742.417 228.699 c 132
 807.15 259.882 859.44 301.587 899.287 353.814 c 132
 939.133 406.041 959.371 462.103 960 522 c 4
 960.503 569.848 952.396 615.215 935.679 658.102 c 132
 918.962 700.989 895.158 738.714 864.266 771.278 c 132
 833.375 803.842 794.152 829.497 746.599 848.243 c 132
 699.046 866.989 646.612 875.929 589.297 875.062 c 4
 513.795 872.069 449.445 848.332 396.248 803.85 c 132
 343.05 759.368 311.664 700.012 302.09 625.783 c 4
 302.069 596.466 306.492 569.33 315.361 544.375 c 132
 324.23 519.421 335.907 498.614 350.393 481.954 c 132
 364.879 465.293 381.283 450.975 399.606 439 c 132
 417.929 427.025 436.606 418.477 455.638 413.357 c 132
 474.67 408.238 493.089 405.68 510.895 405.684 c 132
 528.702 405.689 544.403 408.461 558 414 c 5
 516.823 420.588 480.936 439.412 450.339 470.473 c 132
 419.741 501.534 404.442 540.957 404.442 588.743 c 4
 404.442 620.923 411.354 652.172 425.177 682.491 c 132
 439 712.81 460.601 738.642 489.979 759.985 c 132
 519.358 781.328 553.198 792 591.5 792 c 4
 632.379 792 669.666 784.226 703.361 768.679 c 132
 737.056 753.131 764.387 732.598 785.354 707.081 c 132
 806.321 681.564 822.303 653.009 833.3 621.417 c 132
 844.297 589.825 849.31 557.45 848.34 524.293 c 4
 847.431 493.206 839.432 461.814 824.344 430.118 c 132
 809.257 398.423 788.492 369.097 762.049 342.141 c 132
 735.606 315.185 701.566 293.215 659.928 276.23 c 132
 618.29 259.245 573.062 250.753 524.243 250.753 c 4
 463.336 250.753 405.616 259.074 351.085 275.715 c 132
 296.554 292.356 247.843 316.372 204.952 347.763 c 132
 162.061 379.154 128.02 419.91 102.827 470.031 c 132
 77.6344 520.152 65.0381 576.313 65.0381 638.516 c 4
 65.0381 701 79.7291 759.416 109.111 813.764 c 132
 138.493 868.111 177.673 913.728 226.651 950.614 c 132
 275.63 987.498 332.277 1016.47 396.593 1037.53 c 132
 460.908 1058.58 527.694 1069.11 596.951 1069.11 c 4
 636.544 1069.11 676.141 1066.26 715.744 1060.55 c 132
 755.347 1054.84 795.671 1045.42 836.717 1032.31 c 132
 877.762 1019.19 916.474 1002.88 952.853 983.381 c 132
 989.231 963.882 1023.41 939.37 1055.39 909.846 c 132
 1087.36 880.322 1114.71 847.336 1137.42 810.888 c 132
 1160.13 774.44 1177.72 731.672 1190.19 682.583 c 132
 1202.65 633.495 1208.14 580.608 1206.67 523.923 c 4
 1205.22 468.119 1195.97 415.907 1178.94 367.286 c 132
 1161.91 318.665 1139.62 276.514 1112.07 240.831 c 132
 1084.52 205.149 1052.29 172.756 1015.39 143.651 c 132
 978.482 114.547 939.984 90.5106 899.896 71.5423 c 132
 859.807 52.574 818.116 36.6655 774.823 23.8169 c 132
 731.53 10.9683 690.312 1.78672 651.17 -3.72797 c 132
 612.029 -9.24266 574.397 -12 538.275 -12 c 4
525.968 591.058 m 28
 526.334 570.613 533.976 553.309 548.895 539.148 c 132
 563.814 524.987 581.533 518.14 602.054 518.608 c 4
 623.222 519.091 641.288 526.677 656.251 541.366 c 132
 671.214 556.055 678.51 573.776 678.139 594.53 c 4
 677.788 614.104 669.775 630.226 654.098 642.897 c 132
 638.421 655.568 620.223 661.666 599.502 661.193 c 4
 579.261 660.731 561.859 653.784 547.294 640.353 c 132
 532.729 626.922 525.62 610.49 525.968 591.058 c 28
EndSplineSet
Fore
572 17 m 1
 1079 103 1130 457 1130 544 c 0
 1130 665 1065 808 853 808 c 0
 559 808 471 614 471 485 c 0
 471 410 506 373 554 356 c 1
 552 365 551 375 551 386 c 0
 551 517 669 631 799 631 c 0
 888 631 966 573 966 469 c 0
 966 346 848 117 521 117 c 0
 404 117 192 179 192 416 c 0
 192 599 337 1066 919 1066 c 0
 1271 1066 1406 845 1406 610 c 0
 1406 568 1401 525 1393 483 c 0
 1293 -31 861 -141 661 -160 c 1
 572 17 l 1
772 500 m 0
 725 500 685 458 685 413 c 0
 685 379 711 355 745 355 c 0
 786 355 832 393 832 441 c 0
 832 473 811 500 772 500 c 0
EndSplineSet
EndChar
StartChar: uni0E52
Encoding: 302 3666 201
Width: 1600
Flags: W
HStem: 0 234<457 1189.18> 310 132<851.582 979.871> 586 132<911.063 992.589>
VStem: 335 265<668.571 1273.91> 631 217<445.417 572.075> 994 135<454.785 584.14> 1332 278<567.334 813.841>
Fore
1129 554 m 0
 1129 423 1007 310 881 310 c 0
 680 310 631 440 631 540 c 0
 631 604 679 952 1001 1070 c 1
 1161 977 l 1
 1346 1070 l 1
 1558 1043 1610 903 1610 758 c 0
 1610 692 1599 625 1588 568 c 0
 1515 189 1337 0 1071 0 c 2
 122 0 l 1
 130 24 335 703 335 1028 c 0
 335 1144 316 1233 280 1296 c 1
 491 1465 l 1
 574 1377 600 1226 600 1069 c 0
 600 891 567 704 544 586 c 2
 531 519 l 2
 511 418 487 323 457 234 c 1
 1107 234 l 2
 1269 234 1332 635 1332 711 c 0
 1332 773 1314 810 1277 820 c 1
 1106 743 l 1
 968 824 l 1
 938 800 911 760 900 704 c 1
 925 713 945 718 961 718 c 0
 1061 718 1129 648 1129 554 c 0
907 442 m 0
 955 442 994 485 994 528 c 0
 994 563 969 586 935 586 c 0
 887 586 848 543 848 500 c 0
 848 465 873 442 907 442 c 0
EndSplineSet
EndChar
StartChar: uni0E53
Encoding: 303 3667 202
Width: 1600
Flags: W
HStem: -16 132<550.745 682.445> 260 132<561.098 694.208> 813 249<628.861 800.592 1134.82 1279.12>
VStem: 219 330<151.833 380.956> 696 135<128.569 257.864> 1293 288<444.157 802.132>
Fore
1037 -6 m 1
 1226 279 1293 549 1293 688 c 0
 1293 780 1259 813 1206 813 c 0
 1153 813 1107 758 1076 597 c 2
 1054 486 l 9
 775 486 l 17
 797 597 l 2
 806 641 810 678 810 709 c 0
 810 778 788 813 744 813 c 0
 612 813 555 687 523 523 c 2
 518 499 l 2
 502 416 494 364 494 343 c 0
 494 336 495 332 497 332 c 1
 544 372 599 392 662 392 c 0
 762 392 831 322 831 227 c 0
 831 97 705 -16 588 -16 c 0
 546 -16 431 -8 357 36 c 0
 294 74 219 187 219 370 c 0
 219 415 224 464 234 517 c 0
 321 962 601 1062 775 1062 c 0
 907 1062 973 1006 997 922 c 1
 1060 1015 1147 1062 1259 1062 c 0
 1402 1062 1498 1010 1541 909 c 0
 1568 846 1581 779 1581 706 c 0
 1581 577 1514 221 1297 -6 c 1
 1037 -6 l 1
637 260 m 0
 592 260 549 221 549 173 c 0
 549 142 572 116 609 116 c 0
 651 116 696 154 696 202 c 0
 696 234 675 260 637 260 c 0
EndSplineSet
EndChar
StartChar: uni0E54
Encoding: 304 3668 203
Width: 1600
Flags: W
HStem: -1 226<562.216 769.328> 0 240<1152.58 1401> 584 132<857.86 987.788> 831 236<751.739 1166.07> 1208 20G<1728 1780.08>
VStem: 210 280<301.012 599.456> 692 152<400.289 568.979> 991 134<453.487 580.473>
Fore
1125 550 m 0x7f
 1125 477 1092 400 1030 354 c 1
 1096 286 1235 248 1448 240 c 1
 1401 0 l 1x7f
 1252 11 1129 35 1029 72 c 1
 972 24 735 -1 653 -1 c 0
 467 -1 210 79 210 381 c 0
 210 695 413 852 478 904 c 0
 617 1009 810 1063 1057 1067 c 0
 1497 1074 1672 1146 1784 1228 c 1
 1735 978 l 1
 1482 831 1032 831 993 831 c 0
 662 831 490 634 490 440 c 0
 490 314 567 225 697 225 c 0xbf
 733 225 775 230 825 240 c 1
 730 295 692 359 692 435 c 0
 692 598 836 716 957 716 c 0
 1047 716 1125 656 1125 550 c 0x7f
904 440 m 0
 951 440 991 482 991 526 c 0
 991 561 966 584 932 584 c 0
 884 584 844 541 844 497 c 0
 844 462 871 440 904 440 c 0
EndSplineSet
EndChar
StartChar: uni0E55
Encoding: 305 3669 204
Width: 1600
Flags: W
HStem: -1 226<561.941 769.328> 0 240<1152.58 1401> 584 132<857.43 987.788> 831 250<791.308 947.083 1068 1166.07> 1208 20G<1729 1780.08> 1273 144<805.357 966.088>
VStem: 211 280<299.58 605.943> 631 147<1087.79 1244.79> 692 152<400.789 569.06> 974 146<1108.56 1264.32> 991 134<453.487 580.473>
Fore
857 1081 m 0x3f40
 921 1081 974 1139 974 1196 c 0
 974 1242 940 1273 894 1273 c 0
 832 1273 778 1218 778 1157 c 0
 778 1112 811 1081 857 1081 c 0x3f40
631 1129 m 0
 631 1280 769 1417 922 1417 c 0
 1042 1417 1120 1332 1120 1223 c 0
 1120 1160 1096 1105 1068 1067 c 1
 1507 1076 1674 1147 1784 1228 c 1
 1735 978 l 1
 1482 831 1032 831 993 831 c 0
 673 831 491 644 491 440 c 0
 491 311 567 225 697 225 c 0xbf40
 733 225 775 230 825 240 c 1
 733 294 692 360 692 438 c 0
 692 596 834 716 957 716 c 0
 1047 716 1125 656 1125 550 c 0
 1125 477 1092 400 1030 354 c 1
 1096 286 1235 248 1448 240 c 1
 1401 0 l 1x7ea0
 1252 11 1129 35 1029 72 c 1
 972 24 735 -1 653 -1 c 0xbea0
 464 -1 211 79 211 384 c 0
 211 544 271 745 413 868 c 0
 504 948 591 995 674 1008 c 1
 646 1043 631 1083 631 1129 c 0
904 440 m 0
 951 440 991 482 991 526 c 0
 991 561 966 584 932 584 c 0
 884 584 844 541 844 497 c 0x3ea0
 844 462 871 440 904 440 c 0
EndSplineSet
EndChar
StartChar: uni0E56
Encoding: 306 3670 205
Width: 1380
Flags: W
HStem: 0 236<688 898.19> 454 128<450.091 604.798> 830 242<633.725 957.14>
VStem: 276 152<212.273 430.22> 371 189<1032 1056.27 926.439 1175.11> 611 143<329.794 446.576> 1096 273<482.544 708.289>
Fore
276 282 m 0xf6
 276 428 391 582 559 582 c 0
 667 582 754 510 754 408 c 0
 754 386 736 260 688 236 c 1
 861 242 1046 296 1092 535 c 0
 1094 547 1096 560 1096 574 c 0
 1096 680 1021 830 740 830 c 0
 601 830 473 793 362 720 c 1
 368 763 371 804 371 844 c 0
 371 1008 319 1144 223 1209 c 1
 305 1453 l 1
 441 1411 563 1275 563 1082 c 0
 563 1066 562 1049 560 1032 c 1xee
 641 1059 724 1072 812 1072 c 0
 1071 1072 1369 984 1369 650 c 0
 1369 260 1040 0 658 0 c 0
 395 0 276 136 276 282 c 0xf6
533 454 m 0
 473 454 428 396 428 350 c 0xf6
 428 315 455 283 506 283 c 0
 567 283 611 338 611 383 c 0
 611 422 583 454 533 454 c 0
EndSplineSet
EndChar
StartChar: uni0E57
Encoding: 307 3671 206
Width: 1800
Flags: W
HStem: -16 132<521.168 652.77> 260 132<532.581 663.959> 813 249<583.518 726.383 1049.49 1195.6>
VStem: 189 270<334.055 521.14> 666 134<128.891 258.27> 1213 283<462.26 798.282>
Fore
189 370 m 0
 189 553 290 1062 695 1062 c 0
 827 1062 893 1006 917 922 c 1
 979 1015 1066 1062 1176 1062 c 0
 1371 1062 1496 972 1496 744 c 0
 1496 631 1453 404 1369 233 c 1
 1455 327 1619 554 1680 872 c 0
 1707 1010 1720 1175 1721 1368 c 9
 1952 1264 l 17
 1945 1125 1916 583 1688 287 c 0
 1536 92 1379 -6 1217 -6 c 2
 957 -6 l 1
 1171 317 1213 590 1213 684 c 0
 1213 770 1183 813 1125 813 c 0
 1059 813 1013 738 986 597 c 2
 964 486 l 9
 705 486 l 17
 727 597 l 2
 735 639 739 673 739 702 c 0
 739 782 709 813 663 813 c 0
 500 813 459 399 459 359 c 0
 459 342 462 332 467 332 c 1
 514 372 569 392 632 392 c 0
 731 392 800 323 800 228 c 0
 800 98 677 -16 558 -16 c 0
 510 -16 402 -9 328 36 c 0
 267 72 189 184 189 370 c 0
579 116 m 0
 626 116 666 158 666 202 c 0
 666 237 641 260 607 260 c 0
 559 260 519 217 519 173 c 0
 519 138 546 116 579 116 c 0
EndSplineSet
EndChar
StartChar: uni0E58
Encoding: 308 3672 207
Width: 1600
Flags: W
HStem: 0 261<1106.58 1291.15> 405 135<1231.2 1362.38> 831 236<734.497 1146.07> 1208 20G<1708 1760.08>
VStem: 194 275<290.595 599.665> 1086 132<263.256 392.341> 1365 135<273.61 401.174>
Fore
1500 374 m 0
 1500 239 1383 0 1100 0 c 0
 922 0 819 66 789 198 c 9
 692 0 l 17
 450 0 194 84 194 398 c 0
 194 701 381 846 458 904 c 0
 597 1009 790 1063 1037 1067 c 0
 1477 1074 1652 1146 1764 1228 c 1
 1715 978 l 1
 1462 831 1012 831 973 831 c 0
 682 831 469 670 469 429 c 0
 469 282 565 252 565 252 c 1
 706 554 l 9
 926 511 l 17
 959 327 1025 221 1127 194 c 1
 1099 225 1086 260 1086 300 c 0
 1086 417 1197 540 1333 540 c 0
 1420 540 1500 485 1500 374 c 0
1278 261 m 0
 1325 261 1365 303 1365 347 c 0
 1365 382 1340 405 1306 405 c 0
 1258 405 1218 362 1218 318 c 0
 1218 283 1245 261 1278 261 c 0
EndSplineSet
EndChar
StartChar: uni0E59
Encoding: 309 3673 208
Width: 1670
Flags: W
HStem: 0 161<519.219 775.239> 305 132<662.604 794.196> 832 244<585.948 841.541 1214.07 1396.54> 1202 20G<1758 1791.21>
VStem: 199 258<287.919 684.405> 796 134<174.135 303.173> 1116 254<0 181.097>
Fore
199 430 m 0
 199 829 466 1076 817 1076 c 0
 867 1076 990 1071 1089 936 c 1
 1176 1047 1257 1076 1331 1076 c 256
 1471 1076 1521 1011 1541 957 c 1
 1656 1023 1732 1128 1784 1222 c 1
 1864 1000 l 1
 1817 912 1712 753 1431 676 c 1
 1426 751 1399 845 1298 845 c 0
 1269 845 1229 815 1179 757 c 1
 1308 486 1352 187 1370 0 c 9
 1116 0 l 17
 977 811 807 832 721 832 c 0
 615 832 457 752 457 463 c 0
 457 349 494 290 522 258 c 1
 530 296 617 437 762 437 c 0
 862 437 930 367 930 273 c 0
 930 127 780 0 592 0 c 0
 388 0 199 131 199 430 c 0
708 161 m 0
 756 161 796 204 796 248 c 0
 796 283 769 305 736 305 c 0
 689 305 649 263 649 219 c 0
 649 184 674 161 708 161 c 0
EndSplineSet
EndChar
StartChar: uni0E5A
Encoding: 310 3674 209
Width: 1600
Flags: W
HStem: 0 21G<872 1119.89 1223 1469.88> 591 340<449.299 693.65> 1080 158<463.386 598.329>
VStem: 227 219<792.386 1057.97> 601 173<944.601 1077.34>
Fore
538 1080 m 0
 492 1080 446 1037 446 991 c 0
 446 954 475 931 510 931 c 8
 558 931 601 973 601 1019 c 0
 601 1055 573 1080 538 1080 c 0
227 879 m 0
 227 1111 415 1238 571 1238 c 0
 687 1238 774 1155 774 1041 c 0
 774 976 747 896 679 851 c 1
 793 882 922 997 1064 1196 c 1
 1333 1116 l 1
 1116 0 l 1
 872 0 l 1
 1031 819 l 1
 971 727 800 591 594 591 c 0
 445 591 227 651 227 879 c 0
1466 0 m 1
 1223 0 l 1
 1436 1096 l 1
 1667 1036 l 1
 1466 0 l 1
EndSplineSet
EndChar
StartChar: uni0E5B
Encoding: 311 3675 210
Width: 2550
Flags: W
HStem: 0 264<593.311 881.111> 258 229<1495 1583.63 1863 1944.47> 299 216<2288.57 2542.36 2542.36 2563> 411 131<816.165 946.783> 687 131<826.207 959.588> 919 269<684.507 961.556>
VStem: 226 268<364.254 694.882> 679 134<545.329 672.603>
Fore
831 919 m 0x9f
 629 919 494 711 494 510 c 0
 494 329 630 264 738 264 c 0x9f
 796 264 977 287 1093 395 c 0
 1170 466 1246 583 1323 745 c 1
 1483 675 l 1
 1495 487 l 1
 1502 487 l 2
 1567 487 1637 576 1711 746 c 9
 1848 675 l 9
 1863 487 l 1
 1869 487 l 2x4f
 1928 487 1995 576 2069 746 c 9
 2206 675 l 1
 2217 571 2320 515 2518 515 c 0
 2545 515 2574 515 2605 517 c 1
 2563 299 l 1x2f
 2242 299 2081 348 2077 444 c 1
 2012 320 1913 257 1779 257 c 0
 1760 257 1741 259 1721 261 c 1
 1719 444 l 17
 1661 320 1559 258 1412 258 c 0x4f
 1393 258 1373 259 1353 261 c 1
 1351 347 l 17
 1347 346 1300 298 1209 201 c 0
 1083 67 909 0 684 0 c 0
 451 0 226 131 226 434 c 0
 226 623 306 879 486 1027 c 0
 621 1139 770 1188 918 1188 c 0
 1138 1188 1238 1053 1238 877 c 0
 1238 601 1039 411 846 411 c 0
 741 411 679 485 679 576 c 0
 679 700 794 818 925 818 c 0
 954 818 976 813 996 806 c 1
 983 901 897 919 831 919 c 0x9f
873 542 m 0
 918 542 961 583 961 629 c 0
 961 661 939 687 902 687 c 0
 851 687 813 640 813 601 c 0
 813 568 837 542 873 542 c 0
EndSplineSet
EndChar
StartChar: afii301
Encoding: 316 8205 212
Width: 0
Flags: W
VStem: -89 573<-275 1364 -275 -275>
Fore
-17 -275 m 1
 -89 -275 l 1
 181 1114 l 1
 20 978 l 1
 -19 1027 l 1
 184 1196 l 1
 46 1364 l 1
 105 1413 l 1
 241 1242 l 1
 445 1413 l 1
 484 1364 l 1
 280 1196 l 1
 419 1027 l 1
 360 978 l 1
 253 1114 l 1
 -17 -275 l 1
EndSplineSet
EndChar
StartChar: afii299
Encoding: 317 8206 213
Width: 0
Flags: W
HStem: 1163 71<261 527>
VStem: -89 752<-275 1198 -275 -275>
Fore
663 1198 m 1
 404 984 l 1
 365 1033 l 1
 527 1163 l 1
 261 1163 l 1
 -18 -275 l 1
 -89 -275 l 1
 204 1234 l 1
 541 1234 l 1
 429 1364 l 1
 488 1413 l 1
 663 1198 l 1
EndSplineSet
EndChar
StartChar: afii300
Encoding: 318 8207 214
Width: 0
Flags: W
HStem: 1163 71<-62 190>
VStem: -198 473<1198 1234 1198 1198>
Fore
-18 -275 m 1
 -89 -275 l 1
 190 1163 l 1
 -76 1163 l 1
 36 1033 l 1
 -23 984 l 1
 -198 1198 l 1
 61 1413 l 1
 100 1364 l 1
 -62 1234 l 1
 275 1234 l 1
 -18 -275 l 1
EndSplineSet
EndChar
StartChar: uni2010
Encoding: 319 8208 215
Width: 973
Flags: W
HStem: 543 225<339 921 339 921 339 339>
Fore
339 768 m 1
 964 768 l 1
 921 543 l 1
 296 543 l 1
 339 768 l 1
EndSplineSet
EndChar
StartChar: endash
Encoding: 320 8211 216
Width: 1024
Flags: W
HStem: 432 258<134 1108 134 1108 134 134>
Fore
134 690 m 1
 1158 690 l 1
 1108 432 l 1
 84 432 l 1
 134 690 l 1
EndSplineSet
EndChar
StartChar: emdash
Encoding: 321 8212 217
Width: 2048
Flags: W
HStem: 432 258<134 2132>
Fore
134 690 m 1
 2182 690 l 1
 2132 432 l 1
 84 432 l 1
 134 690 l 1
EndSplineSet
EndChar
StartChar: afii00208
Encoding: 322 8213 218
Width: 1862
Flags: W
HStem: 572 160<252 1863>
Fore
1863 572 m 1
 221 572 l 1
 252 732 l 1
 1894 732 l 1
 1863 572 l 1
EndSplineSet
EndChar
StartChar: underscoredbl
Encoding: 323 8215 219
Width: 1118
Flags: W
HStem: -423 130<-73 1052> -212 130<-32 1093>
Fore
1093 -212 m 1
 -57 -212 l 1
 -32 -82 l 1
 1118 -82 l 1
 1093 -212 l 1
1052 -423 m 1
 -98 -423 l 1
 -73 -293 l 1
 1077 -293 l 1
 1052 -423 l 1
EndSplineSet
EndChar
StartChar: quoteleft
Encoding: 324 8216 220
Width: 778
Flags: W
HStem: 856 637<717 728 728 728>
Fore
717 856 m 1
 377 856 l 1
 433 1141 l 1
 728 1493 l 1
 941 1493 l 1
 773 1141 l 1
 717 856 l 1
EndSplineSet
EndChar
StartChar: quoteright
Encoding: 325 8217 221
Width: 778
Flags: W
HStem: 856 637<508 519 519 519>
Fore
519 1493 m 1
 859 1493 l 1
 804 1208 l 1
 508 856 l 1
 295 856 l 1
 464 1208 l 1
 519 1493 l 1
EndSplineSet
EndChar
StartChar: quotesinglbase
Encoding: 326 8218 222
Width: 778
Flags: W
HStem: -250 637<309 323 323 323>
Fore
323 387 m 1
 663 387 l 1
 608 102 l 1
 309 -250 l 1
 98 -250 l 1
 268 102 l 1
 323 387 l 1
EndSplineSet
EndChar
StartChar: quotereversed
Encoding: 327 8219 223
Width: 432
Flags: W
HStem: 997 559<372 637 637 637>
Fore
637 1556 m 1
 372 997 l 1
 130 997 l 1
 499 1556 l 1
 637 1556 l 1
EndSplineSet
EndChar
StartChar: quotedblleft
Encoding: 328 8220 224
Width: 1346
Flags: W
HStem: 856 637<1223 1234 1234 1234>
Fore
1223 856 m 1
 883 856 l 1
 938 1139 l 1
 1234 1493 l 1
 1447 1493 l 1
 1278 1139 l 1
 1223 856 l 1
717 856 m 1
 377 856 l 1
 433 1141 l 1
 728 1493 l 1
 941 1493 l 1
 773 1141 l 1
 717 856 l 1
EndSplineSet
EndChar
StartChar: quotedblright
Encoding: 329 8221 225
Width: 1346
Flags: W
HStem: 856 637<567 579 579 579>
Fore
579 1493 m 1
 919 1493 l 1
 864 1208 l 1
 567 856 l 1
 354 856 l 1
 524 1208 l 1
 579 1493 l 1
1085 1493 m 1
 1425 1493 l 1
 1369 1206 l 1
 1073 856 l 1
 860 856 l 1
 1029 1206 l 1
 1085 1493 l 1
EndSplineSet
EndChar
StartChar: quotedblbase
Encoding: 330 8222 226
Width: 1346
Flags: W
HStem: -250 637<309 323 323 323>
Fore
323 387 m 1
 663 387 l 1
 608 102 l 1
 309 -250 l 1
 98 -250 l 1
 268 102 l 1
 323 387 l 1
829 387 m 1
 1169 387 l 1
 1113 100 l 1
 817 -250 l 1
 604 -250 l 1
 773 100 l 1
 829 387 l 1
EndSplineSet
EndChar
StartChar: dagger
Encoding: 331 8224 227
Width: 1024
Flags: W
HStem: 874 238<269 512 888 1133 223 1179 269 269> 1473 20G<628.115 962>
Fore
632 1493 m 1
 962 1493 l 1
 888 1112 l 1
 1179 1112 l 1
 1133 874 l 1
 842 874 l 1
 634 -197 l 1
 304 -197 l 1
 512 874 l 1
 223 874 l 1
 269 1112 l 1
 558 1112 l 1
 632 1493 l 1
EndSplineSet
EndChar
StartChar: daggerdbl
Encoding: 332 8225 228
Width: 1024
Flags: W
HStem: 184 238<133 378 754 999> 874 238<269 512 888 1133> 1473 20G<628.115 962>
Fore
632 1493 m 1
 962 1493 l 1
 888 1112 l 1
 1179 1112 l 1
 1133 874 l 1
 842 874 l 1
 754 422 l 1
 1045 422 l 1
 999 184 l 1
 708 184 l 1
 634 -197 l 1
 304 -197 l 1
 378 184 l 1
 87 184 l 1
 133 422 l 1
 424 422 l 1
 512 874 l 1
 223 874 l 1
 269 1112 l 1
 558 1112 l 1
 632 1493 l 1
EndSplineSet
EndChar
StartChar: bullet
Encoding: 333 8226 229
Width: 1309
Flags: W
HStem: 401 719<691.421 911.8>
VStem: 436 733<660.592 864.175>
Fore
1169 834 m 0
 1169 606 960 401 731 401 c 0
 558 401 436 521 436 690 c 0
 436 921 647 1120 873 1120 c 0
 1042 1120 1169 1004 1169 834 c 0
EndSplineSet
EndChar
StartChar: ellipsis
Encoding: 334 8230 230
Width: 2048
Flags: W
HStem: 0 387<237 522 919 1204 1601 1886>
Fore
1601 387 m 1
 1961 387 l 1
 1886 0 l 1
 1526 0 l 1
 1601 387 l 1
237 387 m 1
 597 387 l 1
 522 0 l 1
 162 0 l 1
 237 387 l 1
919 387 m 1
 1279 387 l 1
 1204 0 l 1
 844 0 l 1
 919 387 l 1
EndSplineSet
EndChar
StartChar: perthousand
Encoding: 335 8240 231
Width: 2949
Flags: W
HStem: -29 170<1529.23 1717.38 2445.39 2632.9> 616 168<1603.3 1795.68 2518.5 2711.4> 707 167<550.516 738.191> 1352 168<623.434 812.493>
VStem: 272 250<898.642 1225.06> 841 251<1005.26 1327.39> 1249 253<163.885 485.777> 1819 253<271.259 592.424> 2164 253<164.833 485.692> 2734 253<271.803 596.186>
Fore
2530 141 m 0xdfc0
 2693 141 2734 388 2734 472 c 0
 2734 555 2705 616 2623 616 c 0
 2458 616 2417 372 2417 284 c 0
 2417 165 2481 141 2530 141 c 0xdfc0
2164 274 m 0
 2164 500 2309 784 2655 784 c 0
 2866 784 2987 674 2987 483 c 0
 2987 258 2840 -29 2497 -29 c 0
 2286 -29 2164 82 2164 274 c 0
635 874 m 256xbfc0
 800 874 841 1121 841 1206 c 0
 841 1326 777 1352 728 1352 c 0
 563 1352 522 1106 522 1019 c 0
 522 899 586 874 635 874 c 256xbfc0
272 1007 m 0
 272 1231 411 1520 761 1520 c 0
 971 1520 1092 1410 1092 1219 c 0
 1092 989 943 707 602 707 c 256
 392 707 272 817 272 1007 c 0
664 -29 m 1
 443 -29 l 1
 1677 1520 l 1
 1899 1520 l 1
 664 -29 l 1
1249 273 m 0
 1249 502 1396 784 1739 784 c 256xdfc0
 1950 784 2072 674 2072 483 c 0
 2072 258 1925 -29 1581 -29 c 256
 1370 -29 1249 82 1249 273 c 0
1614 141 m 256
 1778 141 1819 385 1819 472 c 0
 1819 554 1789 616 1707 616 c 256
 1543 616 1502 371 1502 284 c 0
 1502 202 1531 141 1614 141 c 256
EndSplineSet
EndChar
StartChar: minute
Encoding: 336 8242 232
Width: 602
Flags: W
HStem: 870 619<442 860 860 860>
Fore
860 1489 m 1
 442 870 l 1
 306 870 l 1
 620 1489 l 1
 860 1489 l 1
EndSplineSet
EndChar
StartChar: second
Encoding: 337 8243 233
Width: 972
Flags: W
HStem: 870 619<438 856 856 856>
Fore
856 1489 m 1
 438 870 l 1
 306 870 l 1
 620 1489 l 1
 856 1489 l 1
1250 1489 m 1
 832 870 l 1
 700 870 l 1
 1014 1489 l 1
 1250 1489 l 1
EndSplineSet
EndChar
StartChar: guilsinglleft
Encoding: 338 8249 234
Width: 844
Flags: W
HStem: 137 926<678 858 858 858>
VStem: 256 602<506 1063 506 506>
Fore
858 1063 m 1
 811 821 l 1
 475 600 l 1
 725 379 l 1
 678 137 l 1
 256 506 l 1
 293 692 l 1
 858 1063 l 1
EndSplineSet
EndChar
StartChar: guilsinglright
Encoding: 339 8250 235
Width: 844
Flags: W
HStem: 137 926<220 400 400 400>
VStem: 220 601<137 692 137 137>
Fore
400 1063 m 1
 821 692 l 1
 784 506 l 1
 220 137 l 1
 267 379 l 1
 602 600 l 1
 353 821 l 1
 400 1063 l 1
EndSplineSet
EndChar
StartChar: uni203E
Encoding: 341 8254 237
Width: 1118
Flags: W
HStem: 1658 131<300 1440>
Fore
1440 1658 m 1
 274 1658 l 1
 300 1789 l 1
 1466 1789 l 1
 1440 1658 l 1
EndSplineSet
EndChar
StartChar: fraction
Encoding: 342 8260 238
Width: 886
Flags: W
HStem: 0 21G<-29 150.359>
Fore
1205 1489 m 1
 136 0 l 1
 -29 0 l 1
 1040 1489 l 1
 1205 1489 l 1
EndSplineSet
EndChar
StartChar: uni207F
Encoding: 343 8319 239
Width: 1010
Flags: W
HStem: 1368 151<757.483 928.662>
VStem: 950 178<1178.36 1343.91>
Fore
881 1519 m 0
 970 1519 1128 1491 1128 1276 c 0
 1128 1243 1124 1205 1116 1163 c 2
 1000 566 l 1
 828 566 l 1
 929 1088 l 2
 942 1151 950 1204 950 1246 c 0
 950 1327 916 1368 807 1368 c 0
 758 1368 687 1357 540 1254 c 1
 406 566 l 1
 235 566 l 1
 414 1488 l 1
 585 1488 l 1
 566 1388 l 1
 736 1513 823 1519 881 1519 c 0
EndSplineSet
EndChar
StartChar: dottedcircle
Encoding: 361 9676 240
Width: 1247
Flags: W
HStem: 7 121<569.498 679.781> 68 121<875.498 985.782> 98 121<322.498 432.842> 234 121<1073.57 1183.48> 249 121<208.498 318.781> 445 121<125.203 235.893 1191.74 1282.69> 679 121<186.498 296.781 1221.5 1331.89> 868 121<328.451 438.347> 891 121<1155.5 1265.78> 1011 121<545.498 655.893> 1034 121<995.498 1105.78> 1079 121<784.498 895.328>
VStem: 119 123<451.342 559.304> 180 123<685.562 793.712> 202 123<255.562 363.922> 316 123<107.523 213.062 874.672 982.656> 539 123<1017.34 1125.8> 563 123<13.5618 121.922> 778 124<1085.52 1193.8> 869 123<74.5704 182.747> 989 123<1040.57 1148.75> 1067 123<240.517 348.999> 1149 123<897.562 1005.71> 1182 123<444.562 553.062> 1215 123<685.562 793.863>
Fore
445 942 m 0x07
 445 902 411 868 372 868 c 0
 341 868 322 888 322 916 c 0
 322 952 352 989 395 989 c 0
 427 989 445 969 445 942 c 0x07
662 1084 m 0x064080
 662 1043 628 1011 589 1011 c 0
 558 1011 539 1031 539 1059 c 0
 539 1096 572 1132 612 1132 c 0
 642 1132 662 1114 662 1084 c 0x064080
902 1153 m 0x061020
 902 1112 868 1079 828 1079 c 0
 797 1079 778 1099 778 1127 c 0
 778 1164 811 1200 851 1200 c 0
 880 1200 902 1182 902 1153 c 0x061020
242 518 m 0x0608
 242 477 207 445 168 445 c 0
 137 445 119 465 119 493 c 0
 119 533 155 566 192 566 c 0
 222 566 242 548 242 518 c 0x0608
325 322 m 0x0e02
 325 281 289 249 251 249 c 0
 221 249 202 269 202 296 c 0
 202 335 235 370 275 370 c 0
 305 370 325 350 325 322 c 0x0e02
439 171 m 0x2601
 439 130 404 98 365 98 c 0
 335 98 316 118 316 145 c 0
 316 185 349 219 389 219 c 0
 416 219 439 202 439 171 c 0x2601
686 80 m 0x860040
 686 39 650 7 612 7 c 0
 582 7 563 27 563 54 c 0
 563 93 596 128 636 128 c 0
 666 128 686 108 686 80 c 0x860040
992 141 m 0x460010
 992 97 953 68 918 68 c 0
 888 68 869 88 869 115 c 0
 869 155 902 189 942 189 c 0
 974 189 992 168 992 141 c 0x460010
1190 308 m 0x160004
 1190 267 1157 234 1116 234 c 0
 1085 234 1067 254 1067 282 c 0
 1067 317 1096 355 1140 355 c 0
 1172 355 1190 335 1190 308 c 0x160004
1305 511 m 0x060001
 1305 470 1270 438 1231 438 c 0
 1201 438 1182 458 1182 485 c 0
 1182 525 1215 559 1255 559 c 0
 1282 559 1305 542 1305 511 c 0x060001
1338 752 m 0x06000080
 1338 711 1303 679 1264 679 c 0
 1234 679 1215 699 1215 726 c 0
 1215 766 1248 800 1288 800 c 0
 1318 800 1338 782 1338 752 c 0x06000080
1272 963 m 0x068002
 1272 922 1236 891 1198 891 c 0
 1168 891 1149 911 1149 938 c 0
 1149 977 1182 1012 1222 1012 c 0
 1253 1012 1272 991 1272 963 c 0x068002
1112 1107 m 0x062008
 1112 1063 1073 1034 1038 1034 c 0
 1008 1034 989 1054 989 1081 c 0
 989 1121 1022 1155 1062 1155 c 0
 1094 1155 1112 1134 1112 1107 c 0x062008
303 751 m 0x0604
 303 710 267 679 229 679 c 0
 199 679 180 699 180 726 c 0
 180 765 213 800 253 800 c 0
 284 800 303 779 303 751 c 0x0604
EndSplineSet
EndChar
StartChar: uni0E10.descless
Encoding: 362 63232 241
Width: 1251
Flags: W
HStem: 0 21G<677.755 986.91> 205 144<387.915 526.369> 498 144<400.062 537.213> 984 241<716.095 1180.48>
VStem: 237 147<352.786 480.132> 882 337<531.835 682.503>
Back
1125 984 m 29,0,-1
1038 537 m 14,1,-1
 1038 0 l 5,2,-1
 727 0 l 5,3,-1
 509 336 l 5,4,5
 494.333 312 471.167 292.333 439.5 277 c 4,6,7
 407.833 261.667 374 254.333 338 255 c 4,8,9
 274.667 255.667 222 276 180 316 c 4,10,11
 138 356 117 405.667 117 465 c 4,12,13
 117 531.667 140.167 586.333 186.5 629 c 4,14,15
 232.833 671.667 289 692.667 355 692 c 4,16,17
 398.333 692 440.333 682.167 481 662.5 c 4,18,19
 521.667 642.833 557.667 616.5 589 583.5 c 4,20,21
 620.333 550.5 646.667 518.667 668 488 c 4,22,23
 689.333 457.333 708.333 425.667 725 393 c 5,24,-1
 724 590 l 6,25,26
 724 626.667 695.333 660.167 638 690.5 c 4,27,28
 580.667 720.833 512.167 744.167 432.5 760.5 c 4,29,30
 352.833 776.833 278.833 789.5 210.5 798.5 c 4,31,32
 142.167 807.5 88.6667 812 50 812 c 5,33,-1
 49 1085 l 5,34,35
 253 1178.33 441.333 1225 614 1225 c 4,36,37
 658 1225 715.667 1214.67 787 1194 c 4,38,39
 858.333 1173.33 916.333 1162 961 1160 c 4,40,41
 1015 1157.33 1069.67 1172 1125 1204 c 5,42,-1
 1125 984 l 5,43,44
 1077 945.333 1017.67 927.333 947 930 c 4,45,46
 916.333 930.667 865.167 939.833 793.5 957.5 c 4,47,48
 721.833 975.167 663.333 984 618 984 c 4,49,50
 576.667 986 533.167 983.333 487.5 976 c 4,51,52
 441.833 968.667 402.667 957 370 941 c 5,53,-1
 407 938.5 l 6,54,55
 431.667 936.833 463.667 932.667 503 926 c 4,56,57
 542.333 919.333 585.667 910.667 633 900 c 4,58,59
 680.333 889.333 727.667 873.667 775 853 c 4,60,61
 822.333 832.333 865.667 808.5 905 781.5 c 4,62,63
 944.333 754.5 976.333 719.833 1001 677.5 c 4,64,65
 1025.67 635.167 1038 588.333 1038 537 c 14,1,-1
336 399 m 28,43,-1
 356.667 399 374.5 406 389.5 420 c 4,44,45
 404.5 434 412.333 451.333 413 472 c 4,46,47
 413 493.333 405.5 511.333 390.5 526 c 4,48,49
 375.5 540.667 357.667 548 337 548 c 4,50,51
 316.333 548 298.5 540.667 283.5 526 c 4,52,53
 268.5 511.333 261 493.333 261 472 c 4,54,55
 261 451.333 268.333 434 283 420 c 4,56,57
 297.667 406 315.333 399 336 399 c 28,43,-1
797 -45 m 4,58,59
EndSplineSet
Fore
237 373 m 0
 237 508 356 642 523 642 c 0
 595 642 653 614 696 558 c 0
 741 501 778 435 804 360 c 1
 875 530 l 2
 879 542 882 549 882 562 c 0
 882 608 837 643 746 666 c 2
 291 782 l 1
 350 1088 l 1
 473 1135 724 1225 956 1225 c 0
 1155 1225 1293 1190 1371 1122 c 1
 1137 858 l 1
 1128 954 1025 984 913 984 c 0
 806 984 713 971 635 938 c 1
 1094 808 l 2
 1177 785 1219 736 1219 661 c 0
 1219 624 1207 576 1189 531 c 2
 979 0 l 1
 683 0 l 1
 608 286 l 1
 572 242 501 205 427 205 c 0
 310 205 237 271 237 373 c 0
477 498 m 0
 431 498 384 457 384 407 c 0
 384 371 412 349 447 349 c 8
 495 349 540 388 540 438 c 0
 540 474 513 498 477 498 c 0
EndSplineSet
EndChar
StartChar: uni0E48.low
Encoding: 372 63242 251
Width: 0
Flags: W
HStem: 1364 400<-99 61 -99 61 -99 -99>
AnchorPoint: "AboveBase" 46 1284 mark 0
Fore
-99 1764 m 25
 139 1764 l 1
 61 1364 l 1
 -177 1364 l 1
 -99 1764 l 25
EndSplineSet
EndChar
StartChar: uni0E49.low
Encoding: 373 63243 252
Width: 0
Flags: W
HStem: 1514 21G<-43.5 -27> 1738 100<-239.347 -112.849>
VStem: -342 92<1612.02 1726.43> -111 115<1635.35 1736.01>
AnchorPoint: "AboveBase" -40 1284 mark 0
Fore
-342 1641 m 0
 -342 1778 -207 1838 -141 1838 c 0
 -42 1838 4 1765 4 1696 c 0
 4 1674 -4 1597 -83 1514 c 1
 29 1533 159 1629 306 1802 c 1
 405 1642 l 1
 197 1428 -98 1329 -358 1329 c 2
 -369 1329 l 1
 -340 1478 l 1
 -264 1484 -263 1483 -221 1520 c 1
 -231 1520 l 2
 -274 1520 -342 1549 -342 1641 c 0
-166 1738 m 0
 -213 1738 -250 1700 -250 1661 c 0
 -250 1632 -227 1610 -194 1610 c 8
 -145 1610 -111 1653 -111 1689 c 0
 -111 1718 -134 1738 -166 1738 c 0
EndSplineSet
EndChar
StartChar: uni0E4A.low
Encoding: 374 63244 253
Width: 0
Flags: W
HStem: 1326 95<-393.574 -276.029> 1532 74<-354.516 -270.178>
VStem: -533 139<1430.58 1525.14> -270 79<1428.79 1519.94> -27 154<1482.11 1638.72>
AnchorPoint: "AboveBase" 92 1284 mark 0
Fore
-346 1421 m 0
 -307 1421 -270 1456 -270 1485 c 0
 -270 1509 -289 1532 -320 1532 c 0
 -363 1532 -394 1492 -394 1461 c 0
 -394 1440 -380 1421 -346 1421 c 0
-191 1499 m 0
 -191 1432 -257 1326 -366 1326 c 0
 -449 1326 -533 1390 -533 1483 c 0
 -533 1562 -461 1718 -284 1780 c 1
 -160 1692 l 1
 -19 1782 l 1
 66 1752 127 1664 127 1584 c 0
 127 1509 79 1480 41 1442 c 1
 139 1475 249 1658 295 1775 c 1
 434 1654 l 1
 387 1531 164 1330 -51 1327 c 1
 -101 1449 l 1
 -85 1462 -27 1499 -27 1588 c 0
 -27 1616 -36 1638 -54 1654 c 1
 -184 1577 l 1
 -296 1651 l 1
 -340 1618 -336 1622 -365 1586 c 1
 -345 1602 -332 1606 -307 1606 c 0
 -237 1606 -191 1557 -191 1499 c 0
EndSplineSet
EndChar
StartChar: uni0E4B.low
Encoding: 375 63245 254
Width: 0
Flags: W
HStem: 1341 510<-170 -58 -170 -58 -170 -170> 1495 202<-355 -239 11 126 -394 165 -355 -355>
AnchorPoint: "AboveBase" 22 1284 mark 0
Fore
126 1495 m 1x40
 -28 1495 l 1x40
 -58 1341 l 1
 -269 1341 l 1x80
 -239 1495 l 1
 -394 1495 l 1
 -355 1697 l 1
 -200 1697 l 1x40
 -170 1851 l 1
 41 1851 l 1x80
 11 1697 l 1
 165 1697 l 1
 126 1495 l 1x40
EndSplineSet
EndChar
StartChar: uni0E4C.low
Encoding: 376 63246 255
Width: 0
Flags: W
HStem: 1316 122<-294.548 -160.865>
VStem: -444 146<1442.27 1575.33> -145 146<1452 1589.4>
AnchorPoint: "AboveBase" -48 1268 mark 0
Fore
1 1580 m 0
 1 1432 -128 1316 -258 1316 c 0
 -389 1316 -444 1398 -444 1483 c 0
 -444 1595 -342 1736 -174 1756 c 0
 -101 1766 262 1770 378 1837 c 1
 372 1654 l 1
 309 1621 238 1615 196 1615 c 0
 181 1615 106 1621 45 1621 c 0
 25 1621 7 1621 -9 1618 c 1
 -4 1602 1 1598 1 1580 c 0
-233 1438 m 0
 -190 1438 -145 1477 -145 1530 c 0
 -145 1562 -165 1591 -204 1591 c 8
 -258 1591 -298 1539 -298 1497 c 0
 -298 1462 -267 1438 -233 1438 c 0
EndSplineSet
EndChar
StartChar: uni0E0D.descless
Encoding: 377 63247 256
Width: 1968
Flags: W
HStem: -11 189<363.041 544.78> 0 221<1230 1510> 994 240<637.139 974.503>
VStem: 159 249<180.203 299.269> 563 208<194.484 324.064>
Fore
771 299 m 0x78
 771 140 630 -11 408 -11 c 0xb8
 316 -11 159 42 159 240 c 0
 159 267 162 297 168 329 c 2
 196 474 l 2
 210 545 248 668 402 744 c 1
 232 821 l 1
 285 1097 l 1
 584 1211 763 1234 876 1234 c 0
 1223 1234 1357 1112 1357 920 c 0
 1357 889 1354 856 1347 822 c 2
 1230 221 l 1
 1510 221 l 1
 1701 1204 l 1
 2009 1204 l 1
 1775 0 l 1
 876 0 l 1
 1033 806 l 2
 1036 819 1037 832 1037 843 c 0
 1037 963 905 994 780 994 c 0
 720 994 646 985 569 947 c 1
 753 856 l 1
 715 660 l 1
 540 607 522 533 516 502 c 1
 582 502 l 2
 664 502 771 431 771 299 c 0x78
471 178 m 0
 525 178 563 226 563 270 c 0
 563 305 536 327 501 327 c 8
 459 327 408 291 408 239 c 0
 408 205 432 178 471 178 c 0
EndSplineSet
EndChar
StartChar: uniF71B
Encoding: 389 63259 268
Width: 1000
Flags: W
HStem: 61 1024<426 842 227 1041 426 426>
Fore
1041 1085 m 1
 842 61 l 1
 227 61 l 1
 426 1085 l 1
 1041 1085 l 1
EndSplineSet
EndChar
StartChar: uniF71C
Encoding: 390 63260 269
Width: 700
Flags: W
HStem: -423 269<25 214 214 214>
Fore
25 -423 m 1
 214 -154 l 1
 456 -154 l 1
 163 -423 l 1
 25 -423 l 1
EndSplineSet
EndChar
StartChar: uniF71D
Encoding: 391 63261 270
Width: 800
Flags: W
HStem: -236 211<177 220 507 570 136 611 177 177> -127 102<241 507>
Fore
570 -236 m 1x80
 486 -236 l 1x80
 507 -127 l 1
 241 -127 l 1x40
 220 -236 l 1
 136 -236 l 1
 177 -25 l 1
 611 -25 l 1
 570 -236 l 1x80
EndSplineSet
EndChar
StartChar: afii61664
Encoding: 315 8204 271
Width: 0
Flags: W
VStem: -89 376<-275 1289 -275 -275>
Fore
287 1289 m 1
 -17 -275 l 1
 -89 -275 l 1
 215 1289 l 1
 287 1289 l 1
EndSplineSet
EndChar
StartChar: uni00B9
Encoding: 122 185 274
Width: 897
Flags: MW
HStem: 668 157<301 508 738 912 271 942 301 301>
Fore
301 825 m 1
 508 825 l 1
 610 1346 l 1
 375 1294 l 1
 406 1454 l 1
 644 1503 l 1
 870 1503 l 1
 738 825 l 1
 942 825 l 1
 912 668 l 1
 271 668 l 1
 301 825 l 1
EndSplineSet
EndChar
StartChar: ordmasculine
Encoding: 123 186 275
Width: 1155
Flags: W
HStem: 373 200<277 1062> 698 170<644.612 862.848> 1350 170<722.861 941.573>
VStem: 323 286<900.879 1215.69> 976 287<999.933 1316.77>
Fore
323 1015 m 0
 323 1250 493 1520 873 1520 c 0
 1116 1520 1263 1405 1263 1203 c 0
 1263 958 1087 698 714 698 c 256
 470 698 323 812 323 1015 c 0
277 573 m 1
 1100 573 l 1
 1062 373 l 1
 239 373 l 1
 277 573 l 1
747 868 m 0
 931 868 976 1097 976 1193 c 0
 976 1286 937 1350 840 1350 c 0
 656 1350 609 1120 609 1025 c 0
 609 931 649 868 747 868 c 0
EndSplineSet
EndChar
StartChar: guillemotright
Encoding: 124 187 276
Width: 1323
Flags: W
HStem: 137 926<699 879 879 879>
Fore
879 1063 m 1
 1300 692 l 1
 1263 506 l 1
 699 137 l 1
 746 379 l 1
 1082 600 l 1
 832 821 l 1
 879 1063 l 1
400 1063 m 1
 819 692 l 1
 782 506 l 1
 220 137 l 1
 267 379 l 1
 602 600 l 1
 353 821 l 1
 400 1063 l 1
EndSplineSet
EndChar
StartChar: questiondown
Encoding: 128 191 280
Width: 1188
Flags: W
HStem: -29 262<598.964 870.457> 1137 356<777 1069>
VStem: 202 371<159.907 467.3>
Fore
635 -29 m 0
 374 -29 202 59 202 269 c 0
 202 523 400 664 449 702 c 2
 525 760 l 2
 609 825 656 869 670 942 c 2
 679 987 l 1
 1040 987 l 1
 1030 938 l 2
 1005 808 933 737 797 631 c 2
 721 573 l 2
 674 536 573 456 573 350 c 0
 573 273 633 233 729 233 c 0
 803 233 935 256 1126 367 c 1
 1065 53 l 1
 942 12 791 -29 635 -29 c 0
1069 1137 m 1
 708 1137 l 1
 777 1493 l 1
 1138 1493 l 1
 1069 1137 l 1
EndSplineSet
EndChar
StartChar: Agrave
Encoding: 129 192 281
Width: 1585
Flags: W
HStem: 0 21<10 407.882 1184.99 1575> 272 277<695 1104> 1473 20<841.707 1315.52>
Back
1086 1899 m 1
 1233 1635 l 1
 1037 1635 l 1
 803 1899 l 1
 1086 1899 l 1
EndSplineSet
Refer: 400 63182 N 1 0 0 1 1491 373 2
Refer: 37 65 N 1 0 0 1 0 0 3
EndChar
StartChar: Aacute
Encoding: 130 193 282
Width: 1585
Flags: W
HStem: 0 21<10 407.882 1184.99 1575> 272 277<695 1104> 1473 20<841.707 1315.52>
Back
1188 1899 m 1
 1471 1899 l 1
 1135 1635 l 1
 939 1635 l 1
 1188 1899 l 1
EndSplineSet
Refer: 398 63177 N 1 0 0 1 1491 373 2
Refer: 37 65 N 1 0 0 1 0 0 3
EndChar
StartChar: Acircumflex
Encoding: 131 194 283
Width: 1585
Flags: W
HStem: 0 21<10 407.882 1184.99 1575> 272 277<695 1104> 1473 20<841.707 1315.52>
Back
983 1899 m 1
 1291 1899 l 1
 1463 1635 l 1
 1285 1635 l 1
 1117 1796 l 1
 887 1635 l 1
 709 1635 l 1
 983 1899 l 1
EndSplineSet
Refer: 401 61431 N 1 0 0 1 1491 373 2
Refer: 37 65 N 1 0 0 1 0 0 3
EndChar
StartChar: Atilde
Encoding: 132 195 284
Width: 1585
Flags: W
HStem: 0 21<10 407.882 1184.99 1575> 272 277<695 1104> 1473 20<841.707 1315.52> 1635 147<1146.13 1295.69> 1635 266<826 862 1085.57 1110.28 1337 1353.98 725 1475 977 977> 1755 146<892.466 1052.2>
VStem: 1337 138<1782.22 1901>
Back
1284 1636 m 0xf4
 1186 1636 1162 1638 1097 1684 c 2
 1048 1719 l 2
 1007 1748 988 1751 971 1751 c 0
 900 1751 885 1678 877 1635 c 1
 738 1635 l 1
 783 1870 908 1900 939 1900 c 0xec
 1023 1900 1065 1898 1126 1852 c 2
 1177 1813 l 2
 1189 1804 1218 1784 1248 1784 c 0
 1323 1784 1338 1858 1347 1901 c 1
 1486 1901 l 1
 1447 1701 1344 1636 1284 1636 c 0xf4
EndSplineSet
Refer: 399 61429 N 1 0 0 1 1491 373 2
Refer: 37 65 N 1 0 0 1 0 0 3
EndChar
StartChar: Adieresis
Encoding: 133 196 285
Width: 1585
Flags: W
HStem: 0 21<10 407.882 1184.99 1575> 272 277<695 1104> 1473 20<841.707 1315.52> 1653 246<813 1002 1208 1397 766 1446 813 813>
Back
822 1899 m 1
 1057 1899 l 1
 1009 1653 l 1
 774 1653 l 1
 822 1899 l 1
1217 1899 m 1
 1452 1899 l 1
 1404 1653 l 1
 1169 1653 l 1
 1217 1899 l 1
EndSplineSet
Refer: 397 63179 N 1 0 0 1 1491 373 2
Refer: 37 65 N 1 0 0 1 0 0 3
EndChar
StartChar: Aring
Encoding: 134 197 286
Width: 1585
Flags: W
HStem: 0 21G<10 407.882 1184.99 1575> 272 277<695 1104> 1747 154<1028.15 1220.72>
VStem: 816 158<1503.79 1693.6> 1241 156<1572.49 1726.48>
Fore
1397 1671 m 0
 1397 1612 1374 1521 1317 1464 c 1
 1575 0 l 1
 1188 0 l 1
 1147 272 l 1
 545 272 l 1
 397 0 l 1
 10 0 l 1
 838 1464 l 1
 828 1484 816 1515 816 1559 c 0
 816 1731 976 1901 1163 1901 c 0
 1300 1901 1397 1803 1397 1671 c 0
1082 1485 m 256
 1167 1485 1241 1563 1241 1642 c 0
 1241 1703 1195 1747 1133 1747 c 0
 1046 1747 974 1667 974 1591 c 0
 974 1529 1018 1485 1082 1485 c 256
695 549 m 1
 1104 549 l 1
 1015 1143 l 1
 695 549 l 1
EndSplineSet
EndChar
StartChar: AE
Encoding: 135 198 287
Width: 1585
Flags: W
HStem: 0 291<1454 2073> 350 277<757 1080> 633 291<1577 2134> 1202 291<1631 2284>
Fore
1131 1237 m 1
 757 627 l 1
 1134 627 l 1
 1252 1237 l 1
 1131 1237 l 1
915 1493 m 1
 2340 1493 l 1
 2284 1202 l 1
 1631 1202 l 1
 1577 924 l 1
 2191 924 l 1
 2134 633 l 1
 1520 633 l 1
 1454 291 l 1
 2130 291 l 1
 2073 0 l 1
 1012 0 l 1
 1080 350 l 1
 586 350 l 1
 371 0 l 1
 0 0 l 1
 915 1493 l 1
EndSplineSet
EndChar
StartChar: Egrave
Encoding: 137 200 289
Width: 1399
Flags: W
HStem: 0 291<630 1249> 633 291<753 1311> 1202 291<807 1461>
Back
1010 1899 m 1
 1157 1635 l 1
 961 1635 l 1
 727 1899 l 1
 1010 1899 l 1
EndSplineSet
Refer: 400 63182 N 1 0 0 1 1452 373 2
Refer: 41 69 N 1 0 0 1 0 0 3
EndChar
StartChar: Eacute
Encoding: 138 201 290
Width: 1399
Flags: W
HStem: 0 291<630 1249> 633 291<753 1311> 1202 291<807 1461>
Back
1112 1899 m 1
 1395 1899 l 1
 1059 1635 l 1
 863 1635 l 1
 1112 1899 l 1
EndSplineSet
Refer: 398 63177 N 1 0 0 1 1452 373 2
Refer: 41 69 N 1 0 0 1 0 0 3
EndChar
StartChar: Ecircumflex
Encoding: 139 202 291
Width: 1399
Flags: W
HStem: 0 291<630 1249> 633 291<753 1311> 1202 291<807 1461>
Back
907 1899 m 1
 1215 1899 l 1
 1387 1635 l 1
 1209 1635 l 1
 1041 1796 l 1
 811 1635 l 1
 633 1635 l 1
 907 1899 l 1
EndSplineSet
Refer: 401 61431 N 1 0 0 1 1452 373 2
Refer: 41 69 N 1 0 0 1 0 0 3
EndChar
StartChar: Edieresis
Encoding: 140 203 292
Width: 1399
Flags: W
HStem: 0 291<630 1249> 633 291<753 1311> 1202 291<807 1461> 1653 246<774 963 1169 1358 727 1407 774 774>
Back
746 1899 m 1
 981 1899 l 1
 933 1653 l 1
 698 1653 l 1
 746 1899 l 1
1141 1899 m 1
 1376 1899 l 1
 1328 1653 l 1
 1093 1653 l 1
 1141 1899 l 1
EndSplineSet
Refer: 397 63179 N 1 0 0 1 1452 373 2
Refer: 41 69 N 1 0 0 1 0 0 3
EndChar
StartChar: Igrave
Encoding: 141 204 293
Width: 762
Flags: W
Back
674 1899 m 1
 821 1635 l 1
 625 1635 l 1
 391 1899 l 1
 674 1899 l 1
EndSplineSet
Refer: 400 63182 N 1 0 0 1 1095 373 2
Refer: 45 73 N 1 0 0 1 0 0 3
EndChar
StartChar: Iacute
Encoding: 142 205 294
Width: 762
Flags: W
Back
776 1899 m 1
 1059 1899 l 1
 723 1635 l 1
 527 1635 l 1
 776 1899 l 1
EndSplineSet
Refer: 398 63177 N 1 0 0 1 1095 373 2
Refer: 45 73 N 1 0 0 1 0 0 3
EndChar
StartChar: Icircumflex
Encoding: 143 206 295
Width: 762
Flags: W
Back
571 1899 m 1
 879 1899 l 1
 1051 1635 l 1
 873 1635 l 1
 705 1796 l 1
 475 1635 l 1
 297 1635 l 1
 571 1899 l 1
EndSplineSet
Refer: 401 61431 N 1 0 0 1 1095 373 2
Refer: 45 73 N 1 0 0 1 0 0 3
EndChar
StartChar: Idieresis
Encoding: 144 207 296
Width: 762
Flags: W
HStem: 1653 246<417 606 812 1001 370 1050 417 417>
Back
410 1899 m 1
 645 1899 l 1
 597 1653 l 1
 362 1653 l 1
 410 1899 l 1
805 1899 m 1
 1040 1899 l 1
 992 1653 l 1
 757 1653 l 1
 805 1899 l 1
EndSplineSet
Refer: 397 63179 N 1 0 0 1 1095 373 2
Refer: 45 73 N 1 0 0 1 0 0 3
EndChar
StartChar: Eth
Encoding: 145 208 297
Width: 1716
Flags: W
HStem: 0 21G<207 724> 621 260<204 328 763 948> 1202 291<826 1198.34>
VStem: 1372 403<651.509 1048.41>
Fore
786 291 m 2
 1269 291 1372 670 1372 872 c 0
 1372 1091 1228 1202 963 1202 c 2
 826 1202 l 1
 763 881 l 1
 998 881 l 1
 948 621 l 1
 713 621 l 1
 649 291 l 1
 786 291 l 2
497 1493 m 1
 902 1493 l 2
 1277 1493 1502 1461 1654 1280 c 0
 1739 1178 1775 1058 1775 924 c 0
 1775 641 1623 186 1125 48 c 0
 1007 16 836 0 612 0 c 2
 207 0 l 1
 328 621 l 1
 154 621 l 1
 204 881 l 1
 378 881 l 1
 497 1493 l 1
EndSplineSet
EndChar
StartChar: Ntilde
Encoding: 146 209 298
Width: 1714
Flags: W
HStem: 0 21<188 556.887 1089.28 1529.88> 1473 20<474.115 914.719 1447.11 1816> 1635 147<1197.13 1346.69> 1635 266<877 913 1136.57 1161.28 1388 1404.98 776 1526 1028 1028> 1755 146<943.466 1103.2>
VStem: 1388 138<1782.22 1901>
Back
1337 1636 m 0xe8
 1239 1636 1215 1638 1150 1684 c 2
 1101 1719 l 2
 1060 1748 1041 1751 1024 1751 c 0
 953 1751 938 1678 930 1635 c 1
 791 1635 l 1
 836 1870 961 1900 992 1900 c 0xd8
 1076 1900 1118 1898 1179 1852 c 2
 1230 1813 l 2
 1242 1804 1271 1784 1301 1784 c 0
 1376 1784 1391 1858 1400 1901 c 1
 1539 1901 l 1
 1500 1701 1397 1636 1337 1636 c 0xe8
EndSplineSet
Refer: 399 61429 N 1 0 0 1 1542 373 2
Refer: 50 78 N 1 0 0 1 0 0 3
EndChar
StartChar: Ograve
Encoding: 147 210 299
Width: 1741
Flags: W
HStem: -29 279<751.665 1103.4> 1241 279<927.934 1278.32>
VStem: 226 402<382.777 841.166> 1403 401<651.213 1107.59>
Back
1164 1899 m 1
 1311 1635 l 1
 1115 1635 l 1
 881 1899 l 1
 1164 1899 l 1
EndSplineSet
Refer: 400 63182 N 1 0 0 1 1599 373 2
Refer: 51 79 N 1 0 0 1 0 0 3
EndChar
StartChar: Oacute
Encoding: 148 211 300
Width: 1741
Flags: W
HStem: -29 279<751.665 1103.4> 1241 279<927.934 1278.32>
VStem: 226 402<382.777 841.166> 1403 401<651.213 1107.59>
Back
1266 1899 m 1
 1549 1899 l 1
 1213 1635 l 1
 1017 1635 l 1
 1266 1899 l 1
EndSplineSet
Refer: 398 63177 N 1 0 0 1 1599 373 2
Refer: 51 79 N 1 0 0 1 0 0 3
EndChar
StartChar: Ocircumflex
Encoding: 149 212 301
Width: 1741
Flags: W
HStem: -29 279<751.665 1103.4> 1241 279<927.934 1278.32>
VStem: 226 402<382.777 841.166> 1403 401<651.213 1107.59>
Back
1061 1899 m 1xf8
 1369 1899 l 1
 1541 1635 l 1
 1363 1635 l 1
 1195 1796 l 1
 965 1635 l 1
 787 1635 l 1
 1061 1899 l 1xf8
EndSplineSet
Refer: 401 61431 N 1 0 0 1 1599 373 2
Refer: 51 79 N 1 0 0 1 0 0 3
EndChar
StartChar: Otilde
Encoding: 150 213 302
Width: 1741
Flags: W
HStem: -29 279<751.665 1103.4> 1241 279<927.934 1278.32> 1635 147<1254.13 1403.69> 1635 266<934 970 1193.57 1218.28 1445 1461.98 833 1583 1085 1085> 1755 146<1000.47 1160.2>
VStem: 226 402<382.777 841.166> 1403 401<651.213 1107.59> 1445 138<1782.22 1901>
Back
1362 1636 m 0xee
 1264 1636 1240 1638 1175 1684 c 2
 1126 1719 l 2
 1085 1748 1066 1751 1049 1751 c 0
 978 1751 963 1678 955 1635 c 1
 816 1635 l 1
 861 1870 986 1900 1017 1900 c 0xde
 1101 1900 1143 1898 1204 1852 c 2
 1255 1813 l 2
 1267 1804 1296 1784 1326 1784 c 0
 1401 1784 1416 1858 1425 1901 c 1
 1564 1901 l 1
 1525 1701 1422 1636 1362 1636 c 0xee
EndSplineSet
Refer: 399 61429 N 1 0 0 1 1599 373 2
Refer: 51 79 N 1 0 0 1 0 0 3
EndChar
StartChar: Odieresis
Encoding: 151 214 303
Width: 1741
Flags: W
HStem: -29 279<751.665 1103.4> 1241 279<927.934 1278.32> 1653 246<921 1110 1316 1505 874 1554 921 921>
VStem: 226 402<382.777 841.166> 1403 401<651.213 1107.59>
Back
900 1899 m 1
 1135 1899 l 1
 1087 1653 l 1
 852 1653 l 1
 900 1899 l 1
1295 1899 m 1
 1530 1899 l 1
 1482 1653 l 1
 1247 1653 l 1
 1295 1899 l 1
EndSplineSet
Refer: 397 63179 N 1 0 0 1 1599 373 2
Refer: 51 79 N 1 0 0 1 0 0 3
EndChar
StartChar: multiply
Encoding: 152 215 304
Width: 1716
Flags: W
Fore
1669 1075 m 1
 1151 641 l 1
 1501 209 l 1
 1300 41 l 1
 950 473 l 1
 432 41 l 1
 297 209 l 1
 815 641 l 1
 465 1075 l 1
 666 1243 l 1
 1015 809 l 1
 1534 1243 l 1
 1669 1075 l 1
EndSplineSet
EndChar
StartChar: Oslash
Encoding: 153 216 305
Width: 1741
Flags: W
HStem: -29 279<748.815 1103.44> 1241 279<930.459 1278.54>
VStem: 226 401<522.841 837.496> 1404 400<652.546 976.113>
Fore
919 250 m 0
 1307 250 1404 719 1404 913 c 0
 1404 936 1403 958 1400 979 c 1
 676 371 l 1
 724 295 799 250 919 250 c 0
1111 1241 m 0
 724 1241 627 772 627 573 c 0
 627 555 627 538 629 522 c 1
 1352 1126 l 1
 1298 1204 1219 1241 1111 1241 c 0
1804 946 m 0
 1804 529 1542 -29 864 -29 c 0
 647 -29 494 30 385 129 c 1
 144 -74 l 1
 53 39 l 1
 297 244 l 1
 251 328 226 426 226 545 c 0
 226 862 414 1520 1165 1520 c 0
 1336 1520 1505 1487 1640 1368 c 1
 1878 1567 l 1
 1968 1452 l 1
 1729 1253 l 1
 1777 1169 1804 1068 1804 946 c 0
EndSplineSet
EndChar
StartChar: Ugrave
Encoding: 154 217 306
Width: 1663
Flags: W
HStem: -29 283<727.68 1049.46> 1473 20<474.112 863 1376.11 1765>
VStem: 284 389<313.022 528.206> 478 385<654.716 1493>
Back
1125 1899 m 1xe0
 1272 1635 l 1
 1076 1635 l 1
 842 1899 l 1
 1125 1899 l 1xe0
EndSplineSet
Refer: 400 63182 N 1 0 0 1 1533 373 2
Refer: 57 85 N 1 0 0 1 0 0 3
EndChar
StartChar: Uacute
Encoding: 155 218 307
Width: 1663
Flags: W
HStem: -29 283<727.68 1049.46> 1473 20<474.112 863 1376.11 1765>
VStem: 284 389<313.022 528.206> 478 385<654.716 1493>
Back
1227 1899 m 1xe0
 1510 1899 l 1
 1174 1635 l 1
 978 1635 l 1
 1227 1899 l 1xe0
EndSplineSet
Refer: 398 63177 N 1 0 0 1 1533 373 2
Refer: 57 85 N 1 0 0 1 0 0 3
EndChar
StartChar: Ucircumflex
Encoding: 156 219 308
Width: 1663
Flags: W
HStem: -29 283<727.68 1049.46> 1473 20<474.112 863 1376.11 1765>
VStem: 284 389<313.022 528.206> 478 385<654.716 1493>
Back
1022 1899 m 1xe4
 1330 1899 l 1
 1502 1635 l 1
 1324 1635 l 1
 1156 1796 l 1
 926 1635 l 1
 748 1635 l 1
 1022 1899 l 1xe4
EndSplineSet
Refer: 401 61431 N 1 0 0 1 1533 373 2
Refer: 57 85 N 1 0 0 1 0 0 3
EndChar
StartChar: Udieresis
Encoding: 157 220 309
Width: 1663
Flags: W
HStem: -29 283<727.68 1049.46> 1473 20<474.112 863 1376.11 1765> 1653 246<855 1044 1250 1439 808 1488 855 855>
VStem: 284 389<313.022 528.206> 478 385<654.716 1493>
Back
861 1899 m 1xe0
 1096 1899 l 1
 1048 1653 l 1
 813 1653 l 1
 861 1899 l 1xe0
1256 1899 m 1
 1491 1899 l 1
 1443 1653 l 1
 1208 1653 l 1
 1256 1899 l 1
EndSplineSet
Refer: 397 63179 N 1 0 0 1 1533 373 2
Refer: 57 85 N 1 0 0 1 0 0 3
EndChar
StartChar: Yacute
Encoding: 158 221 310
Width: 1483
Flags: W
HStem: 0 21<549 937.879> 1473 20<270 699.91 1354.35 1793>
Back
1137 1899 m 1
 1420 1899 l 1
 1084 1635 l 1
 888 1635 l 1
 1137 1899 l 1
EndSplineSet
Refer: 398 63177 N 1 0 0 1 1452 373 2
Refer: 61 89 N 1 0 0 1 0 0 3
EndChar
StartChar: Thorn
Encoding: 159 222 311
Width: 1511
Flags: W
HStem: 0 21G<188 576.876> 258 279<677 1049.07> 956 277<813 1121.37> 1473 20G<474.115 863>
VStem: 1170 404<648.474 907.62>
Fore
1574 861 m 0
 1574 645 1449 258 877 258 c 2
 623 258 l 1
 573 0 l 1
 188 0 l 1
 478 1493 l 1
 863 1493 l 1
 813 1233 l 1
 1067 1233 l 2
 1380 1233 1574 1115 1574 861 c 0
890 537 m 2
 1114 537 1170 701 1170 798 c 0
 1170 902 1098 956 972 956 c 2
 759 956 l 1
 677 537 l 1
 890 537 l 2
EndSplineSet
EndChar
StartChar: germandbls
Encoding: 160 223 312
Width: 1473
Flags: W
HStem: -29 238<769.048 1043.4> 1319 237<840.062 1116.95>
VStem: 790 329<719.355 924.725> 1101 360<310.439 451.056>
Fore
913 209 m 0xd0
 1017 209 1101 272 1101 366 c 0xd0
 1101 417 1067 452 978 508 c 2
 915 547 l 2
 845 590 790 654 790 756 c 0
 790 910 882 1061 1144 1145 c 1
 1147 1161 1148 1176 1148 1189 c 0
 1148 1275 1092 1319 989 1319 c 0
 885 1319 778 1275 744 1100 c 2
 530 0 l 1
 172 0 l 1
 389 1114 l 2
 450 1432 682 1556 1017 1556 c 0
 1393 1556 1473 1382 1473 1224 c 0
 1473 1185 1468 1148 1462 1114 c 2
 1448 1043 l 1
 1172 1025 1119 934 1119 861 c 0xe0
 1119 815 1155 785 1235 735 c 2
 1297 698 l 2
 1388 641 1461 564 1461 432 c 0
 1461 406 1458 378 1452 348 c 0
 1393 46 1159 -29 918 -29 c 0
 863 -29 775 -23 651 20 c 1
 698 264 l 1
 753 235 827 209 913 209 c 0xd0
EndSplineSet
EndChar
StartChar: acircumflex
Encoding: 163 226 315
Width: 1382
Flags: W
HStem: -29 238<403.391 695.384> 504 213<588.715 958> 909 238<585.245 963.233>
VStem: 145 370<237.357 383.594> 560 754<1262 1262 1262 1262> 1009 353<732.367 865.889>
Back
895 1638 m 1xfc
 1137 1638 l 1
 1320 1262 l 1
 1142 1262 l 1
 987 1487 l 1
 744 1262 l 1
 566 1262 l 1
 895 1638 l 1xfc
EndSplineSet
Refer: 366 710 N 1 0 0 1 180 0 2
Refer: 69 97 N 1 0 0 1 0 0 3
EndChar
StartChar: atilde
Encoding: 164 227 316
Width: 1382
Flags: W
HStem: -29 238<403.391 695.384> 504 213<588.715 958> 909 238<585.245 963.233> 1307 155<1026.72 1178.25> 1438 155<766.283 920.304>
VStem: 145 370<237.357 383.594> 598 139<1335.48 1405.76> 1009 353<732.367 865.889> 1210 139<1463.16 1591>
Back
1151 1310 m 0xeb
 1053 1310 1029 1312 964 1358 c 2
 915 1393 l 2
 873 1422 855 1425 838 1425 c 0xe7
 767 1425 752 1352 743 1309 c 1
 604 1309 l 1
 650 1544 775 1574 806 1574 c 0xf3
 890 1574 932 1572 993 1526 c 2
 1044 1487 l 2
 1055 1478 1084 1458 1114 1458 c 0
 1189 1458 1205 1532 1213 1575 c 1
 1352 1575 l 1
 1313 1375 1211 1310 1151 1310 c 0xeb
EndSplineSet
Refer: 372 732 N 1 0 0 1 180 0 2
Refer: 69 97 N 1 0 0 1 0 0 3
EndChar
StartChar: aring
Encoding: 166 229 318
Width: 1382
Flags: W
HStem: -29 238<403.391 695.384> 504 213<588.715 958> 909 238<585.245 963.233> 1249 154<876.132 1068.5> 1665 154<909.728 1104.66>
VStem: 145 370<237.357 383.594> 700 156<1424.41 1609.74> 1009 353<732.367 865.889> 1124 157<1458.4 1644.99>
Back
1022 1665 m 0xfe80
 910 1665 862 1571 862 1503 c 0
 862 1441 902 1403 971 1403 c 0
 1078 1403 1130 1490 1130 1567 c 0
 1130 1628 1091 1665 1022 1665 c 0xfe80
705 1477 m 0
 705 1658 870 1819 1052 1819 c 256
 1192 1819 1287 1723 1287 1591 c 0
 1287 1410 1123 1249 941 1249 c 256
 800 1249 705 1345 705 1477 c 0
EndSplineSet
Refer: 370 730 N 1 0 0 1 180 0 2
Refer: 69 97 N 1 0 0 1 0 0 3
EndChar
StartChar: ae
Encoding: 167 230 319
Width: 2146
Flags: W
HStem: -29 238<409.891 747.442 1381.64 1829.91> 461 221<1350 1812> 504 213<588.715 958> 909 238<462.09 968.966 1482.51 1762.45>
VStem: 145 370<236.008 383.501>
Fore
1812 682 m 1xd8
 1816 701 1817 720 1817 737 c 0
 1817 843 1752 909 1641 909 c 0
 1494 909 1396 819 1350 682 c 1
 1812 682 l 1xd8
772 504 m 2xb8
 556 504 515 394 515 321 c 0
 515 247 572 209 662 209 c 0
 797 209 921 315 950 463 c 2
 958 504 l 1
 772 504 l 2xb8
761 909 m 0
 600 909 464 875 345 817 c 1
 398 1090 l 1
 531 1120 694 1147 848 1147 c 0
 1048 1147 1181 1097 1256 991 c 1
 1369 1086 1514 1147 1689 1147 c 0
 1989 1147 2172 983 2172 707 c 0
 2172 662 2167 614 2157 563 c 2
 2138 461 l 1
 1300 461 l 1xd8
 1299 449 1299 438 1299 427 c 0
 1299 280 1388 209 1561 209 c 0
 1751 209 1934 281 2062 344 c 1
 2008 68 l 1
 1803 -4 1627 -29 1481 -29 c 0
 1244 -29 1077 44 1006 178 c 1
 843 35 687 -29 502 -29 c 0
 282 -29 145 73 145 255 c 0
 145 280 147 307 153 336 c 0
 198 565 356 717 788 717 c 2
 999 717 l 1
 1005 745 l 2
 1007 757 1009 769 1009 781 c 0
 1009 859 947 909 761 909 c 0
EndSplineSet
EndChar
StartChar: ecircumflex
Encoding: 171 234 323
Width: 1389
Flags: W
HStem: -29 238<624.583 1071.98> 461 221<590 1055> 909 238<724.557 1005.34>
VStem: 182 359<287.083 459.772> 607 754<1262 1262 1262 1262>
Back
926 1638 m 1
 1168 1638 l 1
 1351 1262 l 1
 1173 1262 l 1
 1018 1487 l 1
 775 1262 l 1
 597 1262 l 1
 926 1638 l 1
EndSplineSet
Refer: 366 710 N 1 0 0 1 227 0 2
Refer: 73 101 N 1 0 0 1 0 0 3
EndChar
StartChar: igrave
Encoding: 173 236 325
Width: 702
Flags: W
HStem: 0 20 1100 20<390 748 748 748> 1262 376<554 763 554 554>
Back
390 1120 m 1
 748 1120 l 1
 530 0 l 1
 172 0 l 1
 390 1120 l 1
EndSplineSet
Refer: 68 96 N 1 0 0 1 -141 0 2
Refer: 353 305 N 1 0 0 1 0 0 3
EndChar
StartChar: iacute
Encoding: 174 237 326
Width: 702
Flags: W
HStem: 0 20 1100 20<390 748 748 748> 1262 376<665 824 824 824>
Back
390 1120 m 1
 748 1120 l 1
 530 0 l 1
 172 0 l 1
 390 1120 l 1
EndSplineSet
Refer: 119 180 N 1 0 0 1 -141 0 2
Refer: 353 305 N 1 0 0 1 0 0 3
EndChar
StartChar: icircumflex
Encoding: 175 238 327
Width: 702
Flags: W
HStem: 0 20 1100 20<390 748 748 748>
VStem: 239 754<1262 1262 1262 1262>
Back
572 1638 m 1
 814 1638 l 1
 997 1262 l 1
 819 1262 l 1
 664 1487 l 1
 421 1262 l 1
 243 1262 l 1
 572 1638 l 1
390 1120 m 1
 748 1120 l 1
 530 0 l 1
 172 0 l 1
 390 1120 l 1
EndSplineSet
Refer: 366 710 N 1 0 0 1 -141 0 2
Refer: 353 305 N 1 0 0 1 0 0 3
EndChar
StartChar: idieresis
Encoding: 176 239 328
Width: 702
Flags: W
HStem: 0 20 1100 20<390 748 748 748> 1339 246<364 551 759 946 316 994 364 364>
Back
390 1120 m 1
 748 1120 l 1
 530 0 l 1
 172 0 l 1
 390 1120 l 1
EndSplineSet
Refer: 107 168 N 1 0 0 1 -141 0 2
Refer: 353 305 N 1 0 0 1 0 0 3
EndChar
StartChar: eth
Encoding: 177 240 329
Width: 1407
Flags: W
HStem: -29 256<621.497 892.674> 797 258<700.051 977.869> 1128 21G<467.14 535.555> 1536 20G<634 1001.34>
VStem: 182 374<289.496 637.262> 1067 376<443.838 750.242>
Fore
860 797 m 0
 617 797 556 583 556 442 c 0
 556 313 617 227 749 227 c 0
 1003 227 1067 535 1067 681 c 0
 1067 702 1066 723 1064 743 c 1
 1016 769 946 797 860 797 c 0
182 412 m 0
 182 776 425 1055 858 1055 c 0
 922 1055 969 1046 1013 1028 c 1
 865 1247 l 1
 469 1128 l 1
 457 1257 l 1
 783 1354 l 1
 634 1556 l 1
 986 1556 l 1
 1075 1440 l 1
 1473 1554 l 1
 1483 1425 l 1
 1149 1329 l 1
 1310 1100 l 2
 1393 976 1443 852 1443 704 c 0
 1443 393 1244 -29 699 -29 c 0
 367 -29 182 131 182 412 c 0
EndSplineSet
EndChar
StartChar: ntilde
Encoding: 178 241 330
Width: 1458
Flags: W
HStem: 0 21<172 533.884 938 1301.9> 877 270<922.65 1197.89> 1307 155<1063.72 1215.25> 1438 155<803.283 957.304>
VStem: 635 139<1335.48 1405.76> 1070 377<710.264 852.246> 1247 139<1463.16 1591>
Back
1207 1310 m 0xd4
 1109 1310 1085 1312 1020 1358 c 2
 971 1393 l 2
 929 1422 911 1425 894 1425 c 0xcc
 823 1425 808 1352 799 1309 c 1
 660 1309 l 1
 706 1544 831 1574 862 1574 c 0xe4
 946 1574 988 1572 1049 1526 c 2
 1100 1487 l 2
 1111 1478 1140 1458 1170 1458 c 0
 1245 1458 1261 1532 1269 1575 c 1
 1408 1575 l 1
 1369 1375 1267 1310 1207 1310 c 0xd4
EndSplineSet
Refer: 372 732 N 1 0 0 1 217 0 2
Refer: 82 110 N 1 0 0 1 0 0 3
EndChar
StartChar: ocircumflex
Encoding: 181 244 333
Width: 1407
Flags: W
HStem: -29 256<620.631 884.435> 891 256<736.924 1005.45>
VStem: 182 375<287.646 672.232> 573 754<1262 1262 1262 1262> 1068 375<451.66 830.654>
Back
924 1638 m 1xf8
 1166 1638 l 1
 1349 1262 l 1
 1171 1262 l 1
 1016 1487 l 1
 773 1262 l 1
 595 1262 l 1
 924 1638 l 1xf8
EndSplineSet
Refer: 366 710 S 1 0 0 1 193 0 2
Refer: 83 111 S 1 0 0 1 0 0 3
EndChar
StartChar: otilde
Encoding: 182 245 334
Width: 1407
Flags: W
HStem: -29 256<620.631 884.435> 891 256<736.924 1005.45> 1307 155<1039.72 1191.25> 1438 155<779.283 933.304>
VStem: 182 375<287.646 672.232> 611 139<1335.48 1405.76> 1068 375<451.66 830.654> 1223 139<1463.16 1591>
Back
1180 1311 m 0xee
 1082 1311 1058 1313 993 1359 c 2
 944 1394 l 2
 903 1423 884 1426 867 1426 c 0
 796 1426 781 1353 773 1310 c 1
 634 1310 l 1
 679 1545 804 1575 835 1575 c 0xde
 919 1575 961 1573 1022 1527 c 2
 1073 1488 l 2
 1084 1479 1114 1459 1144 1459 c 0
 1219 1459 1234 1533 1242 1576 c 1
 1381 1576 l 1
 1342 1376 1240 1311 1180 1311 c 0xee
EndSplineSet
Refer: 372 732 N 1 0 0 1 193 0 2
Refer: 83 111 N 1 0 0 1 0 0 3
EndChar
StartChar: divide
Encoding: 184 247 336
Width: 1716
Flags: W
HStem: 86 309<782 1029> 524 236<365 1601> 889 309<938 1185>
CounterMasks: 1 e0
Fore
782 395 m 1
 1089 395 l 1
 1029 86 l 1
 722 86 l 1
 782 395 l 1
938 1198 m 1
 1245 1198 l 1
 1185 889 l 1
 878 889 l 1
 938 1198 l 1
365 760 m 1
 1647 760 l 1
 1601 524 l 1
 319 524 l 1
 365 760 l 1
EndSplineSet
EndChar
StartChar: oslash
Encoding: 185 248 337
Width: 1407
Flags: W
HStem: -29 256<653.978 893.38> 891 256<739.745 972.881> 1197 20G<1426.47 1466.62>
VStem: 182 376<426 436.5 380.25 663.028> 1068 375<447.45 698>
Fore
878 891 m 0
 611 891 557 556 557 447 c 0
 557 440 558 433 558 426 c 1
 1019 836 l 1
 984 877 935 891 878 891 c 0
749 227 m 0
 1004 227 1068 533 1068 698 c 1
 603 287 l 1
 639 244 690 227 749 227 c 0
1443 705 m 0
 1443 396 1247 -29 699 -29 c 0
 589 -29 461 -12 350 61 c 1
 172 -94 l 1
 78 0 l 1
 254 158 l 1
 202 236 182 324 182 414 c 0
 182 660 331 1147 928 1147 c 0
 1076 1147 1186 1115 1271 1059 c 1
 1449 1217 l 1
 1538 1116 l 1
 1368 967 l 1
 1422 888 1443 798 1443 705 c 0
EndSplineSet
EndChar
StartChar: ucircumflex
Encoding: 188 251 340
Width: 1458
Flags: W
HStem: -29 271<483.062 753.043> 1100 20<374.111 738 1142.09 1504>
VStem: 229 381<267.758 481.45> 597 754<1262 1262 1262 1262>
Back
951 1638 m 1
 1193 1638 l 1
 1376 1262 l 1
 1198 1262 l 1
 1043 1487 l 1
 800 1262 l 1
 622 1262 l 1
 951 1638 l 1
EndSplineSet
Refer: 366 710 N 1 0 0 1 217 0 2
Refer: 89 117 N 1 0 0 1 0 0 3
EndChar
StartChar: thorn
Encoding: 191 254 343
Width: 1466
Flags: W
HStem: -426 21G<89 450.878> -29 260<703.26 952.396> 887 260<916.215 1216.44> 1536 20G<470.115 832>
VStem: 1126 373<450.221 830.476>
Fore
1499 718 m 0
 1499 364 1258 -29 895 -29 c 0
 714 -29 622 54 561 162 c 1
 447 -426 l 1
 89 -426 l 1
 474 1556 l 1
 832 1556 l 1
 716 956 l 1
 818 1063 942 1147 1124 1147 c 0
 1362 1147 1499 974 1499 718 c 0
813 231 m 256
 1063 231 1126 541 1126 678 c 0
 1126 803 1073 887 940 887 c 256
 689 887 626 576 626 442 c 0
 626 316 680 231 813 231 c 256
EndSplineSet
EndChar
StartChar: Cacute
Encoding: 193 262 345
Width: 1503
Flags: W
HStem: -29 279<801.218 1210.51> 1241 279<971.007 1421.68>
VStem: 228 402<411.333 849.687>
Back
1290 1899 m 1
 1573 1899 l 1
 1237 1635 l 1
 1041 1635 l 1
 1290 1899 l 1
EndSplineSet
Refer: 398 63177 N 1 0 0 1 1652 373 2
Refer: 39 67 N 1 0 0 1 0 0 3
EndChar
StartChar: Ccaron
Encoding: 195 268 347
Width: 1503
Flags: W
HStem: -29 279<801.218 1210.51> 1241 279<971.007 1421.68>
VStem: 228 402<411.333 849.687>
Back
1034 1635 m 1
 862 1899 l 1
 1040 1899 l 1
 1208 1737 l 1
 1438 1899 l 1
 1616 1899 l 1
 1342 1635 l 1
 1034 1635 l 1
EndSplineSet
Refer: 402 63178 N 1 0 0 1 1652 373 2
Refer: 39 67 N 1 0 0 1 0 0 3
EndChar
StartChar: ccaron
Encoding: 196 269 348
Width: 1214
Flags: W
HStem: -29 256<656.866 1026.98> 891 256<769.034 1147.21>
VStem: 182 378<320.073 666.95> 670 754<1638 1638 1638 1638>
Back
847 1262 m 1
 664 1638 l 1
 842 1638 l 1
 997 1411 l 1
 1240 1638 l 1
 1418 1638 l 1
 1089 1262 l 1
 847 1262 l 1
EndSplineSet
Refer: 367 711 N 1 0 0 1 217 0 2
Refer: 71 99 N 1 0 0 1 0 0 3
EndChar
StartChar: dcroat
Encoding: 197 273 349
Width: 1466
Flags: W
HStem: -29 260<468.361 767.025> 887 260<734.761 979.151> 1237 205<888 1174 1574 1688> 1536 20G<1232.14 1596>
VStem: 185 374<291.941 666.205>
Fore
185 398 m 0
 185 751 422 1147 788 1147 c 0
 968 1147 1060 1062 1120 956 c 1
 1174 1237 l 1
 848 1237 l 1
 888 1442 l 1
 1214 1442 l 1
 1236 1556 l 1
 1596 1556 l 1
 1574 1442 l 1
 1728 1442 l 1
 1688 1237 l 1
 1534 1237 l 1
 1294 0 l 1
 934 0 l 1
 965 162 l 1
 866 56 742 -29 559 -29 c 0
 322 -29 185 143 185 398 c 0
870 887 m 0
 621 887 559 575 559 439 c 0
 559 263 664 231 743 231 c 0
 993 231 1056 541 1056 678 c 0
 1056 803 1003 887 870 887 c 0
EndSplineSet
EndChar
StartChar: Gbreve
Encoding: 198 286 350
Width: 1681
Flags: W
HStem: -29 279<801.045 1170.2> 571 258<1091 1276> 1241 279<984.536 1488.73> 1635 149<1051.29 1333.43>
VStem: 228 402<412.867 847.87>
Back
1165 1778 m 0
 1277 1778 1332 1807 1379 1899 c 1
 1522 1899 l 1
 1504 1844 l 2
 1456 1693 1304 1635 1135 1635 c 0
 966 1635 836 1693 846 1844 c 2
 850 1899 l 1
 993 1899 l 1
 1004 1807 1053 1778 1165 1778 c 0
EndSplineSet
Refer: 403 61422 N 1 0 0 1 1566 373 2
Refer: 43 71 N 1 0 0 1 0 0 3
EndChar
StartChar: gbreve
Encoding: 199 287 351
Width: 1466
Flags: W
HStem: -442 237<372.386 776.045> 0 260<470.889 772.148> 887 258<724.354 980.738> 1309 153<885.258 1163.1>
VStem: 188 374<319.501 682.201> 704 148<1495.39 1574.45 1574.45 1606>
Back
1024 1485 m 0
 1136 1485 1191 1514 1238 1606 c 1
 1381 1606 l 1
 1363 1551 l 2
 1315 1400 1163 1342 994 1342 c 0
 831 1342 704 1396 704 1535 c 0
 704 1540 705 1546 705 1551 c 2
 709 1606 l 1
 852 1606 l 1
 863 1514 912 1485 1024 1485 c 0
EndSplineSet
Refer: 75 103 N 1 0 0 1 0 0 3
Refer: 368 728 N 1 0 0 1 221 0 2
EndChar
StartChar: Idotaccent
Encoding: 200 304 352
Width: 762
Flags: W
HStem: 1653 246<597 825 550 872 597 597>
Back
588 1899 m 1
 862 1899 l 1
 814 1653 l 1
 540 1653 l 1
 588 1899 l 1
EndSplineSet
Refer: 404 61421 N 1 0 0 1 1095 373 2
Refer: 45 73 N 1 0 0 1 0 0 3
EndChar
StartChar: dotlessi
Encoding: 201 305 353
Width: 702
Flags: MW
HStem: 0 20 1100 20G<390 748 748 748>
Fore
390 1120 m 1
 748 1120 l 1
 530 0 l 1
 172 0 l 1
 390 1120 l 1
EndSplineSet
EndChar
StartChar: Lslash
Encoding: 202 321 354
Width: 1315
Flags: W
HStem: 0 291<641 1260> 1473 20G<485.105 874>
Fore
489 1493 m 1
 874 1493 l 1
 793 1077 l 1
 1083 1262 l 1
 1189 1069 l 1
 739 797 l 1
 641 291 l 1
 1317 291 l 1
 1260 0 l 1
 199 0 l 1
 301 524 l 1
 132 418 l 1
 26 608 l 1
 355 805 l 1
 489 1493 l 1
EndSplineSet
EndChar
StartChar: lslash
Encoding: 203 322 355
Width: 760
Flags: MW
HStem: 0 21G<199 562.879> 1123 20G<876.818 920.519> 1536 20G<497.111 861>
Fore
501 1556 m 1
 861 1556 l 1
 764 1055 l 1
 910 1143 l 1
 991 989 l 1
 719 825 l 1
 559 0 l 1
 199 0 l 1
 324 641 l 1
 182 555 l 1
 101 709 l 1
 368 872 l 1
 501 1556 l 1
EndSplineSet
EndChar
StartChar: OE
Encoding: 204 338 356
Width: 2390
Flags: W
HStem: 0 291<845.137 1237 1622 2241> 633 291<1745 2302> 1202 291<1003.24 1414 1799 2452>
VStem: 229 404<464.353 785.134>
Fore
645 748 m 0
 637 708 633 670 633 634 c 0
 633 424 772 291 1132 291 c 2
 1237 291 l 1
 1414 1202 l 1
 1309 1202 l 2
 960 1202 710 1079 645 748 c 0
229 572 m 0
 229 890 408 1493 1308 1493 c 2
 2508 1493 l 1
 2452 1202 l 1
 1799 1202 l 1
 1745 924 l 1
 2359 924 l 1
 2302 633 l 1
 1688 633 l 1
 1622 291 l 1
 2298 291 l 1
 2241 0 l 1
 1018 0 l 2
 534 0 229 180 229 572 c 0
EndSplineSet
EndChar
StartChar: oe
Encoding: 205 339 357
Width: 2241
Flags: W
HStem: -29 256<620.631 891.781> -29 238<1471.52 1927.78> 461 221<1442 1907> 891 256<736.924 1006.03> 909 238<1578 1857.26>
VStem: 182 375<287.646 672.232>
Fore
1907 682 m 1x2c
 1911 701 1912 720 1912 737 c 0
 1912 843 1847 909 1736 909 c 0
 1589 909 1488 820 1442 682 c 1
 1907 682 l 1x2c
182 412 m 0
 182 720 377 1147 928 1147 c 0xb4
 1118 1147 1237 1086 1316 979 c 1
 1442 1090 1577 1147 1765 1147 c 0
 2087 1147 2266 982 2266 708 c 0
 2266 662 2261 614 2251 563 c 2
 2232 461 l 1
 1395 461 l 1
 1394 449 1393 437 1393 424 c 0
 1393 324 1436 209 1655 209 c 0
 1845 209 2028 281 2156 344 c 1
 2102 68 l 1
 1961 18 1778 -29 1575 -29 c 0x6c
 1361 -29 1232 20 1157 139 c 1
 1036 36 884 -29 699 -29 c 0xa4
 367 -29 182 131 182 412 c 0
749 227 m 0
 1004 227 1068 542 1068 677 c 0
 1068 805 1013 891 878 891 c 0
 622 891 557 579 557 441 c 0
 557 313 612 227 749 227 c 0
EndSplineSet
EndChar
StartChar: Scaron
Encoding: 208 352 360
Width: 1475
Flags: W
HStem: -29 279<480.487 942.321> 1130 21<1350 1450.86> 1241 279<788.839 1194.76>
VStem: 342 362<872.625 1167.39> 1038 387<399.38 643.874>
Back
877 1635 m 1xfc
 705 1899 l 1
 883 1899 l 1
 1051 1737 l 1
 1281 1899 l 1
 1459 1899 l 1
 1185 1635 l 1
 877 1635 l 1xfc
EndSplineSet
Refer: 402 63178 N 1 0 0 1 1454 373 2
Refer: 55 83 N 1 0 0 1 0 0 3
EndChar
StartChar: scaron
Encoding: 209 353 361
Width: 1219
Flags: W
HStem: -29 238<322.336 791.701> 909 238<618.892 1013.5>
VStem: 252 324<629.945 827.92> 551 754<1638 1638 1638 1638> 847 350<257.628 493.218>
Back
734 1262 m 1xe8
 551 1638 l 1
 729 1638 l 1
 884 1411 l 1
 1127 1638 l 1
 1305 1638 l 1
 976 1262 l 1
 734 1262 l 1xe8
EndSplineSet
Refer: 367 711 N 1 0 0 1 98 0 2
Refer: 87 115 N 1 0 0 1 0 0 3
EndChar
StartChar: Ydieresis
Encoding: 210 376 362
Width: 1483
Flags: W
HStem: 0 21<549 937.879> 1473 20<270 699.91 1354.35 1793> 1653 246<774 963 1169 1358 727 1407 774 774>
Back
771 1899 m 1
 1006 1899 l 1
 958 1653 l 1
 723 1653 l 1
 771 1899 l 1
1166 1899 m 1
 1401 1899 l 1
 1353 1653 l 1
 1118 1653 l 1
 1166 1899 l 1
EndSplineSet
Refer: 397 63179 N 1 0 0 1 1452 373 2
Refer: 61 89 N 1 0 0 1 0 0 3
EndChar
StartChar: Zcaron
Encoding: 211 381 363
Width: 1485
Flags: W
HStem: 0 291<626 1393> 1202 291<405 1127>
Back
883 1635 m 1
 711 1899 l 1
 889 1899 l 1
 1057 1737 l 1
 1287 1899 l 1
 1465 1899 l 1
 1191 1635 l 1
 883 1635 l 1
EndSplineSet
Refer: 402 63178 N 1 0 0 1 1458 373 2
Refer: 62 90 N 1 0 0 1 0 0 3
EndChar
StartChar: zcaron
Encoding: 212 382 364
Width: 1192
Flags: W
HStem: 0 256<554 1094> 864 256<335 850>
VStem: 537 754<1638 1638 1638 1638>
Back
720 1262 m 1
 537 1638 l 1
 715 1638 l 1
 870 1411 l 1
 1113 1638 l 1
 1291 1638 l 1
 962 1262 l 1
 720 1262 l 1
EndSplineSet
Refer: 367 711 N 1 0 0 1 84 0 2
Refer: 94 122 N 1 0 0 1 0 0 3
EndChar
StartChar: florin
Encoding: 213 402 365
Width: 1425
Flags: W
HStem: -426 238<40.0611 269.289> 657 238<444 640 1087 1326> 1319 237<1284.92 1520.35>
Fore
1371 1556 m 0
 1470 1556 1552 1540 1630 1516 c 1
 1580 1262 l 1
 1541 1290 1488 1319 1419 1319 c 0
 1289 1319 1219 1233 1153 1063 c 2
 1087 895 l 1
 1372 895 l 1
 1326 657 l 1
 994 657 l 1
 730 -16 l 2
 633 -263 469 -426 189 -426 c 0
 91 -426 7 -410 -69 -385 c 1
 -19 -131 l 1
 19 -159 72 -188 141 -188 c 0
 271 -188 342 -99 408 68 c 2
 640 657 l 1
 398 657 l 1
 444 895 l 1
 733 895 l 1
 833 1147 l 2
 930 1391 1091 1556 1371 1556 c 0
EndSplineSet
EndChar
StartChar: circumflex
Encoding: 214 710 366
Width: 1024
Flags: MW
VStem: 380 754<1262 1262 1262 1262>
Fore
709 1638 m 1
 951 1638 l 1
 1134 1262 l 1
 956 1262 l 1
 801 1487 l 1
 558 1262 l 1
 380 1262 l 1
 709 1638 l 1
EndSplineSet
EndChar
StartChar: caron
Encoding: 215 711 367
Width: 1024
Flags: MW
VStem: 453 754<1638 1638 1638 1638>
Fore
636 1262 m 1
 453 1638 l 1
 631 1638 l 1
 786 1411 l 1
 1029 1638 l 1
 1207 1638 l 1
 878 1262 l 1
 636 1262 l 1
EndSplineSet
EndChar
StartChar: breve
Encoding: 216 728 368
Width: 1024
Flags: MW
HStem: 1309 153<664.258 942.097>
VStem: 483 148<1495.39 1574.45 1574.45 1606>
Fore
1160 1606 m 1
 1114 1412 973 1309 766 1309 c 256
 584 1309 483 1390 483 1543 c 0
 483 1563 485 1584 488 1606 c 1
 631 1606 l 1
 631 1599 l 2
 631 1510 688 1462 796 1462 c 256
 950 1462 1000 1558 1017 1606 c 1
 1160 1606 l 1
EndSplineSet
EndChar
StartChar: dotaccent
Encoding: 217 729 369
Width: 1024
Flags: W
HStem: 1339 246<683 909 635 957 683 683>
Fore
683 1585 m 1
 957 1585 l 1
 909 1339 l 1
 635 1339 l 1
 683 1585 l 1
EndSplineSet
EndChar
StartChar: ring
Encoding: 218 730 370
Width: 1024
Flags: W
HStem: 1249 154<696.132 888.504> 1665 154<729.728 924.658>
VStem: 520 156<1424.41 1609.74> 944 157<1458.4 1644.99>
Fore
785 1403 m 0
 872 1403 944 1482 944 1561 c 0
 944 1621 899 1665 836 1665 c 0
 745 1665 676 1582 676 1508 c 0
 676 1446 723 1403 785 1403 c 0
1101 1591 m 0
 1101 1411 936 1249 755 1249 c 256
 613 1249 520 1349 520 1479 c 0
 520 1659 688 1819 866 1819 c 256
 1008 1819 1101 1720 1101 1591 c 0
EndSplineSet
EndChar
StartChar: ogonek
Encoding: 219 731 371
Width: 1024
Flags: MW
HStem: -401 147<478.291 622.899>
VStem: 295 177<-302.834 -127.594>
Fore
295 -263 m 0
 295 -141 412 -37 453 0 c 1
 594 0 l 1
 492 -108 472 -147 472 -184 c 0
 472 -227 508 -254 565 -254 c 0
 612 -254 664 -246 727 -223 c 1
 696 -379 l 1
 600 -398 540 -401 502 -401 c 0
 380 -401 295 -360 295 -263 c 0
EndSplineSet
EndChar
StartChar: tilde
Encoding: 220 732 372
Width: 1024
Flags: W
HStem: 1307 155<846.723 998.248> 1438 155<586.283 740.304>
VStem: 418 139<1335.48 1405.76> 1030 139<1463.16 1591>
Fore
929 1462 m 0xb0
 990 1462 1016 1523 1030 1591 c 1
 1169 1591 l 1
 1139 1434 1059 1307 918 1307 c 0xb0
 793.464 1307 725.513 1438 657 1438 c 0
 597 1438 570 1376 557 1309 c 1
 418 1309 l 1
 449 1466 529 1593 670 1593 c 0x70
 798.691 1593 854.537 1462 929 1462 c 0xb0
EndSplineSet
EndChar
StartChar: hungarumlaut
Encoding: 221 733 373
Width: 1024
Flags: MW
Fore
705 1638 m 1
 922 1638 l 1
 601 1262 l 1
 438 1262 l 1
 705 1638 l 1
1068 1638 m 1
 1299 1638 l 1
 954 1262 l 1
 780 1262 l 1
 1068 1638 l 1
EndSplineSet
EndChar
StartChar: Omega
Encoding: 222 937 374
Width: 1575
Flags: W
HStem: 0 256<105 396 1277 1518> 1241 268<833.228 1208.48>
VStem: 242 306<452.697 907.672> 1336 315<716.412 1113.42>
Fore
1651 986 m 0
 1651 864 1627 539 1277 256 c 1
 1568 256 l 1
 1518 0 l 1
 909 0 l 1
 966 291 l 1
 1299 491 1336 829 1336 931 c 0
 1336 1122 1231 1241 1027 1241 c 0
 708 1241 548 946 548 667 c 0
 548 509 607 379 721 291 c 1
 664 0 l 1
 55 0 l 1
 105 256 l 1
 396 256 l 1
 309 359 242 489 242 667 c 0
 242 1046 520 1509 1079 1509 c 0
 1445 1509 1651 1306 1651 986 c 0
EndSplineSet
EndChar
StartChar: pi
Encoding: 223 960 375
Width: 1319
Flags: W
HStem: 0 21G<174 468.373 698 992.442> 868 224<370.532 470 470 495 781 1019 1308 1484>
Fore
108 738 m 1
 195 991 313 1092 611 1092 c 2
 1566 1092 l 1
 1484 868 l 1
 1308 868 l 1
 985 0 l 1
 698 0 l 1
 1019 868 l 1
 781 868 l 1
 461 0 l 1
 174 0 l 1
 495 868 l 1
 470 868 l 2
 396 868 352 828 321 738 c 1
 108 738 l 1
EndSplineSet
EndChar
StartChar: Euro
Encoding: 344 8364 376
Width: 1425
Flags: W
HStem: -29 262<795.988 1145.15> 477 195<180 271 666 965> 821 195<246 307 770 1186> 1257 263<971.655 1360.17>
Fore
278 672 m 1
 280 702 298 792 307 821 c 1
 121 821 l 1
 246 1016 l 1
 375 1016 l 1
 529 1318 793 1520 1169 1520 c 0
 1336 1520 1464 1473 1562 1409 c 1
 1502 1100 l 1
 1423 1193 1314 1257 1168 1257 c 0
 957 1257 837 1131 770 1016 c 1
 1309 1016 l 1
 1186 821 l 1
 693 821 l 1
 683 794 666 707 663 672 c 1
 1092 672 l 1
 965 477 l 1
 666 477 l 1
 709 278 844 233 968 233 c 0
 1115 233 1247 298 1364 391 c 1
 1304 82 l 1
 1145 -1 997 -29 868 -29 c 0
 495 -29 305 173 271 477 c 1
 54 477 l 1
 180 672 l 1
 278 672 l 1
EndSplineSet
EndChar
StartChar: trademark
Encoding: 345 8482 377
Width: 2048
Flags: W
HStem: 915 578<729 817 1216 1276 1711 1796 1443 1796 585 585> 1350 143<585 729 901 1075>
Fore
1443 1493 m 1x80
 1518 1266 l 1
 1681 1493 l 1x80
 1908 1493 l 1x40
 1796 915 l 1
 1626 915 l 1
 1711 1352 l 1
 1524 1096 l 1
 1448 1096 l 1
 1361 1352 l 1
 1276 915 l 1
 1104 915 l 1
 1216 1493 l 1
 1443 1493 l 1x80
1103 1493 m 1x40
 1075 1350 l 1
 901 1350 l 1x40
 817 915 l 1
 645 915 l 1x80
 729 1350 l 1
 557 1350 l 1x40
 585 1493 l 1x80
 1103 1493 l 1x40
EndSplineSet
EndChar
StartChar: partialdiff
Encoding: 346 8706 378
Width: 1114
Flags: W
HStem: -25 76<404.124 576.089> 770 90<601.406 790.354> 1249 113<775.432 1002.19>
VStem: 125 252<126.578 414.884> 1019 204<981.814 1178.94>
Fore
125 297 m 0
 125 567 351 860 640 860 c 0
 755 860 851 826 899 684 c 1
 997 942 1019 1055 1019 1119 c 0
 1019 1191 998 1249 954 1249 c 0
 884 1249 743 1063 606 1063 c 0
 551 1063 514 1100 514 1155 c 0
 514 1262 681 1362 865 1362 c 0
 1111 1362 1223 1194 1223 951 c 0
 1223 544 937 -25 470 -25 c 0
 261 -25 125 100 125 297 c 0
707 770 m 0
 509 770 377 348 377 189 c 0
 377 110 405 51 485 51 c 2
 489 51 l 2
 676 51 812 462 812 630 c 0
 812 709 785 770 707 770 c 0
EndSplineSet
EndChar
StartChar: uni2206
Encoding: 347 8710 379
Width: 1427
Flags: W
HStem: 0 256<437 1090>
Fore
929 1110 m 1
 437 256 l 1
 1090 256 l 1
 929 1110 l 1
849 1473 m 1
 1150 1473 l 1
 1427 0 l 1
 0 0 l 1
 849 1473 l 1
EndSplineSet
EndChar
StartChar: product
Encoding: 348 8719 380
Width: 1612
Flags: W
HStem: 1184 289<724 1344>
Fore
436 1473 m 1
 1744 1473 l 1
 1382 -393 l 1
 1038 -393 l 1
 1344 1184 l 1
 724 1184 l 1
 418 -393 l 1
 74 -393 l 1
 436 1473 l 1
EndSplineSet
EndChar
StartChar: summation
Encoding: 349 8721 381
Width: 1470
Flags: W
HStem: -393 266<469 1351> 1208 265<731 1609>
Fore
352 1473 m 1
 1660 1473 l 1
 1609 1208 l 1
 731 1208 l 1
 1225 563 l 1
 469 -127 l 1
 1402 -127 l 1
 1351 -393 l 1
 -35 -393 l 1
 -2 -221 l 1
 846 551 l 1
 307 1241 l 1
 352 1473 l 1
EndSplineSet
EndChar
StartChar: minus
Encoding: 350 8722 382
Width: 1716
Flags: W
HStem: 524 236<365 1601>
Fore
365 760 m 1
 1647 760 l 1
 1601 524 l 1
 319 524 l 1
 365 760 l 1
EndSplineSet
EndChar
StartChar: uni2215
Encoding: 351 8725 383
Width: 342
Flags: W
HStem: -29 21G<-414 -174.054> 1500 20G<805.054 1045>
Fore
-190 -29 m 1
 -414 -29 l 1
 821 1520 l 1
 1045 1520 l 1
 -190 -29 l 1
EndSplineSet
EndChar
StartChar: uni2219
Encoding: 352 8729 384
Width: 778
Flags: W
HStem: 518 387<385 670 310 745 385 385>
Fore
385 905 m 1
 745 905 l 1
 670 518 l 1
 310 518 l 1
 385 905 l 1
EndSplineSet
EndChar
StartChar: radical
Encoding: 353 8730 385
Width: 1366
Flags: W
HStem: 1565 149<1578 1674>
Fore
1488 1714 m 1
 1703 1714 l 1
 1674 1565 l 1
 1578 1565 l 1
 676 -41 l 1
 557 -41 l 1
 414 805 l 1
 259 750 l 1
 247 879 l 1
 632 1006 l 1
 731 371 l 1
 1488 1714 l 1
EndSplineSet
EndChar
StartChar: infinity
Encoding: 354 8734 386
Width: 1706
Flags: W
HStem: 186 248<473.238 695.436 1134.8 1392.46> 791 239<550.719 815.213 1235.52 1479.4>
VStem: 303 127<473.113 696.027> 1515 127<519.065 745.327>
Fore
1273 426 m 0
 1422 426 1515 534 1515 644 c 0
 1515 730 1453 784 1366 784 c 0
 1263 784 1175 709 1065 561 c 1
 1098 488 1159 426 1273 426 c 0
672 791 m 0
 524 791 430 684 430 573 c 0
 430 488 491 434 578 434 c 0
 684 434 777 519 880 657 c 1
 846 731 788 791 672 791 c 0
1642 716 m 0
 1642 501 1498 186 1234 186 c 0
 1097 186 1025 275 942 442 c 1
 818 270 698 186 568 186 c 0
 411 186 303 314 303 503 c 0
 303 705 438 1030 710 1030 c 0
 847 1030 923 935 1002 774 c 1
 1129 947 1247 1032 1377 1032 c 0
 1534 1032 1642 905 1642 716 c 0
EndSplineSet
EndChar
StartChar: integral
Encoding: 355 8747 387
Width: 1249
Flags: W
HStem: -373 125<186.853 367.135> 1223 21G<1254.5 1342.5> 1434 122<1116.87 1291.16>
VStem: 12 287<-246.239 -100.023> 1186 284<1282.06 1371.82 1326.71 1430.41>
Fore
299 -136 m 0
 299 -194 262 -248 314 -248 c 0
 412 -248 526 244 596 573 c 0
 715 1098 883 1556 1267 1556 c 0
 1392 1556 1470 1496 1470 1402 c 0
 1470 1303 1394 1223 1291 1223 c 0
 1218 1223 1186 1261 1186 1325 c 0
 1186 1367 1195 1383 1195 1408 c 0
 1195 1427 1188 1434 1170 1434 c 0
 1103 1434 1018 1212 916 767 c 2
 895 676 l 2
 801 260 711 -107 460 -290 c 0
 385 -345 302 -373 214 -373 c 0
 85 -373 12 -314 12 -221 c 0
 12 -124 80 -39 197 -39 c 0
 266 -39 299 -75 299 -136 c 0
EndSplineSet
EndChar
StartChar: approxequal
Encoding: 356 8776 388
Width: 1716
Flags: W
HStem: 248 233<1043.53 1382> 385 233<502.392 841.13> 666 233<1125.15 1463.36> 803 231<580.048 923.301>
Fore
1316 899 m 0x20
 1459 899 1590 977 1705 1059 c 1
 1657 815 l 1
 1530 732 1399 666 1247 666 c 0x20
 1047 666 918 803 731 803 c 0
 588 803 456 726 342 643 c 1
 389 887 l 1
 517 970 647 1034 799 1034 c 0x10
 1001 1034 1134 899 1316 899 c 0x20
1234 481 m 0x80
 1377 481 1509 559 1624 641 c 1
 1576 397 l 1
 1449 314 1318 248 1166 248 c 0x80
 966 248 836 385 650 385 c 0
 507 385 378 311 261 225 c 1
 308 469 l 1
 435 552 566 618 718 618 c 0x40
 915 618 1054 481 1234 481 c 0x80
EndSplineSet
EndChar
StartChar: notequal
Encoding: 357 8800 389
Width: 1716
Flags: W
HStem: -10 21G<435.315 475.393> 295 237<320 510 1010 1556> 752 235<409 963 1456 1645>
Fore
409 987 m 1
 1200 987 l 1
 1511 1292 l 1
 1636 1167 l 1
 1456 987 l 1
 1691 987 l 1
 1645 752 l 1
 1227 752 l 1
 1010 532 l 1
 1602 532 l 1
 1556 295 l 1
 766 295 l 1
 455 -10 l 1
 330 117 l 1
 510 295 l 1
 274 295 l 1
 320 532 l 1
 744 532 l 1
 963 752 l 1
 363 752 l 1
 409 987 l 1
EndSplineSet
EndChar
StartChar: lessequal
Encoding: 358 8804 390
Width: 1716
Flags: W
HStem: 0 238<263 1499>
Fore
1545 238 m 1
 1499 0 l 1
 217 0 l 1
 263 238 l 1
 1545 238 l 1
1683 948 m 1
 746 739 l 1
 1602 530 l 1
 1555 287 l 1
 338 623 l 1
 384 858 l 1
 1731 1192 l 1
 1683 948 l 1
EndSplineSet
EndChar
StartChar: greaterequal
Encoding: 359 8805 391
Width: 1716
Flags: W
HStem: 0 238<263 1499>
Fore
263 238 m 1
 1545 238 l 1
 1499 0 l 1
 217 0 l 1
 263 238 l 1
401 948 m 1
 449 1192 l 1
 1666 858 l 1
 1620 623 l 1
 273 287 l 1
 320 530 l 1
 1258 739 l 1
 401 948 l 1
EndSplineSet
EndChar
StartChar: lozenge
Encoding: 360 9674 392
Width: 1012
Flags: W
VStem: 121 1000<592 592 592 592 592 592>
Fore
780 1409 m 1
 236 592 l 1
 461 -233 l 1
 1006 592 l 1
 780 1409 l 1
827 1653 m 1
 1121 592 l 1
 413 -477 l 1
 121 592 l 1
 827 1653 l 1
EndSplineSet
EndChar
StartChar: uniFB02
Encoding: 394 64258 393
Width: 1518
Flags: W
HStem: 0 21G<217 578.889 985 1349.88> 864 256<257 385 793 1024> 1321 235<841.754 1242>
Fore
450 1198 m 2
 500 1456 671 1556 937 1556 c 2
 1648 1556 l 1
 1346 0 l 1
 985 0 l 1
 1242 1321 l 1
 968 1321 l 2
 866 1321 825 1287 808 1198 c 2
 793 1120 l 1
 1074 1120 l 1
 1024 864 l 1
 743 864 l 1
 575 0 l 1
 217 0 l 1
 385 864 l 1
 207 864 l 1
 257 1120 l 1
 435 1120 l 1
 450 1198 l 2
EndSplineSet
LCarets2: 1 0 
Ligature2: "'liga' Standard Ligatures in Latin lookup 2" f l
EndChar
StartChar: uniFB01
Encoding: 393 64257 394
Width: 1518
Flags: W
HStem: 0 21G<219 583.889 985 1349.89> 864 256<261 387 798 1153> 1264 292<1287 1592> 1321 235<855.162 1168>
Fore
1287 1556 m 1xe0
 1648 1556 l 1xd0
 1592 1264 l 1
 1231 1264 l 1
 1287 1556 l 1xe0
452 1198 m 2
 502 1456 673 1556 939 1556 c 2
 1213 1556 l 1
 1168 1321 l 1
 970 1321 l 2
 877 1321 831 1293 813 1198 c 2
 798 1120 l 1
 1564 1120 l 1
 1346 0 l 1
 985 0 l 1
 1153 864 l 1
 748 864 l 1
 580 0 l 1
 219 0 l 1
 387 864 l 1
 211 864 l 1
 261 1120 l 1
 437 1120 l 1
 452 1198 l 2
EndSplineSet
LCarets2: 1 0 
Ligature2: "'liga' Standard Ligatures in Latin lookup 2" f i
EndChar
